%TF.GenerationSoftware,KiCad,Pcbnew,9.0.2*%
%TF.CreationDate,2026-02-26T22:18:23+08:00*%
%TF.ProjectId,tuki_GlowStick,74756b69-5f47-46c6-9f77-537469636b2e,rev?*%
%TF.SameCoordinates,Original*%
%TF.FileFunction,Paste,Top*%
%TF.FilePolarity,Positive*%
%FSLAX46Y46*%
G04 Gerber Fmt 4.6, Leading zero omitted, Abs format (unit mm)*
G04 Created by KiCad (PCBNEW 9.0.2) date 2026-02-26 22:18:23*
%MOMM*%
%LPD*%
G01*
G04 APERTURE LIST*
G04 Aperture macros list*
%AMRoundRect*
0 Rectangle with rounded corners*
0 $1 Rounding radius*
0 $2 $3 $4 $5 $6 $7 $8 $9 X,Y pos of 4 corners*
0 Add a 4 corners polygon primitive as box body*
4,1,4,$2,$3,$4,$5,$6,$7,$8,$9,$2,$3,0*
0 Add four circle primitives for the rounded corners*
1,1,$1+$1,$2,$3*
1,1,$1+$1,$4,$5*
1,1,$1+$1,$6,$7*
1,1,$1+$1,$8,$9*
0 Add four rect primitives between the rounded corners*
20,1,$1+$1,$2,$3,$4,$5,0*
20,1,$1+$1,$4,$5,$6,$7,0*
20,1,$1+$1,$6,$7,$8,$9,0*
20,1,$1+$1,$8,$9,$2,$3,0*%
%AMFreePoly0*
4,1,14,0.334644,0.085355,0.385355,0.034644,0.400000,-0.000711,0.400000,-0.050000,0.385355,-0.085355,0.350000,-0.100000,-0.350000,-0.100000,-0.385355,-0.085355,-0.400000,-0.050000,-0.400000,0.050000,-0.385355,0.085355,-0.350000,0.100000,0.299289,0.100000,0.334644,0.085355,0.334644,0.085355,$1*%
%AMFreePoly1*
4,1,14,0.385355,0.085355,0.400000,0.050000,0.400000,0.000711,0.385355,-0.034644,0.334644,-0.085355,0.299289,-0.100000,-0.350000,-0.100000,-0.385355,-0.085355,-0.400000,-0.050000,-0.400000,0.050000,-0.385355,0.085355,-0.350000,0.100000,0.350000,0.100000,0.385355,0.085355,0.385355,0.085355,$1*%
%AMFreePoly2*
4,1,14,0.085355,0.385355,0.100000,0.350000,0.100000,-0.350000,0.085355,-0.385355,0.050000,-0.400000,-0.050000,-0.400000,-0.085355,-0.385355,-0.100000,-0.350000,-0.100000,0.299289,-0.085355,0.334644,-0.034644,0.385355,0.000711,0.400000,0.050000,0.400000,0.085355,0.385355,0.085355,0.385355,$1*%
%AMFreePoly3*
4,1,14,0.034644,0.385355,0.085355,0.334644,0.100000,0.299289,0.100000,-0.350000,0.085355,-0.385355,0.050000,-0.400000,-0.050000,-0.400000,-0.085355,-0.385355,-0.100000,-0.350000,-0.100000,0.350000,-0.085355,0.385355,-0.050000,0.400000,-0.000711,0.400000,0.034644,0.385355,0.034644,0.385355,$1*%
%AMFreePoly4*
4,1,14,0.385355,0.085355,0.400000,0.050000,0.400000,-0.050000,0.385355,-0.085355,0.350000,-0.100000,-0.299289,-0.100000,-0.334644,-0.085355,-0.385355,-0.034644,-0.400000,0.000711,-0.400000,0.050000,-0.385355,0.085355,-0.350000,0.100000,0.350000,0.100000,0.385355,0.085355,0.385355,0.085355,$1*%
%AMFreePoly5*
4,1,14,0.385355,0.085355,0.400000,0.050000,0.400000,-0.050000,0.385355,-0.085355,0.350000,-0.100000,-0.350000,-0.100000,-0.385355,-0.085355,-0.400000,-0.050000,-0.400000,-0.000711,-0.385355,0.034644,-0.334644,0.085355,-0.299289,0.100000,0.350000,0.100000,0.385355,0.085355,0.385355,0.085355,$1*%
%AMFreePoly6*
4,1,14,0.085355,0.385355,0.100000,0.350000,0.100000,-0.299289,0.085355,-0.334644,0.034644,-0.385355,-0.000711,-0.400000,-0.050000,-0.400000,-0.085355,-0.385355,-0.100000,-0.350000,-0.100000,0.350000,-0.085355,0.385355,-0.050000,0.400000,0.050000,0.400000,0.085355,0.385355,0.085355,0.385355,$1*%
%AMFreePoly7*
4,1,14,0.085355,0.385355,0.100000,0.350000,0.100000,-0.350000,0.085355,-0.385355,0.050000,-0.400000,0.000711,-0.400000,-0.034644,-0.385355,-0.085355,-0.334644,-0.100000,-0.299289,-0.100000,0.350000,-0.085355,0.385355,-0.050000,0.400000,0.050000,0.400000,0.085355,0.385355,0.085355,0.385355,$1*%
G04 Aperture macros list end*
%ADD10RoundRect,0.237500X-0.237500X0.250000X-0.237500X-0.250000X0.237500X-0.250000X0.237500X0.250000X0*%
%ADD11RoundRect,0.175000X-0.175000X-0.425000X0.175000X-0.425000X0.175000X0.425000X-0.175000X0.425000X0*%
%ADD12RoundRect,0.190000X0.190000X0.410000X-0.190000X0.410000X-0.190000X-0.410000X0.190000X-0.410000X0*%
%ADD13RoundRect,0.200000X0.200000X0.400000X-0.200000X0.400000X-0.200000X-0.400000X0.200000X-0.400000X0*%
%ADD14RoundRect,0.175000X0.175000X0.425000X-0.175000X0.425000X-0.175000X-0.425000X0.175000X-0.425000X0*%
%ADD15RoundRect,0.190000X-0.190000X-0.410000X0.190000X-0.410000X0.190000X0.410000X-0.190000X0.410000X0*%
%ADD16RoundRect,0.200000X-0.200000X-0.400000X0.200000X-0.400000X0.200000X0.400000X-0.200000X0.400000X0*%
%ADD17O,1.100000X1.700000*%
%ADD18RoundRect,0.090000X-0.360000X0.660000X-0.360000X-0.660000X0.360000X-0.660000X0.360000X0.660000X0*%
%ADD19RoundRect,0.237500X-0.300000X-0.237500X0.300000X-0.237500X0.300000X0.237500X-0.300000X0.237500X0*%
%ADD20RoundRect,0.237500X-0.380070X0.044194X0.044194X-0.380070X0.380070X-0.044194X-0.044194X0.380070X0*%
%ADD21RoundRect,0.218750X-0.256250X0.218750X-0.256250X-0.218750X0.256250X-0.218750X0.256250X0.218750X0*%
%ADD22RoundRect,0.250000X-0.650000X0.412500X-0.650000X-0.412500X0.650000X-0.412500X0.650000X0.412500X0*%
%ADD23RoundRect,0.250000X-0.250000X-0.250000X0.250000X-0.250000X0.250000X0.250000X-0.250000X0.250000X0*%
%ADD24RoundRect,0.150000X0.150000X0.215000X-0.150000X0.215000X-0.150000X-0.215000X0.150000X-0.215000X0*%
%ADD25RoundRect,0.100000X0.687500X0.100000X-0.687500X0.100000X-0.687500X-0.100000X0.687500X-0.100000X0*%
%ADD26RoundRect,0.172500X0.000000X-0.243952X0.243952X0.000000X0.000000X0.243952X-0.243952X0.000000X0*%
%ADD27FreePoly0,45.000000*%
%ADD28RoundRect,0.050000X-0.212132X-0.282843X0.282843X0.212132X0.212132X0.282843X-0.282843X-0.212132X0*%
%ADD29FreePoly1,45.000000*%
%ADD30FreePoly2,45.000000*%
%ADD31RoundRect,0.050000X0.212132X-0.282843X0.282843X-0.212132X-0.212132X0.282843X-0.282843X0.212132X0*%
%ADD32FreePoly3,45.000000*%
%ADD33FreePoly4,45.000000*%
%ADD34FreePoly5,45.000000*%
%ADD35FreePoly6,45.000000*%
%ADD36FreePoly7,45.000000*%
%ADD37RoundRect,0.237500X0.237500X-0.300000X0.237500X0.300000X-0.237500X0.300000X-0.237500X-0.300000X0*%
%ADD38RoundRect,0.150000X-0.512500X-0.150000X0.512500X-0.150000X0.512500X0.150000X-0.512500X0.150000X0*%
%ADD39RoundRect,0.210000X0.490000X1.540000X-0.490000X1.540000X-0.490000X-1.540000X0.490000X-1.540000X0*%
%ADD40RoundRect,0.250000X-0.337500X-0.475000X0.337500X-0.475000X0.337500X0.475000X-0.337500X0.475000X0*%
%ADD41RoundRect,0.242500X0.242500X0.422500X-0.242500X0.422500X-0.242500X-0.422500X0.242500X-0.422500X0*%
%ADD42RoundRect,0.150000X0.825000X0.150000X-0.825000X0.150000X-0.825000X-0.150000X0.825000X-0.150000X0*%
%ADD43RoundRect,0.250000X-0.450000X0.350000X-0.450000X-0.350000X0.450000X-0.350000X0.450000X0.350000X0*%
%ADD44RoundRect,0.250000X0.450000X-0.350000X0.450000X0.350000X-0.450000X0.350000X-0.450000X-0.350000X0*%
%ADD45RoundRect,0.150000X0.512500X0.150000X-0.512500X0.150000X-0.512500X-0.150000X0.512500X-0.150000X0*%
%ADD46RoundRect,0.237500X0.300000X0.237500X-0.300000X0.237500X-0.300000X-0.237500X0.300000X-0.237500X0*%
%ADD47RoundRect,0.237500X-0.250000X-0.237500X0.250000X-0.237500X0.250000X0.237500X-0.250000X0.237500X0*%
G04 APERTURE END LIST*
D10*
%TO.C,R3*%
X208700000Y-264037500D03*
X208700000Y-265862500D03*
%TD*%
D11*
%TO.C,J1*%
X214750000Y-264570000D03*
D12*
X216770000Y-264570000D03*
D13*
X218000000Y-264570000D03*
D14*
X215750000Y-264570000D03*
D15*
X213730000Y-264570000D03*
D16*
X212500000Y-264570000D03*
D17*
X210930000Y-264650000D03*
X210930000Y-268450000D03*
X219570000Y-264650000D03*
X219570000Y-268450000D03*
%TD*%
D18*
%TO.C,D5*%
X216900001Y-119580000D03*
X213600001Y-119580000D03*
X213600001Y-124480000D03*
X216900001Y-124480000D03*
%TD*%
D19*
%TO.C,C2*%
X202550000Y-259574998D03*
X204275000Y-259574998D03*
%TD*%
%TO.C,C7*%
X219387500Y-122820000D03*
X221112500Y-122820000D03*
%TD*%
D20*
%TO.C,C16*%
X217400000Y-185910000D03*
X218619760Y-187129758D03*
%TD*%
D21*
%TO.C,D2*%
X205615000Y-267849999D03*
X205615000Y-269424999D03*
%TD*%
D10*
%TO.C,R2*%
X221800000Y-264327500D03*
X221800000Y-266152500D03*
%TD*%
%TO.C,Rr1*%
X205549999Y-263204996D03*
X205549999Y-265029996D03*
%TD*%
D22*
%TO.C,C4*%
X203000000Y-246512500D03*
X203000000Y-249637500D03*
%TD*%
D18*
%TO.C,D7*%
X216900001Y-71340000D03*
X213600001Y-71340000D03*
X213600001Y-76240000D03*
X216900001Y-76240000D03*
%TD*%
D23*
%TO.C,D3*%
X203750000Y-243400000D03*
X206250000Y-243400000D03*
%TD*%
D24*
%TO.C,Q1*%
X212475000Y-257100000D03*
X212475000Y-256200000D03*
X211725000Y-257100000D03*
X211725000Y-256200000D03*
D25*
X214212500Y-257625000D03*
X214212500Y-256975000D03*
X214212500Y-256325000D03*
X214212500Y-255675000D03*
X209987500Y-255675000D03*
X209987500Y-256325000D03*
X209987500Y-256975000D03*
X209987500Y-257625000D03*
%TD*%
D26*
%TO.C,U5*%
X219118580Y-182930990D03*
X219719619Y-183532029D03*
X219719619Y-182329951D03*
X220320658Y-182930990D03*
D27*
X218128629Y-183390609D03*
D28*
X218411471Y-183673452D03*
X218694314Y-183956295D03*
X218977157Y-184239138D03*
D29*
X219259999Y-184521981D03*
D30*
X220179238Y-184521980D03*
D31*
X220462081Y-184239138D03*
X220744924Y-183956295D03*
X221027767Y-183673452D03*
D32*
X221310610Y-183390610D03*
D33*
X221310609Y-182471371D03*
D28*
X221027767Y-182188528D03*
X220744924Y-181905685D03*
X220462081Y-181622842D03*
D34*
X220179239Y-181339999D03*
D35*
X219260000Y-181340000D03*
D31*
X218977157Y-181622842D03*
X218694314Y-181905685D03*
X218411471Y-182188528D03*
D36*
X218128628Y-182471370D03*
%TD*%
D37*
%TO.C,R5*%
X225000001Y-260537500D03*
X225000001Y-258812500D03*
%TD*%
D18*
%TO.C,D4*%
X216900001Y-143700000D03*
X213600001Y-143700000D03*
X213600001Y-148600000D03*
X216900001Y-148600000D03*
%TD*%
D22*
%TO.C,C5*%
X215250000Y-249712500D03*
X215250000Y-252837500D03*
%TD*%
D10*
%TO.C,Rr2*%
X202540000Y-263204999D03*
X202540000Y-265029999D03*
%TD*%
D38*
%TO.C,U3*%
X210137499Y-248387503D03*
X210137499Y-249337503D03*
X210137499Y-250287503D03*
X212412499Y-250287503D03*
X212412499Y-249337503D03*
X212412499Y-248387503D03*
%TD*%
D20*
%TO.C,C17*%
X216270000Y-187030000D03*
X217489760Y-188249758D03*
%TD*%
D19*
%TO.C,C8*%
X219427500Y-98990000D03*
X221152500Y-98990000D03*
%TD*%
%TO.C,C6*%
X219427500Y-139740000D03*
X221152500Y-139740000D03*
%TD*%
D39*
%TO.C,L1*%
X212325000Y-243400000D03*
X209725000Y-243400000D03*
%TD*%
D40*
%TO.C,C3*%
X217737500Y-254775000D03*
X219812500Y-254775000D03*
%TD*%
D18*
%TO.C,D6*%
X216900001Y-95460000D03*
X213600001Y-95460000D03*
X213600001Y-100360000D03*
X216900001Y-100360000D03*
%TD*%
D41*
%TO.C,U2*%
X220525000Y-259725000D03*
X220525000Y-258075000D03*
X219325000Y-259725000D03*
X219325000Y-258075000D03*
D42*
X222400000Y-260805000D03*
X222400000Y-259535000D03*
X222400000Y-258265000D03*
X222400000Y-256995000D03*
X217450000Y-256995000D03*
X217450000Y-258265000D03*
X217450000Y-259535000D03*
X217450000Y-260805000D03*
%TD*%
D43*
%TO.C,R6*%
X205960000Y-248170000D03*
X205960000Y-250170000D03*
%TD*%
D44*
%TO.C,R1*%
X202562499Y-257550003D03*
X202562499Y-255550003D03*
%TD*%
D18*
%TO.C,D8*%
X216900001Y-47220000D03*
X213600001Y-47220000D03*
X213600001Y-52120000D03*
X216900001Y-52120000D03*
%TD*%
D10*
%TO.C,R4*%
X207887500Y-259462500D03*
X207887500Y-261287500D03*
%TD*%
D45*
%TO.C,U1*%
X207000000Y-257650000D03*
X207000000Y-256700000D03*
X207000000Y-255750000D03*
X204725000Y-255750000D03*
X204725000Y-256700000D03*
X204725000Y-257650000D03*
%TD*%
D46*
%TO.C,C1*%
X213850000Y-260800000D03*
X212125000Y-260800000D03*
%TD*%
D19*
%TO.C,C10*%
X219407500Y-50930000D03*
X221132500Y-50930000D03*
%TD*%
D21*
%TO.C,D1*%
X202525002Y-267849999D03*
X202525002Y-269424999D03*
%TD*%
D47*
%TO.C,R7*%
X206087500Y-251860000D03*
X207912500Y-251860000D03*
%TD*%
D19*
%TO.C,C9*%
X219430000Y-75230000D03*
X221155000Y-75230000D03*
%TD*%
D43*
%TO.C,R8*%
X205830000Y-197120000D03*
X205830000Y-199120000D03*
%TD*%
M02*
