%TF.GenerationSoftware,KiCad,Pcbnew,9.0.2*%
%TF.CreationDate,2026-02-26T22:18:24+08:00*%
%TF.ProjectId,tuki_GlowStick,74756b69-5f47-46c6-9f77-537469636b2e,rev?*%
%TF.SameCoordinates,Original*%
%TF.FileFunction,Profile,NP*%
%FSLAX46Y46*%
G04 Gerber Fmt 4.6, Leading zero omitted, Abs format (unit mm)*
G04 Created by KiCad (PCBNEW 9.0.2) date 2026-02-26 22:18:24*
%MOMM*%
%LPD*%
G01*
G04 APERTURE LIST*
%TA.AperFunction,Profile*%
%ADD10C,0.050000*%
%TD*%
G04 APERTURE END LIST*
D10*
X220250001Y-41050000D02*
X220250001Y-39550000D01*
X221250000Y-276049999D02*
X229250002Y-276050002D01*
X210250001Y-39549997D02*
G75*
G02*
X211249998Y-38550001I999999J-3D01*
G01*
X230250001Y-275050001D02*
X230250002Y-271049999D01*
X219250001Y-38550000D02*
G75*
G02*
X220250000Y-39550000I-1J-1000000D01*
G01*
X201250000Y-276050001D02*
G75*
G02*
X200249999Y-275050000I0J1000001D01*
G01*
X210250000Y-41050001D02*
X201250000Y-41050001D01*
X210250001Y-39549997D02*
X210250000Y-41050001D01*
X220250002Y-271049999D02*
X220250000Y-275050004D01*
X201250000Y-276050001D02*
X209250003Y-276049999D01*
X230250002Y-271049999D02*
X230250002Y-42050000D01*
X200250000Y-271050000D02*
X200250001Y-275050000D01*
X210250002Y-275050002D02*
G75*
G02*
X209250003Y-276050002I-1000002J2D01*
G01*
X221250000Y-276049999D02*
G75*
G02*
X220250001Y-275050004I0J999999D01*
G01*
X229250001Y-41050003D02*
X220250001Y-41050000D01*
X200250001Y-42049999D02*
G75*
G02*
X201250000Y-41050001I999999J-1D01*
G01*
X219250001Y-38550000D02*
X211249998Y-38550000D01*
X210250002Y-271050001D02*
X220250002Y-271049999D01*
X230250001Y-275050001D02*
G75*
G02*
X229250002Y-276050001I-1000001J1D01*
G01*
X229250001Y-41050003D02*
G75*
G02*
X230249997Y-42050000I-1J-999997D01*
G01*
X210250002Y-275050002D02*
X210250002Y-271050001D01*
X200250001Y-42049999D02*
X200250000Y-271050000D01*
M02*
