%TF.GenerationSoftware,KiCad,Pcbnew,9.0.2*%
%TF.CreationDate,2026-02-26T22:18:23+08:00*%
%TF.ProjectId,tuki_GlowStick,74756b69-5f47-46c6-9f77-537469636b2e,rev?*%
%TF.SameCoordinates,Original*%
%TF.FileFunction,Copper,L2,Bot*%
%TF.FilePolarity,Positive*%
%FSLAX46Y46*%
G04 Gerber Fmt 4.6, Leading zero omitted, Abs format (unit mm)*
G04 Created by KiCad (PCBNEW 9.0.2) date 2026-02-26 22:18:23*
%MOMM*%
%LPD*%
G01*
G04 APERTURE LIST*
G04 Aperture macros list*
%AMRoundRect*
0 Rectangle with rounded corners*
0 $1 Rounding radius*
0 $2 $3 $4 $5 $6 $7 $8 $9 X,Y pos of 4 corners*
0 Add a 4 corners polygon primitive as box body*
4,1,4,$2,$3,$4,$5,$6,$7,$8,$9,$2,$3,0*
0 Add four circle primitives for the rounded corners*
1,1,$1+$1,$2,$3*
1,1,$1+$1,$4,$5*
1,1,$1+$1,$6,$7*
1,1,$1+$1,$8,$9*
0 Add four rect primitives between the rounded corners*
20,1,$1+$1,$2,$3,$4,$5,0*
20,1,$1+$1,$4,$5,$6,$7,0*
20,1,$1+$1,$6,$7,$8,$9,0*
20,1,$1+$1,$8,$9,$2,$3,0*%
G04 Aperture macros list end*
%TA.AperFunction,HeatsinkPad*%
%ADD10O,1.100000X1.700000*%
%TD*%
%TA.AperFunction,ComponentPad*%
%ADD11R,2.000000X2.000000*%
%TD*%
%TA.AperFunction,ComponentPad*%
%ADD12C,2.000000*%
%TD*%
%TA.AperFunction,ComponentPad*%
%ADD13R,3.200000X2.000000*%
%TD*%
%TA.AperFunction,SMDPad,CuDef*%
%ADD14RoundRect,0.237500X-0.300000X-0.237500X0.300000X-0.237500X0.300000X0.237500X-0.300000X0.237500X0*%
%TD*%
%TA.AperFunction,ComponentPad*%
%ADD15R,3.000000X3.000000*%
%TD*%
%TA.AperFunction,ComponentPad*%
%ADD16C,3.000000*%
%TD*%
%TA.AperFunction,SMDPad,CuDef*%
%ADD17R,1.524000X3.025000*%
%TD*%
%TA.AperFunction,SMDPad,CuDef*%
%ADD18RoundRect,0.090000X0.360000X-0.660000X0.360000X0.660000X-0.360000X0.660000X-0.360000X-0.660000X0*%
%TD*%
%TA.AperFunction,ViaPad*%
%ADD19C,0.600000*%
%TD*%
%TA.AperFunction,Conductor*%
%ADD20C,1.000000*%
%TD*%
%TA.AperFunction,Conductor*%
%ADD21C,0.300000*%
%TD*%
%TA.AperFunction,Conductor*%
%ADD22C,0.170000*%
%TD*%
%TA.AperFunction,Conductor*%
%ADD23C,0.150000*%
%TD*%
G04 APERTURE END LIST*
D10*
%TO.P,J1,S1,SHIELD*%
%TO.N,-BATT*%
X210930000Y-264650000D03*
X210930000Y-268450000D03*
X219570000Y-264650000D03*
X219570000Y-268450000D03*
%TD*%
D11*
%TO.P,SW1,A,A*%
%TO.N,IO5*%
X223250000Y-202125000D03*
D12*
%TO.P,SW1,B,B*%
%TO.N,IO7*%
X223250000Y-197125000D03*
%TO.P,SW1,C,C*%
%TO.N,IO6*%
X223250000Y-199625000D03*
D13*
%TO.P,SW1,MP*%
%TO.N,N/C*%
X215750000Y-205225000D03*
X215750000Y-194025000D03*
D12*
%TO.P,SW1,S1,S1*%
%TO.N,Net-(R8-Pad1)*%
X208750000Y-197125000D03*
%TO.P,SW1,S2,S2*%
%TO.N,IO21*%
X208750000Y-202125000D03*
%TD*%
D14*
%TO.P,C15,1*%
%TO.N,+5V*%
X218427500Y-141460000D03*
%TO.P,C15,2*%
%TO.N,-BATT*%
X220152500Y-141460000D03*
%TD*%
%TO.P,C14,1*%
%TO.N,+5V*%
X218407500Y-126990000D03*
%TO.P,C14,2*%
%TO.N,-BATT*%
X220132500Y-126990000D03*
%TD*%
D15*
%TO.P,BT1,1,+*%
%TO.N,+BATT*%
X215250000Y-246450000D03*
D16*
%TO.P,BT1,2,-*%
%TO.N,-BATT*%
X215250000Y-208650000D03*
%TD*%
D17*
%TO.P,U4,0,GPIO0*%
%TO.N,IO0*%
X209680000Y-174800000D03*
%TO.P,U4,1,GPIO1*%
%TO.N,IO1*%
X212220000Y-174800000D03*
%TO.P,U4,2,GPIO2*%
%TO.N,IO2*%
X214760000Y-174800000D03*
%TO.P,U4,3,GPIO3*%
%TO.N,IO3*%
X217300000Y-174800000D03*
%TO.P,U4,3.3,3V3*%
%TO.N,IO21*%
X222380000Y-174800000D03*
%TO.P,U4,4,GPIO4*%
%TO.N,IO4*%
X219840000Y-174800000D03*
%TO.P,U4,5,GPIO5*%
%TO.N,IO5*%
X227460000Y-190770000D03*
%TO.P,U4,5V,5V*%
%TO.N,+5V*%
X227460000Y-174800000D03*
%TO.P,U4,6,GPIO6*%
%TO.N,IO6*%
X224920000Y-190770000D03*
%TO.P,U4,7,GPIO7*%
%TO.N,IO7*%
X222380000Y-190770000D03*
%TO.P,U4,8,GPIO8*%
%TO.N,IO8*%
X219840000Y-190770000D03*
%TO.P,U4,9,GPIO9*%
%TO.N,unconnected-(U4-GPIO9-Pad9)*%
X217300000Y-190770000D03*
%TO.P,U4,10,GPIO10*%
%TO.N,IO10*%
X214760000Y-190770000D03*
%TO.P,U4,20,GPIO20*%
%TO.N,IO20*%
X212220000Y-190770000D03*
%TO.P,U4,21,GPIO21*%
%TO.N,IO21*%
X209680000Y-190770000D03*
%TO.P,U4,G,GND*%
%TO.N,-BATT*%
X224920000Y-174800000D03*
%TD*%
D14*
%TO.P,C11,1*%
%TO.N,+5V*%
X218447500Y-54750000D03*
%TO.P,C11,2*%
%TO.N,-BATT*%
X220172500Y-54750000D03*
%TD*%
D18*
%TO.P,D12,1,VDD*%
%TO.N,+5V*%
X216900001Y-124480000D03*
%TO.P,D12,2,DOUT*%
%TO.N,Net-(D12-DOUT)*%
X213600001Y-124480000D03*
%TO.P,D12,3,VSS*%
%TO.N,-BATT*%
X213600001Y-119580000D03*
%TO.P,D12,4,DIN*%
%TO.N,Net-(D11-DOUT)*%
X216900001Y-119580000D03*
%TD*%
%TO.P,D11,1,VDD*%
%TO.N,+5V*%
X216900001Y-100360000D03*
%TO.P,D11,2,DOUT*%
%TO.N,Net-(D11-DOUT)*%
X213600001Y-100360000D03*
%TO.P,D11,3,VSS*%
%TO.N,-BATT*%
X213600001Y-95460000D03*
%TO.P,D11,4,DIN*%
%TO.N,Net-(D10-DOUT)*%
X216900001Y-95460000D03*
%TD*%
%TO.P,D9,1,VDD*%
%TO.N,+5V*%
X216900001Y-52120000D03*
%TO.P,D9,2,DOUT*%
%TO.N,Net-(D10-DIN)*%
X213600001Y-52120000D03*
%TO.P,D9,3,VSS*%
%TO.N,-BATT*%
X213600001Y-47220000D03*
%TO.P,D9,4,DIN*%
%TO.N,Net-(D8-DOUT)*%
X216900001Y-47220000D03*
%TD*%
D14*
%TO.P,C12,1*%
%TO.N,+5V*%
X218417500Y-78750000D03*
%TO.P,C12,2*%
%TO.N,-BATT*%
X220142500Y-78750000D03*
%TD*%
D18*
%TO.P,D10,1,VDD*%
%TO.N,+5V*%
X216900001Y-76240000D03*
%TO.P,D10,2,DOUT*%
%TO.N,Net-(D10-DOUT)*%
X213600001Y-76240000D03*
%TO.P,D10,3,VSS*%
%TO.N,-BATT*%
X213600001Y-71340000D03*
%TO.P,D10,4,DIN*%
%TO.N,Net-(D10-DIN)*%
X216900001Y-71340000D03*
%TD*%
D14*
%TO.P,C13,1*%
%TO.N,+5V*%
X218430000Y-102850000D03*
%TO.P,C13,2*%
%TO.N,-BATT*%
X220155000Y-102850000D03*
%TD*%
D18*
%TO.P,D13,1,VDD*%
%TO.N,+5V*%
X216900001Y-148600000D03*
%TO.P,D13,2,DOUT*%
%TO.N,unconnected-(D13-DOUT-Pad2)*%
X213600001Y-148600000D03*
%TO.P,D13,3,VSS*%
%TO.N,-BATT*%
X213600001Y-143700000D03*
%TO.P,D13,4,DIN*%
%TO.N,Net-(D12-DOUT)*%
X216900001Y-143700000D03*
%TD*%
D19*
%TO.N,-BATT*%
X215875000Y-50225000D03*
X215775000Y-49025000D03*
X214750000Y-49750000D03*
X214869763Y-52170000D03*
X214900000Y-51025000D03*
X212000000Y-52750000D03*
X212000000Y-51725000D03*
X212500001Y-50675000D03*
X222610000Y-122170000D03*
X207700000Y-244890000D03*
X206440000Y-246400000D03*
X211990000Y-144800000D03*
X221630000Y-255010000D03*
X204230000Y-248560000D03*
X213340000Y-207770000D03*
X213630000Y-210100000D03*
X214850000Y-72470000D03*
X221960000Y-170610000D03*
X210150000Y-261210000D03*
X204550000Y-249830000D03*
X225370000Y-177110000D03*
X225440000Y-177860000D03*
X209920000Y-264320000D03*
X220780000Y-104480000D03*
X213720000Y-251910000D03*
X213260000Y-98510000D03*
X221130000Y-53400000D03*
X226260000Y-177130000D03*
X212500000Y-207500000D03*
X205270000Y-200480000D03*
X220920000Y-268660000D03*
X225800000Y-258520000D03*
X219660000Y-260970000D03*
X222590000Y-74600000D03*
X212030000Y-269600000D03*
X221840000Y-79620000D03*
X210790000Y-260630000D03*
X212500000Y-210400000D03*
X221070000Y-121560000D03*
X220910000Y-255700000D03*
X220890000Y-56060000D03*
X211960000Y-149340000D03*
X207890000Y-249320000D03*
X215190000Y-147890000D03*
X209740000Y-269550000D03*
X212660000Y-121370000D03*
X221770000Y-54890000D03*
X206730000Y-261200000D03*
X224150000Y-170370000D03*
X213960000Y-73010000D03*
X219940000Y-256200000D03*
X224960000Y-170900000D03*
X214370000Y-185720000D03*
X205180000Y-259910000D03*
X212820000Y-211450000D03*
X217820000Y-207010000D03*
X223590000Y-172460000D03*
X206810000Y-200380000D03*
X221000000Y-80510000D03*
X211860000Y-144030000D03*
X215080000Y-185810000D03*
X211870000Y-263520000D03*
X217200000Y-211180000D03*
X212150000Y-268580000D03*
X208810000Y-245940000D03*
X204640000Y-251640000D03*
X211050000Y-267100000D03*
X218760000Y-207410000D03*
X214870000Y-144440000D03*
X214670000Y-96880000D03*
X222500000Y-255240000D03*
X216020000Y-188530000D03*
X207090000Y-245790000D03*
X210890000Y-269780000D03*
X222250000Y-126990000D03*
X224020000Y-177110000D03*
X212870000Y-74560000D03*
X224610000Y-177890000D03*
X218530000Y-266920000D03*
X221140000Y-128260000D03*
X221680000Y-255700000D03*
X212510000Y-48740000D03*
X218540000Y-268770000D03*
X203410000Y-248270000D03*
X217900000Y-210390000D03*
X213870000Y-253620000D03*
X214690000Y-254210000D03*
X223830000Y-258360000D03*
X221800000Y-53970000D03*
X221130000Y-52170000D03*
X219430000Y-256840000D03*
X221070000Y-126170000D03*
X220660000Y-264950000D03*
X221400000Y-141600000D03*
X222140000Y-52140000D03*
X206090000Y-261790000D03*
X222810000Y-171960000D03*
X214870000Y-143700000D03*
X216880000Y-207140000D03*
X222590000Y-98850000D03*
X220940000Y-254730000D03*
X212230000Y-123180000D03*
X214770000Y-98810000D03*
X212100000Y-267780000D03*
X209570000Y-263620000D03*
X222510000Y-261530000D03*
X222020000Y-172230000D03*
X219420000Y-269900000D03*
X221510000Y-104270000D03*
X217880000Y-268290000D03*
X221550000Y-142550000D03*
X222570000Y-50410000D03*
X218660000Y-270050000D03*
X215550000Y-254200000D03*
X222970000Y-264290000D03*
X203200000Y-250990000D03*
X219220000Y-188280000D03*
X222930000Y-265040000D03*
X208180000Y-245550000D03*
X215050000Y-123510000D03*
X206900000Y-244840000D03*
X201220000Y-250680000D03*
X220360000Y-260970000D03*
X210790000Y-252440000D03*
X208900000Y-256670000D03*
X222590000Y-75730000D03*
X224140000Y-265500000D03*
X214050000Y-98520000D03*
X215175000Y-210875000D03*
X221760000Y-78560000D03*
X220640000Y-264320000D03*
X214520000Y-74620000D03*
X208670000Y-247850000D03*
X201590000Y-249930000D03*
X209030000Y-252480000D03*
X211940000Y-150070000D03*
X222310000Y-138950000D03*
X211960000Y-96490000D03*
X213750000Y-150390000D03*
X220680000Y-256340000D03*
X222580000Y-76780000D03*
X223700000Y-177910000D03*
X204860000Y-258650000D03*
X221210000Y-138690000D03*
X217720000Y-267410000D03*
X222470000Y-140120000D03*
X218220000Y-269530000D03*
X214930000Y-120440000D03*
X214870000Y-143000000D03*
X212060000Y-120610000D03*
X224590000Y-172030000D03*
X215650000Y-185360000D03*
X212870000Y-97190000D03*
X213660000Y-121420000D03*
X221550000Y-261560000D03*
X213630000Y-74580000D03*
X220910000Y-253670000D03*
X221450000Y-77750000D03*
X210880000Y-261460000D03*
X221700000Y-73610000D03*
X209450000Y-261460000D03*
X209770000Y-268700000D03*
X221380000Y-127460000D03*
X204500000Y-249170000D03*
X203440000Y-260830000D03*
X225130000Y-170130000D03*
X219510000Y-186320000D03*
X208690000Y-248820000D03*
X219540000Y-251860000D03*
X218830000Y-211050000D03*
X221800000Y-49410000D03*
X209860000Y-251590000D03*
X212340000Y-98580000D03*
X219430000Y-267080000D03*
X221460000Y-102710000D03*
X207490000Y-246380000D03*
X218530000Y-267740000D03*
X219820000Y-187710000D03*
X220040000Y-186850000D03*
X204140000Y-260800000D03*
X206950000Y-199220000D03*
X218680000Y-263930000D03*
X217375000Y-209900000D03*
X206060000Y-200560000D03*
X214900000Y-75620000D03*
X221890000Y-124540000D03*
X213120000Y-122690000D03*
X224660000Y-177090000D03*
X220800000Y-252860000D03*
X220860000Y-142560000D03*
X218375000Y-208725000D03*
X220050000Y-252610000D03*
X221590000Y-254210000D03*
X222690000Y-100020000D03*
X220110000Y-256860000D03*
X204360000Y-250890000D03*
X213730000Y-252750000D03*
X214920000Y-185100000D03*
X220600000Y-267470000D03*
X214960000Y-149470000D03*
X222310000Y-140980000D03*
X202010000Y-250880000D03*
X218560000Y-188890000D03*
X221020000Y-124750000D03*
X214730000Y-48560000D03*
X209960000Y-252450000D03*
X217420000Y-208930000D03*
X214290000Y-122810000D03*
X212570000Y-209540000D03*
X216525000Y-210550000D03*
X221330000Y-267740000D03*
X201520000Y-249080000D03*
X213750000Y-97190000D03*
X208680000Y-247070000D03*
X202570000Y-251570000D03*
X209040000Y-251570000D03*
X213530000Y-48850000D03*
X222080000Y-97830000D03*
X222800000Y-170640000D03*
X218130000Y-209480000D03*
X204710000Y-260420000D03*
X214710000Y-150290000D03*
X224100000Y-264800000D03*
X214640000Y-121200000D03*
X213120000Y-73140000D03*
X222550000Y-123390000D03*
X208230000Y-246510000D03*
X217675000Y-207750000D03*
X225890000Y-259240000D03*
X216310000Y-185120000D03*
X221690000Y-55670000D03*
X221030000Y-260950000D03*
X223630000Y-171420000D03*
X212450000Y-208725000D03*
X212170000Y-72690000D03*
X205770000Y-244790000D03*
X209780000Y-267970000D03*
X220080000Y-142620000D03*
X206240000Y-245490000D03*
X202650000Y-248240000D03*
X223440000Y-261430000D03*
X215050000Y-124510000D03*
X201740000Y-248100000D03*
X222600000Y-51340000D03*
X210350000Y-263530000D03*
X222340000Y-171330000D03*
X221680000Y-101490000D03*
X225440000Y-171470000D03*
X220610000Y-269710000D03*
X204090000Y-258650000D03*
X210790000Y-251640000D03*
X214830000Y-99650000D03*
X203880000Y-251570000D03*
X219850000Y-253400000D03*
X211880000Y-143200000D03*
X212830000Y-150340000D03*
X213725000Y-211025000D03*
X215390000Y-256680000D03*
X225510000Y-172400000D03*
X221400000Y-269340000D03*
X211860000Y-48140000D03*
X215190000Y-148600000D03*
%TO.N,+5V*%
X207370000Y-183150000D03*
X213850000Y-186730000D03*
X216900001Y-146025001D03*
%TO.N,IO3*%
X217270000Y-172120000D03*
X215820000Y-182130000D03*
X215850000Y-180250000D03*
%TO.N,Net-(D8-DOUT)*%
X214900000Y-47225000D03*
%TO.N,Net-(U2-~{CHRG})*%
X214925000Y-259275003D03*
X206650000Y-262700000D03*
%TO.N,Net-(U2-~{STDBY})*%
X203925000Y-262650000D03*
X214925000Y-258475000D03*
%TO.N,IO21*%
X208020000Y-181260000D03*
X208040000Y-187590000D03*
%TO.N,IO5*%
X227460000Y-187540000D03*
%TO.N,IO6*%
X224960000Y-186760000D03*
%TD*%
D20*
%TO.N,+5V*%
X216750000Y-76240000D02*
X218447500Y-74542500D01*
X218430000Y-102040000D02*
X216900001Y-100510001D01*
D21*
X208560000Y-184340000D02*
X220780000Y-184340000D01*
X209980000Y-186710000D02*
X207370000Y-184100000D01*
D20*
X216900001Y-146025001D02*
X216900001Y-148449999D01*
X218447500Y-74542500D02*
X218447500Y-53817500D01*
X216900001Y-124329999D02*
X218430000Y-122800000D01*
D21*
X227460000Y-177660000D02*
X227460000Y-174800000D01*
D20*
X217414999Y-146025001D02*
X218427500Y-145012500D01*
X218427500Y-145012500D02*
X218427500Y-127010000D01*
X216900001Y-124630001D02*
X216900001Y-124329999D01*
X218417500Y-98692500D02*
X218417500Y-77907500D01*
X218407500Y-126990000D02*
X218407500Y-126137500D01*
D21*
X213850000Y-186730000D02*
X213830000Y-186710000D01*
D20*
X218407500Y-126137500D02*
X216900001Y-124630001D01*
D21*
X207370000Y-183150000D02*
X208560000Y-184340000D01*
X213830000Y-186710000D02*
X209980000Y-186710000D01*
X220780000Y-184340000D02*
X227460000Y-177660000D01*
D20*
X216900001Y-100510001D02*
X216900001Y-100209999D01*
D21*
X207370000Y-184100000D02*
X207370000Y-183150000D01*
D20*
X218430000Y-122800000D02*
X218430000Y-102040000D01*
X216900001Y-146025001D02*
X217414999Y-146025001D01*
X218427500Y-127010000D02*
X218407500Y-126990000D01*
X218417500Y-77907500D02*
X216750000Y-76240000D01*
X216900001Y-100209999D02*
X218417500Y-98692500D01*
X218447500Y-53817500D02*
X216750000Y-52120000D01*
D22*
%TO.N,IO3*%
X215820000Y-182130000D02*
X215850000Y-182100000D01*
X215850000Y-180310000D02*
X215820000Y-180280000D01*
X215850000Y-182100000D02*
X215850000Y-180310000D01*
D23*
X215820000Y-180280000D02*
X215850000Y-180250000D01*
D21*
X217300000Y-172150000D02*
X217300000Y-174800000D01*
X217270000Y-172120000D02*
X217300000Y-172150000D01*
%TO.N,Net-(D8-DOUT)*%
X214900000Y-47225000D02*
X214905000Y-47220000D01*
X214905000Y-47220000D02*
X216900001Y-47220000D01*
%TO.N,Net-(D10-DIN)*%
X216900001Y-64275001D02*
X216900001Y-71189999D01*
X213600001Y-52270001D02*
X213600001Y-60975001D01*
X213600001Y-60975001D02*
X216900001Y-64275001D01*
%TO.N,Net-(D10-DOUT)*%
X213600001Y-76390001D02*
X213600001Y-84575001D01*
X213600001Y-84575001D02*
X216750000Y-87725000D01*
X216750000Y-87725000D02*
X216750000Y-95460000D01*
%TO.N,Net-(D11-DOUT)*%
X213600001Y-100510001D02*
X213600001Y-110000001D01*
X213600001Y-110000001D02*
X216750000Y-113150000D01*
X216750000Y-113150000D02*
X216750000Y-119580000D01*
%TO.N,Net-(D12-DOUT)*%
X213600001Y-124630001D02*
X213600001Y-129625001D01*
X216900001Y-132925001D02*
X216900001Y-143549999D01*
X213600001Y-129625001D02*
X216900001Y-132925001D01*
%TO.N,Net-(U2-~{CHRG})*%
X210074997Y-259275003D02*
X214925000Y-259275003D01*
X206650000Y-262700000D02*
X210074997Y-259275003D01*
%TO.N,Net-(U2-~{STDBY})*%
X203925000Y-262650000D02*
X208100000Y-258475000D01*
X208100000Y-258475000D02*
X214925000Y-258475000D01*
%TO.N,IO7*%
X223250000Y-194160000D02*
X223250000Y-197125000D01*
X222380000Y-193290000D02*
X223250000Y-194160000D01*
X222380000Y-190770000D02*
X222380000Y-193290000D01*
%TO.N,IO21*%
X210770000Y-191860000D02*
X209680000Y-190770000D01*
X210770000Y-200105000D02*
X208750000Y-202125000D01*
X208020000Y-181260000D02*
X208020000Y-180880000D01*
X208020000Y-180880000D02*
X209630000Y-179270000D01*
X208040000Y-189130000D02*
X209680000Y-190770000D01*
X208040000Y-187590000D02*
X208040000Y-189130000D01*
X210770000Y-200105000D02*
X210770000Y-191860000D01*
X222380000Y-178580000D02*
X222380000Y-174800000D01*
X221690000Y-179270000D02*
X222380000Y-178580000D01*
X209630000Y-179270000D02*
X221690000Y-179270000D01*
D22*
%TO.N,IO5*%
X227460000Y-190770000D02*
X227460000Y-187540000D01*
D21*
X227460000Y-190770000D02*
X227460000Y-199490000D01*
X227460000Y-199490000D02*
X224825000Y-202125000D01*
X224825000Y-202125000D02*
X223250000Y-202125000D01*
D23*
%TO.N,IO6*%
X224920000Y-186800000D02*
X224960000Y-186760000D01*
D21*
X223250000Y-199610000D02*
X224930000Y-197930000D01*
X224930000Y-197930000D02*
X224930000Y-190780000D01*
D23*
X224920000Y-190770000D02*
X224920000Y-186800000D01*
%TD*%
%TA.AperFunction,Conductor*%
%TO.N,-BATT*%
G36*
X219254126Y-39050965D02*
G01*
X219264606Y-39052145D01*
X219352875Y-39062091D01*
X219369014Y-39065775D01*
X219458852Y-39097211D01*
X219473781Y-39104400D01*
X219554372Y-39155038D01*
X219567328Y-39165370D01*
X219634629Y-39232671D01*
X219644961Y-39245627D01*
X219695599Y-39326217D01*
X219702788Y-39341146D01*
X219734222Y-39430978D01*
X219737910Y-39447134D01*
X219749034Y-39545868D01*
X219749036Y-39545879D01*
X219749501Y-39554164D01*
X219749501Y-41115894D01*
X219783607Y-41243181D01*
X219783608Y-41243184D01*
X219783609Y-41243186D01*
X219849501Y-41357314D01*
X219942687Y-41450500D01*
X220056815Y-41516392D01*
X220184106Y-41550499D01*
X220184107Y-41550500D01*
X220184111Y-41550500D01*
X229184107Y-41550502D01*
X229184108Y-41550503D01*
X229245843Y-41550503D01*
X229254126Y-41550968D01*
X229264292Y-41552113D01*
X229352873Y-41562094D01*
X229369013Y-41565778D01*
X229458845Y-41597212D01*
X229458851Y-41597214D01*
X229473780Y-41604403D01*
X229522255Y-41634861D01*
X229554367Y-41655039D01*
X229554371Y-41655041D01*
X229567327Y-41665373D01*
X229634627Y-41732673D01*
X229644959Y-41745629D01*
X229695596Y-41826218D01*
X229702785Y-41841147D01*
X229734219Y-41930979D01*
X229737907Y-41947134D01*
X229749037Y-42045913D01*
X229749502Y-42054199D01*
X229749502Y-270984107D01*
X229749501Y-274984107D01*
X229749501Y-275045840D01*
X229749036Y-275054126D01*
X229737910Y-275152869D01*
X229734222Y-275169024D01*
X229702789Y-275258852D01*
X229695600Y-275273781D01*
X229644962Y-275354373D01*
X229634630Y-275367329D01*
X229567328Y-275434630D01*
X229554373Y-275444961D01*
X229473784Y-275495599D01*
X229458854Y-275502789D01*
X229393762Y-275525565D01*
X229369022Y-275534222D01*
X229352868Y-275537910D01*
X229254126Y-275549035D01*
X229245841Y-275549500D01*
X221315892Y-275549499D01*
X221254158Y-275549499D01*
X221245873Y-275549034D01*
X221147134Y-275537909D01*
X221130978Y-275534221D01*
X221041146Y-275502787D01*
X221026219Y-275495599D01*
X220945628Y-275444961D01*
X220932672Y-275434629D01*
X220865371Y-275367327D01*
X220855041Y-275354373D01*
X220804402Y-275273782D01*
X220797214Y-275258856D01*
X220797213Y-275258852D01*
X220765777Y-275169016D01*
X220762092Y-275152872D01*
X220750964Y-275054119D01*
X220750500Y-275045835D01*
X220750500Y-274984109D01*
X220750500Y-274984107D01*
X220750502Y-270984107D01*
X220716394Y-270856813D01*
X220650502Y-270742685D01*
X220557316Y-270649499D01*
X220443195Y-270583611D01*
X220443192Y-270583609D01*
X220443183Y-270583605D01*
X220315896Y-270549499D01*
X220315894Y-270549499D01*
X220184110Y-270549499D01*
X220184109Y-270549499D01*
X210184108Y-270549500D01*
X210184107Y-270549501D01*
X210056820Y-270583607D01*
X210056811Y-270583611D01*
X209942687Y-270649501D01*
X209849502Y-270742686D01*
X209783612Y-270856810D01*
X209783608Y-270856819D01*
X209749502Y-270984106D01*
X209749502Y-275045841D01*
X209749037Y-275054126D01*
X209749037Y-275054127D01*
X209737911Y-275152869D01*
X209734223Y-275169024D01*
X209702790Y-275258854D01*
X209695600Y-275273784D01*
X209644962Y-275354373D01*
X209634631Y-275367328D01*
X209567330Y-275434630D01*
X209554375Y-275444961D01*
X209554374Y-275444962D01*
X209473784Y-275495600D01*
X209458855Y-275502789D01*
X209369023Y-275534223D01*
X209352868Y-275537911D01*
X209254154Y-275549034D01*
X209245868Y-275549499D01*
X201254156Y-275549499D01*
X201245872Y-275549034D01*
X201147133Y-275537910D01*
X201130980Y-275534223D01*
X201041146Y-275502789D01*
X201026217Y-275495600D01*
X200945626Y-275444962D01*
X200932670Y-275434630D01*
X200865369Y-275367329D01*
X200855037Y-275354373D01*
X200804399Y-275273782D01*
X200797211Y-275258856D01*
X200765774Y-275169013D01*
X200762090Y-275152875D01*
X200750965Y-275054143D01*
X200750500Y-275045857D01*
X200750500Y-262584105D01*
X203424500Y-262584105D01*
X203424500Y-262715894D01*
X203458606Y-262843181D01*
X203458610Y-262843190D01*
X203487478Y-262893190D01*
X203524500Y-262957314D01*
X203617686Y-263050500D01*
X203731814Y-263116392D01*
X203859105Y-263150499D01*
X203859106Y-263150500D01*
X203859108Y-263150500D01*
X203990894Y-263150500D01*
X203990894Y-263150499D01*
X204118186Y-263116392D01*
X204232314Y-263050500D01*
X204325500Y-262957314D01*
X204391392Y-262843186D01*
X204425499Y-262715894D01*
X204425500Y-262715894D01*
X204425500Y-262675834D01*
X204447174Y-262623508D01*
X208223508Y-258847174D01*
X208275834Y-258825500D01*
X209876387Y-258825500D01*
X209928713Y-258847174D01*
X209950387Y-258899500D01*
X209928713Y-258951826D01*
X209913387Y-258963586D01*
X209859784Y-258994533D01*
X206676492Y-262177826D01*
X206624166Y-262199500D01*
X206584106Y-262199500D01*
X206456818Y-262233606D01*
X206456809Y-262233610D01*
X206342685Y-262299500D01*
X206249500Y-262392685D01*
X206183610Y-262506809D01*
X206183606Y-262506818D01*
X206149500Y-262634105D01*
X206149500Y-262765894D01*
X206183606Y-262893181D01*
X206183607Y-262893184D01*
X206183608Y-262893186D01*
X206249500Y-263007314D01*
X206342686Y-263100500D01*
X206456814Y-263166392D01*
X206584105Y-263200499D01*
X206584106Y-263200500D01*
X206584108Y-263200500D01*
X206715894Y-263200500D01*
X206715894Y-263200499D01*
X206843186Y-263166392D01*
X206957314Y-263100500D01*
X207050500Y-263007314D01*
X207116392Y-262893186D01*
X207150499Y-262765894D01*
X207150500Y-262765894D01*
X207150500Y-262725834D01*
X207172174Y-262673508D01*
X210198505Y-259647177D01*
X210250831Y-259625503D01*
X214537034Y-259625503D01*
X214589360Y-259647177D01*
X214617686Y-259675503D01*
X214731814Y-259741395D01*
X214859105Y-259775502D01*
X214859106Y-259775503D01*
X214859108Y-259775503D01*
X214990894Y-259775503D01*
X214990894Y-259775502D01*
X215118186Y-259741395D01*
X215232314Y-259675503D01*
X215325500Y-259582317D01*
X215391392Y-259468189D01*
X215425499Y-259340897D01*
X215425500Y-259340897D01*
X215425500Y-259209109D01*
X215425499Y-259209108D01*
X215391393Y-259081821D01*
X215391392Y-259081817D01*
X215325500Y-258967689D01*
X215285138Y-258927327D01*
X215263464Y-258875001D01*
X215285137Y-258822675D01*
X215325500Y-258782314D01*
X215391392Y-258668186D01*
X215425499Y-258540894D01*
X215425500Y-258540894D01*
X215425500Y-258409106D01*
X215425499Y-258409105D01*
X215391393Y-258281818D01*
X215391392Y-258281814D01*
X215325500Y-258167686D01*
X215232314Y-258074500D01*
X215118190Y-258008610D01*
X215118181Y-258008606D01*
X214990894Y-257974500D01*
X214990892Y-257974500D01*
X214859108Y-257974500D01*
X214859106Y-257974500D01*
X214731818Y-258008606D01*
X214731809Y-258008610D01*
X214617685Y-258074500D01*
X214589360Y-258102826D01*
X214537034Y-258124500D01*
X208053854Y-258124500D01*
X207964715Y-258148384D01*
X207964710Y-258148386D01*
X207884787Y-258194530D01*
X203951492Y-262127826D01*
X203899166Y-262149500D01*
X203859106Y-262149500D01*
X203731818Y-262183606D01*
X203731809Y-262183610D01*
X203617685Y-262249500D01*
X203524500Y-262342685D01*
X203458610Y-262456809D01*
X203458606Y-262456818D01*
X203424500Y-262584105D01*
X200750500Y-262584105D01*
X200750500Y-252948713D01*
X222209500Y-252948713D01*
X222209500Y-253191286D01*
X222241160Y-253431782D01*
X222241162Y-253431791D01*
X222303945Y-253666099D01*
X222396772Y-253890203D01*
X222396775Y-253890211D01*
X222518061Y-254100285D01*
X222518065Y-254100291D01*
X222665735Y-254292738D01*
X222837262Y-254464265D01*
X223029711Y-254611936D01*
X223239788Y-254733224D01*
X223463900Y-254826054D01*
X223698211Y-254888838D01*
X223698214Y-254888838D01*
X223698217Y-254888839D01*
X223804951Y-254902890D01*
X223938712Y-254920500D01*
X223938714Y-254920500D01*
X224181286Y-254920500D01*
X224181288Y-254920500D01*
X224366575Y-254896106D01*
X224421782Y-254888839D01*
X224421782Y-254888838D01*
X224421789Y-254888838D01*
X224656100Y-254826054D01*
X224880212Y-254733224D01*
X225090289Y-254611936D01*
X225282738Y-254464265D01*
X225454265Y-254292738D01*
X225601936Y-254100289D01*
X225723224Y-253890212D01*
X225816054Y-253666100D01*
X225878838Y-253431789D01*
X225910500Y-253191288D01*
X225910500Y-252948712D01*
X225878838Y-252708211D01*
X225816054Y-252473900D01*
X225723224Y-252249788D01*
X225601936Y-252039711D01*
X225454265Y-251847262D01*
X225282738Y-251675735D01*
X225090291Y-251528065D01*
X225090285Y-251528061D01*
X224880211Y-251406775D01*
X224880203Y-251406772D01*
X224656099Y-251313945D01*
X224421791Y-251251162D01*
X224421782Y-251251160D01*
X224228480Y-251225712D01*
X224181288Y-251219500D01*
X223938712Y-251219500D01*
X223895736Y-251225157D01*
X223698217Y-251251160D01*
X223698208Y-251251162D01*
X223463900Y-251313945D01*
X223239796Y-251406772D01*
X223239788Y-251406775D01*
X223029714Y-251528061D01*
X223029708Y-251528065D01*
X222837261Y-251675735D01*
X222665735Y-251847261D01*
X222518065Y-252039708D01*
X222518061Y-252039714D01*
X222396775Y-252249788D01*
X222396772Y-252249796D01*
X222303945Y-252473900D01*
X222241162Y-252708208D01*
X222241160Y-252708217D01*
X222209500Y-252948713D01*
X200750500Y-252948713D01*
X200750500Y-244930253D01*
X213549500Y-244930253D01*
X213549500Y-247969746D01*
X213561133Y-248028232D01*
X213590608Y-248072343D01*
X213605448Y-248094552D01*
X213649560Y-248124027D01*
X213671767Y-248138866D01*
X213671768Y-248138866D01*
X213671769Y-248138867D01*
X213730252Y-248150500D01*
X213730254Y-248150500D01*
X216769746Y-248150500D01*
X216769748Y-248150500D01*
X216828231Y-248138867D01*
X216894552Y-248094552D01*
X216938867Y-248028231D01*
X216950500Y-247969748D01*
X216950500Y-244930252D01*
X216938867Y-244871769D01*
X216894552Y-244805448D01*
X216872343Y-244790608D01*
X216828232Y-244761133D01*
X216828233Y-244761133D01*
X216798989Y-244755316D01*
X216769748Y-244749500D01*
X213730252Y-244749500D01*
X213701010Y-244755316D01*
X213671767Y-244761133D01*
X213605449Y-244805447D01*
X213605447Y-244805449D01*
X213561133Y-244871767D01*
X213549500Y-244930253D01*
X200750500Y-244930253D01*
X200750500Y-235903713D01*
X213399500Y-235903713D01*
X213399500Y-236146286D01*
X213431160Y-236386782D01*
X213431162Y-236386791D01*
X213493945Y-236621099D01*
X213586772Y-236845203D01*
X213586775Y-236845211D01*
X213708061Y-237055285D01*
X213708065Y-237055291D01*
X213855735Y-237247738D01*
X214027262Y-237419265D01*
X214219711Y-237566936D01*
X214429788Y-237688224D01*
X214653900Y-237781054D01*
X214888211Y-237843838D01*
X214888214Y-237843838D01*
X214888217Y-237843839D01*
X214994951Y-237857890D01*
X215128712Y-237875500D01*
X215128714Y-237875500D01*
X215371286Y-237875500D01*
X215371288Y-237875500D01*
X215556575Y-237851106D01*
X215611782Y-237843839D01*
X215611782Y-237843838D01*
X215611789Y-237843838D01*
X215846100Y-237781054D01*
X216070212Y-237688224D01*
X216280289Y-237566936D01*
X216472738Y-237419265D01*
X216644265Y-237247738D01*
X216791936Y-237055289D01*
X216913224Y-236845212D01*
X217006054Y-236621100D01*
X217068838Y-236386789D01*
X217100500Y-236146288D01*
X217100500Y-235903712D01*
X217068838Y-235663211D01*
X217006054Y-235428900D01*
X216913224Y-235204788D01*
X216791936Y-234994711D01*
X216644265Y-234802262D01*
X216472738Y-234630735D01*
X216280291Y-234483065D01*
X216280285Y-234483061D01*
X216070211Y-234361775D01*
X216070203Y-234361772D01*
X215846099Y-234268945D01*
X215611791Y-234206162D01*
X215611782Y-234206160D01*
X215418480Y-234180712D01*
X215371288Y-234174500D01*
X215128712Y-234174500D01*
X215085736Y-234180157D01*
X214888217Y-234206160D01*
X214888208Y-234206162D01*
X214653900Y-234268945D01*
X214429796Y-234361772D01*
X214429788Y-234361775D01*
X214219714Y-234483061D01*
X214219708Y-234483065D01*
X214027261Y-234630735D01*
X213855735Y-234802261D01*
X213708065Y-234994708D01*
X213708061Y-234994714D01*
X213586775Y-235204788D01*
X213586772Y-235204796D01*
X213493945Y-235428900D01*
X213431162Y-235663208D01*
X213431160Y-235663217D01*
X213399500Y-235903713D01*
X200750500Y-235903713D01*
X200750500Y-218953713D01*
X213399500Y-218953713D01*
X213399500Y-219196286D01*
X213431160Y-219436782D01*
X213431162Y-219436791D01*
X213493945Y-219671099D01*
X213586772Y-219895203D01*
X213586775Y-219895211D01*
X213708061Y-220105285D01*
X213708065Y-220105291D01*
X213855735Y-220297738D01*
X214027262Y-220469265D01*
X214219711Y-220616936D01*
X214429788Y-220738224D01*
X214653900Y-220831054D01*
X214888211Y-220893838D01*
X214888214Y-220893838D01*
X214888217Y-220893839D01*
X214994951Y-220907890D01*
X215128712Y-220925500D01*
X215128714Y-220925500D01*
X215371286Y-220925500D01*
X215371288Y-220925500D01*
X215556575Y-220901106D01*
X215611782Y-220893839D01*
X215611782Y-220893838D01*
X215611789Y-220893838D01*
X215846100Y-220831054D01*
X216070212Y-220738224D01*
X216280289Y-220616936D01*
X216472738Y-220469265D01*
X216644265Y-220297738D01*
X216791936Y-220105289D01*
X216913224Y-219895212D01*
X217006054Y-219671100D01*
X217068838Y-219436789D01*
X217100500Y-219196288D01*
X217100500Y-218953712D01*
X217068838Y-218713211D01*
X217006054Y-218478900D01*
X216913224Y-218254788D01*
X216791936Y-218044711D01*
X216644265Y-217852262D01*
X216472738Y-217680735D01*
X216280291Y-217533065D01*
X216280285Y-217533061D01*
X216070211Y-217411775D01*
X216070203Y-217411772D01*
X215846099Y-217318945D01*
X215611791Y-217256162D01*
X215611782Y-217256160D01*
X215418480Y-217230712D01*
X215371288Y-217224500D01*
X215128712Y-217224500D01*
X215085736Y-217230157D01*
X214888217Y-217256160D01*
X214888208Y-217256162D01*
X214653900Y-217318945D01*
X214429796Y-217411772D01*
X214429788Y-217411775D01*
X214219714Y-217533061D01*
X214219708Y-217533065D01*
X214027261Y-217680735D01*
X213855735Y-217852261D01*
X213708065Y-218044708D01*
X213708061Y-218044714D01*
X213586775Y-218254788D01*
X213586772Y-218254796D01*
X213493945Y-218478900D01*
X213431162Y-218713208D01*
X213431160Y-218713217D01*
X213399500Y-218953713D01*
X200750500Y-218953713D01*
X200750500Y-204205253D01*
X213949500Y-204205253D01*
X213949500Y-206244746D01*
X213961133Y-206303232D01*
X213990608Y-206347343D01*
X214005448Y-206369552D01*
X214049560Y-206399027D01*
X214071767Y-206413866D01*
X214071768Y-206413866D01*
X214071769Y-206413867D01*
X214130252Y-206425500D01*
X214130254Y-206425500D01*
X217369746Y-206425500D01*
X217369748Y-206425500D01*
X217428231Y-206413867D01*
X217494552Y-206369552D01*
X217538867Y-206303231D01*
X217550500Y-206244748D01*
X217550500Y-204205252D01*
X217538867Y-204146769D01*
X217494552Y-204080448D01*
X217472343Y-204065608D01*
X217428232Y-204036133D01*
X217428233Y-204036133D01*
X217398989Y-204030316D01*
X217369748Y-204024500D01*
X214130252Y-204024500D01*
X214101010Y-204030316D01*
X214071767Y-204036133D01*
X214005449Y-204080447D01*
X214005447Y-204080449D01*
X213961133Y-204146767D01*
X213949500Y-204205253D01*
X200750500Y-204205253D01*
X200750500Y-197030518D01*
X207549500Y-197030518D01*
X207549500Y-197219481D01*
X207579059Y-197406115D01*
X207579062Y-197406128D01*
X207637449Y-197585824D01*
X207723239Y-197754198D01*
X207817441Y-197883856D01*
X207834310Y-197907073D01*
X207967927Y-198040690D01*
X207967930Y-198040692D01*
X207967931Y-198040693D01*
X208001783Y-198065288D01*
X208120801Y-198151760D01*
X208289168Y-198237547D01*
X208289171Y-198237547D01*
X208289175Y-198237550D01*
X208468871Y-198295937D01*
X208468877Y-198295938D01*
X208468882Y-198295940D01*
X208593306Y-198315646D01*
X208655518Y-198325500D01*
X208655519Y-198325500D01*
X208844482Y-198325500D01*
X208891140Y-198318110D01*
X209031118Y-198295940D01*
X209031125Y-198295937D01*
X209031128Y-198295937D01*
X209210824Y-198237550D01*
X209210826Y-198237548D01*
X209210832Y-198237547D01*
X209379199Y-198151760D01*
X209532073Y-198040690D01*
X209665690Y-197907073D01*
X209776760Y-197754199D01*
X209862547Y-197585832D01*
X209920940Y-197406118D01*
X209950500Y-197219481D01*
X209950500Y-197030519D01*
X209920940Y-196843882D01*
X209920938Y-196843877D01*
X209920937Y-196843871D01*
X209862550Y-196664175D01*
X209862547Y-196664171D01*
X209862547Y-196664168D01*
X209776760Y-196495801D01*
X209665690Y-196342927D01*
X209532073Y-196209310D01*
X209532070Y-196209307D01*
X209532068Y-196209306D01*
X209379198Y-196098239D01*
X209210824Y-196012449D01*
X209031128Y-195954062D01*
X209031115Y-195954059D01*
X208844482Y-195924500D01*
X208844481Y-195924500D01*
X208655519Y-195924500D01*
X208655518Y-195924500D01*
X208468884Y-195954059D01*
X208468871Y-195954062D01*
X208289175Y-196012449D01*
X208120801Y-196098239D01*
X207967931Y-196209306D01*
X207834306Y-196342931D01*
X207723239Y-196495801D01*
X207637449Y-196664175D01*
X207579062Y-196843871D01*
X207579059Y-196843884D01*
X207549500Y-197030518D01*
X200750500Y-197030518D01*
X200750500Y-187524105D01*
X207539500Y-187524105D01*
X207539500Y-187655894D01*
X207573606Y-187783181D01*
X207573610Y-187783190D01*
X207639500Y-187897314D01*
X207667826Y-187925640D01*
X207689500Y-187977966D01*
X207689500Y-189176146D01*
X207706007Y-189237750D01*
X207706007Y-189237751D01*
X207713384Y-189265283D01*
X207713386Y-189265288D01*
X207759530Y-189345212D01*
X208695826Y-190281507D01*
X208717500Y-190333833D01*
X208717500Y-192302246D01*
X208729133Y-192360732D01*
X208731875Y-192364835D01*
X208773448Y-192427052D01*
X208817560Y-192456527D01*
X208839767Y-192471366D01*
X208839768Y-192471366D01*
X208839769Y-192471367D01*
X208898252Y-192483000D01*
X210345500Y-192483000D01*
X210397826Y-192504674D01*
X210419500Y-192557000D01*
X210419500Y-199929165D01*
X210397826Y-199981491D01*
X209352213Y-201027103D01*
X209299887Y-201048777D01*
X209266292Y-201040711D01*
X209210832Y-201012452D01*
X209210826Y-201012450D01*
X209031128Y-200954062D01*
X209031115Y-200954059D01*
X208844482Y-200924500D01*
X208844481Y-200924500D01*
X208655519Y-200924500D01*
X208655518Y-200924500D01*
X208468884Y-200954059D01*
X208468871Y-200954062D01*
X208289175Y-201012449D01*
X208120801Y-201098239D01*
X207967931Y-201209306D01*
X207834306Y-201342931D01*
X207723239Y-201495801D01*
X207637449Y-201664175D01*
X207579062Y-201843871D01*
X207579059Y-201843884D01*
X207549500Y-202030518D01*
X207549500Y-202219481D01*
X207579059Y-202406115D01*
X207579062Y-202406128D01*
X207637449Y-202585824D01*
X207637452Y-202585831D01*
X207637453Y-202585832D01*
X207723240Y-202754199D01*
X207834310Y-202907073D01*
X207967927Y-203040690D01*
X208120801Y-203151760D01*
X208289168Y-203237547D01*
X208289171Y-203237547D01*
X208289175Y-203237550D01*
X208468871Y-203295937D01*
X208468877Y-203295938D01*
X208468882Y-203295940D01*
X208582064Y-203313866D01*
X208655518Y-203325500D01*
X208655519Y-203325500D01*
X208844482Y-203325500D01*
X208891140Y-203318110D01*
X209031118Y-203295940D01*
X209031125Y-203295937D01*
X209031128Y-203295937D01*
X209210824Y-203237550D01*
X209210826Y-203237548D01*
X209210832Y-203237547D01*
X209379199Y-203151760D01*
X209532073Y-203040690D01*
X209665690Y-202907073D01*
X209776760Y-202754199D01*
X209862547Y-202585832D01*
X209898397Y-202475500D01*
X209920937Y-202406128D01*
X209920937Y-202406125D01*
X209920940Y-202406118D01*
X209950500Y-202219481D01*
X209950500Y-202030519D01*
X209920940Y-201843882D01*
X209920938Y-201843877D01*
X209920937Y-201843871D01*
X209862549Y-201664173D01*
X209862547Y-201664170D01*
X209862547Y-201664168D01*
X209834286Y-201608704D01*
X209829842Y-201552245D01*
X209847893Y-201522787D01*
X211050469Y-200320212D01*
X211096614Y-200240288D01*
X211120499Y-200151146D01*
X211120500Y-200151146D01*
X211120500Y-193005253D01*
X213949500Y-193005253D01*
X213949500Y-195044746D01*
X213961133Y-195103232D01*
X213990608Y-195147343D01*
X214005448Y-195169552D01*
X214049560Y-195199027D01*
X214071767Y-195213866D01*
X214071768Y-195213866D01*
X214071769Y-195213867D01*
X214130252Y-195225500D01*
X214130254Y-195225500D01*
X217369746Y-195225500D01*
X217369748Y-195225500D01*
X217428231Y-195213867D01*
X217494552Y-195169552D01*
X217538867Y-195103231D01*
X217550500Y-195044748D01*
X217550500Y-193005252D01*
X217538867Y-192946769D01*
X217494552Y-192880448D01*
X217472343Y-192865608D01*
X217428232Y-192836133D01*
X217428233Y-192836133D01*
X217398989Y-192830316D01*
X217369748Y-192824500D01*
X214130252Y-192824500D01*
X214101010Y-192830316D01*
X214071767Y-192836133D01*
X214005449Y-192880447D01*
X214005447Y-192880449D01*
X213961133Y-192946767D01*
X213949500Y-193005253D01*
X211120500Y-193005253D01*
X211120500Y-192364835D01*
X211142174Y-192312509D01*
X211194500Y-192290835D01*
X211246826Y-192312509D01*
X211267078Y-192350399D01*
X211269133Y-192360732D01*
X211271875Y-192364835D01*
X211313448Y-192427052D01*
X211357560Y-192456527D01*
X211379767Y-192471366D01*
X211379768Y-192471366D01*
X211379769Y-192471367D01*
X211438252Y-192483000D01*
X211438254Y-192483000D01*
X213001746Y-192483000D01*
X213001748Y-192483000D01*
X213060231Y-192471367D01*
X213126552Y-192427052D01*
X213170867Y-192360731D01*
X213182500Y-192302248D01*
X213182500Y-189237753D01*
X213797500Y-189237753D01*
X213797500Y-192302246D01*
X213809133Y-192360732D01*
X213811875Y-192364835D01*
X213853448Y-192427052D01*
X213897560Y-192456527D01*
X213919767Y-192471366D01*
X213919768Y-192471366D01*
X213919769Y-192471367D01*
X213978252Y-192483000D01*
X213978254Y-192483000D01*
X215541746Y-192483000D01*
X215541748Y-192483000D01*
X215600231Y-192471367D01*
X215666552Y-192427052D01*
X215710867Y-192360731D01*
X215722500Y-192302248D01*
X215722500Y-189237753D01*
X216337500Y-189237753D01*
X216337500Y-192302246D01*
X216349133Y-192360732D01*
X216351875Y-192364835D01*
X216393448Y-192427052D01*
X216437560Y-192456527D01*
X216459767Y-192471366D01*
X216459768Y-192471366D01*
X216459769Y-192471367D01*
X216518252Y-192483000D01*
X216518254Y-192483000D01*
X218081746Y-192483000D01*
X218081748Y-192483000D01*
X218140231Y-192471367D01*
X218206552Y-192427052D01*
X218250867Y-192360731D01*
X218262500Y-192302248D01*
X218262500Y-189237753D01*
X218877500Y-189237753D01*
X218877500Y-192302246D01*
X218889133Y-192360732D01*
X218891875Y-192364835D01*
X218933448Y-192427052D01*
X218977560Y-192456527D01*
X218999767Y-192471366D01*
X218999768Y-192471366D01*
X218999769Y-192471367D01*
X219058252Y-192483000D01*
X219058254Y-192483000D01*
X220621746Y-192483000D01*
X220621748Y-192483000D01*
X220680231Y-192471367D01*
X220746552Y-192427052D01*
X220790867Y-192360731D01*
X220802500Y-192302248D01*
X220802500Y-189237753D01*
X221417500Y-189237753D01*
X221417500Y-192302246D01*
X221429133Y-192360732D01*
X221431875Y-192364835D01*
X221473448Y-192427052D01*
X221517560Y-192456527D01*
X221539767Y-192471366D01*
X221539768Y-192471366D01*
X221539769Y-192471367D01*
X221598252Y-192483000D01*
X221955500Y-192483000D01*
X222007826Y-192504674D01*
X222029500Y-192557000D01*
X222029500Y-193336146D01*
X222053384Y-193425284D01*
X222053386Y-193425289D01*
X222099530Y-193505212D01*
X222877826Y-194283508D01*
X222899500Y-194335834D01*
X222899500Y-195922839D01*
X222877826Y-195975165D01*
X222848368Y-195993217D01*
X222789173Y-196012450D01*
X222620801Y-196098239D01*
X222467931Y-196209306D01*
X222334306Y-196342931D01*
X222223239Y-196495801D01*
X222137449Y-196664175D01*
X222079062Y-196843871D01*
X222079059Y-196843884D01*
X222049500Y-197030518D01*
X222049500Y-197219481D01*
X222079059Y-197406115D01*
X222079062Y-197406128D01*
X222137449Y-197585824D01*
X222223239Y-197754198D01*
X222317441Y-197883856D01*
X222334310Y-197907073D01*
X222467927Y-198040690D01*
X222467930Y-198040692D01*
X222467931Y-198040693D01*
X222501783Y-198065288D01*
X222620801Y-198151760D01*
X222789168Y-198237547D01*
X222789171Y-198237547D01*
X222789175Y-198237550D01*
X222968871Y-198295937D01*
X222968877Y-198295938D01*
X222968882Y-198295940D01*
X223006582Y-198301911D01*
X223054873Y-198331504D01*
X223068095Y-198386576D01*
X223038502Y-198434867D01*
X223006582Y-198448089D01*
X222968884Y-198454059D01*
X222968871Y-198454062D01*
X222789175Y-198512449D01*
X222620801Y-198598239D01*
X222467931Y-198709306D01*
X222334306Y-198842931D01*
X222223239Y-198995801D01*
X222137449Y-199164175D01*
X222079062Y-199343871D01*
X222079059Y-199343884D01*
X222049500Y-199530518D01*
X222049500Y-199719481D01*
X222079059Y-199906115D01*
X222079062Y-199906128D01*
X222137449Y-200085824D01*
X222223239Y-200254198D01*
X222271198Y-200320208D01*
X222334310Y-200407073D01*
X222467927Y-200540690D01*
X222620801Y-200651760D01*
X222789168Y-200737547D01*
X222789171Y-200737547D01*
X222789175Y-200737550D01*
X222920198Y-200780122D01*
X222963265Y-200816905D01*
X222967709Y-200873367D01*
X222930926Y-200916434D01*
X222897331Y-200924500D01*
X222230252Y-200924500D01*
X222201010Y-200930316D01*
X222171767Y-200936133D01*
X222105449Y-200980447D01*
X222105447Y-200980449D01*
X222061133Y-201046767D01*
X222049500Y-201105253D01*
X222049500Y-203144746D01*
X222061133Y-203203232D01*
X222090608Y-203247343D01*
X222105448Y-203269552D01*
X222144935Y-203295937D01*
X222171767Y-203313866D01*
X222171768Y-203313866D01*
X222171769Y-203313867D01*
X222230252Y-203325500D01*
X222230254Y-203325500D01*
X224269746Y-203325500D01*
X224269748Y-203325500D01*
X224328231Y-203313867D01*
X224394552Y-203269552D01*
X224438867Y-203203231D01*
X224450500Y-203144748D01*
X224450500Y-202549500D01*
X224472174Y-202497174D01*
X224524500Y-202475500D01*
X224871146Y-202475500D01*
X224871146Y-202475499D01*
X224960288Y-202451614D01*
X225040212Y-202405470D01*
X227740470Y-199705212D01*
X227786614Y-199625288D01*
X227810499Y-199536146D01*
X227810500Y-199536146D01*
X227810500Y-192557000D01*
X227832174Y-192504674D01*
X227884500Y-192483000D01*
X228241746Y-192483000D01*
X228241748Y-192483000D01*
X228300231Y-192471367D01*
X228366552Y-192427052D01*
X228410867Y-192360731D01*
X228422500Y-192302248D01*
X228422500Y-189237752D01*
X228410867Y-189179269D01*
X228408780Y-189176146D01*
X228396027Y-189157060D01*
X228366552Y-189112948D01*
X228344343Y-189098108D01*
X228300232Y-189068633D01*
X228300233Y-189068633D01*
X228270989Y-189062816D01*
X228241748Y-189057000D01*
X228241746Y-189057000D01*
X227819500Y-189057000D01*
X227767174Y-189035326D01*
X227745500Y-188983000D01*
X227745500Y-187992966D01*
X227767174Y-187940640D01*
X227810500Y-187897314D01*
X227860500Y-187847314D01*
X227926392Y-187733186D01*
X227960499Y-187605894D01*
X227960500Y-187605894D01*
X227960500Y-187474106D01*
X227960499Y-187474105D01*
X227926393Y-187346818D01*
X227926392Y-187346814D01*
X227860500Y-187232686D01*
X227767314Y-187139500D01*
X227668023Y-187082174D01*
X227653190Y-187073610D01*
X227653181Y-187073606D01*
X227525894Y-187039500D01*
X227525892Y-187039500D01*
X227394108Y-187039500D01*
X227394106Y-187039500D01*
X227266818Y-187073606D01*
X227266809Y-187073610D01*
X227152685Y-187139500D01*
X227059500Y-187232685D01*
X226993610Y-187346809D01*
X226993606Y-187346818D01*
X226959500Y-187474105D01*
X226959500Y-187605894D01*
X226993606Y-187733181D01*
X226993610Y-187733190D01*
X227059500Y-187847314D01*
X227152826Y-187940640D01*
X227174500Y-187992966D01*
X227174500Y-188983000D01*
X227152826Y-189035326D01*
X227100500Y-189057000D01*
X226678252Y-189057000D01*
X226649010Y-189062816D01*
X226619767Y-189068633D01*
X226553449Y-189112947D01*
X226553447Y-189112949D01*
X226509133Y-189179267D01*
X226504431Y-189202909D01*
X226497501Y-189237750D01*
X226497500Y-189237753D01*
X226497500Y-192302246D01*
X226509133Y-192360732D01*
X226511875Y-192364835D01*
X226553448Y-192427052D01*
X226597560Y-192456527D01*
X226619767Y-192471366D01*
X226619768Y-192471366D01*
X226619769Y-192471367D01*
X226678252Y-192483000D01*
X227035500Y-192483000D01*
X227087826Y-192504674D01*
X227109500Y-192557000D01*
X227109500Y-199314166D01*
X227087826Y-199366492D01*
X224701492Y-201752826D01*
X224649166Y-201774500D01*
X224524500Y-201774500D01*
X224472174Y-201752826D01*
X224450500Y-201700500D01*
X224450500Y-201105253D01*
X224439266Y-201048777D01*
X224438867Y-201046769D01*
X224394552Y-200980448D01*
X224372343Y-200965608D01*
X224328232Y-200936133D01*
X224328233Y-200936133D01*
X224298989Y-200930316D01*
X224269748Y-200924500D01*
X223602669Y-200924500D01*
X223550343Y-200902826D01*
X223528669Y-200850500D01*
X223550343Y-200798174D01*
X223579802Y-200780122D01*
X223710824Y-200737550D01*
X223710826Y-200737548D01*
X223710832Y-200737547D01*
X223879199Y-200651760D01*
X224032073Y-200540690D01*
X224165690Y-200407073D01*
X224276760Y-200254199D01*
X224362547Y-200085832D01*
X224420940Y-199906118D01*
X224450500Y-199719481D01*
X224450500Y-199530519D01*
X224420940Y-199343882D01*
X224420938Y-199343877D01*
X224420937Y-199343871D01*
X224362549Y-199164173D01*
X224362547Y-199164170D01*
X224362547Y-199164168D01*
X224329223Y-199098767D01*
X224324780Y-199042307D01*
X224342830Y-199012850D01*
X225210470Y-198145212D01*
X225256614Y-198065288D01*
X225280499Y-197976146D01*
X225280500Y-197976146D01*
X225280500Y-192557000D01*
X225302174Y-192504674D01*
X225354500Y-192483000D01*
X225701746Y-192483000D01*
X225701748Y-192483000D01*
X225760231Y-192471367D01*
X225826552Y-192427052D01*
X225870867Y-192360731D01*
X225882500Y-192302248D01*
X225882500Y-189237752D01*
X225870867Y-189179269D01*
X225868780Y-189176146D01*
X225856027Y-189157060D01*
X225826552Y-189112948D01*
X225804343Y-189098108D01*
X225760232Y-189068633D01*
X225760233Y-189068633D01*
X225730989Y-189062816D01*
X225701748Y-189057000D01*
X225701746Y-189057000D01*
X225269500Y-189057000D01*
X225217174Y-189035326D01*
X225195500Y-188983000D01*
X225195500Y-187244685D01*
X225217174Y-187192359D01*
X225232501Y-187180599D01*
X225238008Y-187177418D01*
X225267314Y-187160500D01*
X225360500Y-187067314D01*
X225426392Y-186953186D01*
X225460499Y-186825894D01*
X225460500Y-186825894D01*
X225460500Y-186694106D01*
X225460499Y-186694105D01*
X225452461Y-186664108D01*
X225426392Y-186566814D01*
X225360500Y-186452686D01*
X225267314Y-186359500D01*
X225215353Y-186329500D01*
X225153190Y-186293610D01*
X225153181Y-186293606D01*
X225025894Y-186259500D01*
X225025892Y-186259500D01*
X224894108Y-186259500D01*
X224894106Y-186259500D01*
X224766818Y-186293606D01*
X224766809Y-186293610D01*
X224652685Y-186359500D01*
X224559500Y-186452685D01*
X224493610Y-186566809D01*
X224493606Y-186566818D01*
X224459500Y-186694105D01*
X224459500Y-186825894D01*
X224493606Y-186953181D01*
X224493610Y-186953190D01*
X224559500Y-187067314D01*
X224622826Y-187130640D01*
X224644500Y-187182966D01*
X224644500Y-188983000D01*
X224622826Y-189035326D01*
X224570500Y-189057000D01*
X224138252Y-189057000D01*
X224109010Y-189062816D01*
X224079767Y-189068633D01*
X224013449Y-189112947D01*
X224013447Y-189112949D01*
X223969133Y-189179267D01*
X223964431Y-189202909D01*
X223957501Y-189237750D01*
X223957500Y-189237753D01*
X223957500Y-192302246D01*
X223969133Y-192360732D01*
X223971875Y-192364835D01*
X224013448Y-192427052D01*
X224057560Y-192456527D01*
X224079767Y-192471366D01*
X224079768Y-192471366D01*
X224079769Y-192471367D01*
X224138252Y-192483000D01*
X224505500Y-192483000D01*
X224557826Y-192504674D01*
X224579500Y-192557000D01*
X224579500Y-196904732D01*
X224557826Y-196957058D01*
X224505500Y-196978732D01*
X224453174Y-196957058D01*
X224432411Y-196916308D01*
X224420940Y-196843884D01*
X224420937Y-196843871D01*
X224362550Y-196664175D01*
X224362547Y-196664171D01*
X224362547Y-196664168D01*
X224276760Y-196495801D01*
X224165690Y-196342927D01*
X224032073Y-196209310D01*
X224032070Y-196209307D01*
X224032068Y-196209306D01*
X223879198Y-196098239D01*
X223710826Y-196012450D01*
X223651632Y-195993217D01*
X223608565Y-195956434D01*
X223600500Y-195922839D01*
X223600500Y-194113854D01*
X223600499Y-194113853D01*
X223576615Y-194024715D01*
X223576613Y-194024710D01*
X223530469Y-193944787D01*
X222752174Y-193166492D01*
X222730500Y-193114166D01*
X222730500Y-192557000D01*
X222752174Y-192504674D01*
X222804500Y-192483000D01*
X223161746Y-192483000D01*
X223161748Y-192483000D01*
X223220231Y-192471367D01*
X223286552Y-192427052D01*
X223330867Y-192360731D01*
X223342500Y-192302248D01*
X223342500Y-189237752D01*
X223330867Y-189179269D01*
X223328780Y-189176146D01*
X223316027Y-189157060D01*
X223286552Y-189112948D01*
X223264343Y-189098108D01*
X223220232Y-189068633D01*
X223220233Y-189068633D01*
X223190989Y-189062816D01*
X223161748Y-189057000D01*
X221598252Y-189057000D01*
X221569010Y-189062816D01*
X221539767Y-189068633D01*
X221473449Y-189112947D01*
X221473447Y-189112949D01*
X221429133Y-189179267D01*
X221424431Y-189202909D01*
X221417501Y-189237750D01*
X221417500Y-189237753D01*
X220802500Y-189237753D01*
X220802500Y-189237752D01*
X220790867Y-189179269D01*
X220788780Y-189176146D01*
X220776027Y-189157060D01*
X220746552Y-189112948D01*
X220724343Y-189098108D01*
X220680232Y-189068633D01*
X220680233Y-189068633D01*
X220650989Y-189062816D01*
X220621748Y-189057000D01*
X219058252Y-189057000D01*
X219029010Y-189062816D01*
X218999767Y-189068633D01*
X218933449Y-189112947D01*
X218933447Y-189112949D01*
X218889133Y-189179267D01*
X218884431Y-189202909D01*
X218877501Y-189237750D01*
X218877500Y-189237753D01*
X218262500Y-189237753D01*
X218262500Y-189237752D01*
X218250867Y-189179269D01*
X218248780Y-189176146D01*
X218236027Y-189157060D01*
X218206552Y-189112948D01*
X218184343Y-189098108D01*
X218140232Y-189068633D01*
X218140233Y-189068633D01*
X218110989Y-189062816D01*
X218081748Y-189057000D01*
X216518252Y-189057000D01*
X216489010Y-189062816D01*
X216459767Y-189068633D01*
X216393449Y-189112947D01*
X216393447Y-189112949D01*
X216349133Y-189179267D01*
X216344431Y-189202909D01*
X216337501Y-189237750D01*
X216337500Y-189237753D01*
X215722500Y-189237753D01*
X215722500Y-189237752D01*
X215710867Y-189179269D01*
X215708780Y-189176146D01*
X215696027Y-189157060D01*
X215666552Y-189112948D01*
X215644343Y-189098108D01*
X215600232Y-189068633D01*
X215600233Y-189068633D01*
X215570989Y-189062816D01*
X215541748Y-189057000D01*
X213978252Y-189057000D01*
X213949010Y-189062816D01*
X213919767Y-189068633D01*
X213853449Y-189112947D01*
X213853447Y-189112949D01*
X213809133Y-189179267D01*
X213804431Y-189202909D01*
X213797501Y-189237750D01*
X213797500Y-189237753D01*
X213182500Y-189237753D01*
X213182500Y-189237752D01*
X213170867Y-189179269D01*
X213168780Y-189176146D01*
X213156027Y-189157060D01*
X213126552Y-189112948D01*
X213104343Y-189098108D01*
X213060232Y-189068633D01*
X213060233Y-189068633D01*
X213030989Y-189062816D01*
X213001748Y-189057000D01*
X211438252Y-189057000D01*
X211409010Y-189062816D01*
X211379767Y-189068633D01*
X211313449Y-189112947D01*
X211313447Y-189112949D01*
X211269133Y-189179267D01*
X211264431Y-189202909D01*
X211257501Y-189237750D01*
X211257500Y-189237753D01*
X211257500Y-191763060D01*
X211235826Y-191815386D01*
X211183500Y-191837060D01*
X211131174Y-191815386D01*
X211112022Y-191782213D01*
X211096615Y-191724715D01*
X211096613Y-191724710D01*
X211050469Y-191644787D01*
X210664174Y-191258492D01*
X210642500Y-191206166D01*
X210642500Y-189237753D01*
X210642500Y-189237751D01*
X210630867Y-189179269D01*
X210628780Y-189176146D01*
X210616027Y-189157060D01*
X210586552Y-189112948D01*
X210564343Y-189098108D01*
X210520232Y-189068633D01*
X210520233Y-189068633D01*
X210490989Y-189062816D01*
X210461748Y-189057000D01*
X208898252Y-189057000D01*
X208869010Y-189062816D01*
X208839767Y-189068633D01*
X208773449Y-189112947D01*
X208773447Y-189112949D01*
X208725083Y-189185329D01*
X208723749Y-189184438D01*
X208689229Y-189218953D01*
X208632592Y-189218947D01*
X208608591Y-189202909D01*
X208412174Y-189006492D01*
X208390500Y-188954166D01*
X208390500Y-187977966D01*
X208412174Y-187925640D01*
X208440500Y-187897314D01*
X208506392Y-187783186D01*
X208540499Y-187655894D01*
X208540500Y-187655894D01*
X208540500Y-187524106D01*
X208540499Y-187524105D01*
X208506393Y-187396818D01*
X208506392Y-187396814D01*
X208440500Y-187282686D01*
X208347314Y-187189500D01*
X208245366Y-187130640D01*
X208233190Y-187123610D01*
X208233181Y-187123606D01*
X208105894Y-187089500D01*
X208105892Y-187089500D01*
X207974108Y-187089500D01*
X207974106Y-187089500D01*
X207846818Y-187123606D01*
X207846809Y-187123610D01*
X207732685Y-187189500D01*
X207639500Y-187282685D01*
X207573610Y-187396809D01*
X207573606Y-187396818D01*
X207539500Y-187524105D01*
X200750500Y-187524105D01*
X200750500Y-183084105D01*
X206869500Y-183084105D01*
X206869500Y-183215894D01*
X206903606Y-183343181D01*
X206903610Y-183343190D01*
X206969500Y-183457314D01*
X206997826Y-183485640D01*
X207019500Y-183537966D01*
X207019500Y-184146146D01*
X207043384Y-184235284D01*
X207043386Y-184235289D01*
X207089530Y-184315212D01*
X209699531Y-186925212D01*
X209764788Y-186990469D01*
X209844712Y-187036614D01*
X209844713Y-187036614D01*
X209844715Y-187036615D01*
X209889284Y-187048557D01*
X209933853Y-187060499D01*
X209933854Y-187060500D01*
X209933856Y-187060500D01*
X213442034Y-187060500D01*
X213494360Y-187082174D01*
X213542686Y-187130500D01*
X213656814Y-187196392D01*
X213784105Y-187230499D01*
X213784106Y-187230500D01*
X213784108Y-187230500D01*
X213915894Y-187230500D01*
X213915894Y-187230499D01*
X214043186Y-187196392D01*
X214157314Y-187130500D01*
X214250500Y-187037314D01*
X214316392Y-186923186D01*
X214350499Y-186795894D01*
X214350500Y-186795894D01*
X214350500Y-186664106D01*
X214350499Y-186664105D01*
X214316393Y-186536818D01*
X214316392Y-186536814D01*
X214250500Y-186422686D01*
X214157314Y-186329500D01*
X214095151Y-186293610D01*
X214043190Y-186263610D01*
X214043181Y-186263606D01*
X213915894Y-186229500D01*
X213915892Y-186229500D01*
X213784108Y-186229500D01*
X213784106Y-186229500D01*
X213656818Y-186263606D01*
X213656809Y-186263610D01*
X213542685Y-186329500D01*
X213534360Y-186337826D01*
X213482034Y-186359500D01*
X210155833Y-186359500D01*
X210103507Y-186337826D01*
X208582508Y-184816826D01*
X208560834Y-184764500D01*
X208582508Y-184712174D01*
X208634834Y-184690500D01*
X220826146Y-184690500D01*
X220826146Y-184690499D01*
X220915288Y-184666614D01*
X220995212Y-184620470D01*
X227740470Y-177875212D01*
X227786614Y-177795288D01*
X227810500Y-177706143D01*
X227810500Y-177613856D01*
X227810500Y-176587000D01*
X227832174Y-176534674D01*
X227884500Y-176513000D01*
X228241746Y-176513000D01*
X228241748Y-176513000D01*
X228300231Y-176501367D01*
X228366552Y-176457052D01*
X228410867Y-176390731D01*
X228422500Y-176332248D01*
X228422500Y-173267752D01*
X228410867Y-173209269D01*
X228366552Y-173142948D01*
X228344343Y-173128108D01*
X228300232Y-173098633D01*
X228300233Y-173098633D01*
X228270989Y-173092816D01*
X228241748Y-173087000D01*
X226678252Y-173087000D01*
X226649010Y-173092816D01*
X226619767Y-173098633D01*
X226553449Y-173142947D01*
X226553447Y-173142949D01*
X226509133Y-173209267D01*
X226497500Y-173267753D01*
X226497500Y-176332246D01*
X226509133Y-176390732D01*
X226538608Y-176434843D01*
X226553448Y-176457052D01*
X226597560Y-176486527D01*
X226619767Y-176501366D01*
X226619768Y-176501366D01*
X226619769Y-176501367D01*
X226678252Y-176513000D01*
X227035500Y-176513000D01*
X227087826Y-176534674D01*
X227109500Y-176587000D01*
X227109500Y-177484166D01*
X227087826Y-177536492D01*
X220656492Y-183967826D01*
X220604166Y-183989500D01*
X208735834Y-183989500D01*
X208683508Y-183967826D01*
X207892174Y-183176492D01*
X207870500Y-183124166D01*
X207870500Y-183084106D01*
X207870499Y-183084105D01*
X207836393Y-182956818D01*
X207836392Y-182956814D01*
X207770500Y-182842686D01*
X207677314Y-182749500D01*
X207563190Y-182683610D01*
X207563181Y-182683606D01*
X207435894Y-182649500D01*
X207435892Y-182649500D01*
X207304108Y-182649500D01*
X207304106Y-182649500D01*
X207176818Y-182683606D01*
X207176809Y-182683610D01*
X207062685Y-182749500D01*
X206969500Y-182842685D01*
X206903610Y-182956809D01*
X206903606Y-182956818D01*
X206869500Y-183084105D01*
X200750500Y-183084105D01*
X200750500Y-181194105D01*
X207519500Y-181194105D01*
X207519500Y-181325894D01*
X207553606Y-181453181D01*
X207553607Y-181453184D01*
X207553608Y-181453186D01*
X207619500Y-181567314D01*
X207712686Y-181660500D01*
X207826814Y-181726392D01*
X207954105Y-181760499D01*
X207954106Y-181760500D01*
X207954108Y-181760500D01*
X208085894Y-181760500D01*
X208085894Y-181760499D01*
X208213186Y-181726392D01*
X208327314Y-181660500D01*
X208420500Y-181567314D01*
X208486392Y-181453186D01*
X208520499Y-181325894D01*
X208520500Y-181325894D01*
X208520500Y-181194106D01*
X208520499Y-181194105D01*
X208486393Y-181066818D01*
X208486392Y-181066814D01*
X208457123Y-181016119D01*
X208449731Y-180959970D01*
X208468882Y-180926798D01*
X209753508Y-179642174D01*
X209805834Y-179620500D01*
X215703456Y-179620500D01*
X215755782Y-179642174D01*
X215777456Y-179694500D01*
X215755782Y-179746826D01*
X215722609Y-179765978D01*
X215656818Y-179783606D01*
X215656809Y-179783610D01*
X215542685Y-179849500D01*
X215449500Y-179942685D01*
X215383610Y-180056809D01*
X215383606Y-180056818D01*
X215349500Y-180184105D01*
X215349500Y-180315894D01*
X215383606Y-180443181D01*
X215383610Y-180443190D01*
X215449500Y-180557314D01*
X215542826Y-180650640D01*
X215564500Y-180702966D01*
X215564500Y-181656860D01*
X215542826Y-181709186D01*
X215527502Y-181720945D01*
X215512689Y-181729497D01*
X215419500Y-181822685D01*
X215353610Y-181936809D01*
X215353606Y-181936818D01*
X215319500Y-182064105D01*
X215319500Y-182195894D01*
X215353606Y-182323181D01*
X215353607Y-182323184D01*
X215353608Y-182323186D01*
X215419500Y-182437314D01*
X215512686Y-182530500D01*
X215626814Y-182596392D01*
X215754105Y-182630499D01*
X215754106Y-182630500D01*
X215754108Y-182630500D01*
X215885894Y-182630500D01*
X215885894Y-182630499D01*
X216013186Y-182596392D01*
X216127314Y-182530500D01*
X216220500Y-182437314D01*
X216286392Y-182323186D01*
X216320499Y-182195894D01*
X216320500Y-182195894D01*
X216320500Y-182064106D01*
X216320499Y-182064105D01*
X216286393Y-181936818D01*
X216286392Y-181936814D01*
X216220500Y-181822686D01*
X216157174Y-181759360D01*
X216135500Y-181707034D01*
X216135500Y-180702966D01*
X216157174Y-180650640D01*
X216157314Y-180650500D01*
X216250500Y-180557314D01*
X216316392Y-180443186D01*
X216350499Y-180315894D01*
X216350500Y-180315894D01*
X216350500Y-180184106D01*
X216350499Y-180184105D01*
X216316393Y-180056818D01*
X216316392Y-180056814D01*
X216250500Y-179942686D01*
X216157314Y-179849500D01*
X216043190Y-179783610D01*
X216043181Y-179783606D01*
X215977391Y-179765978D01*
X215932458Y-179731500D01*
X215925066Y-179675347D01*
X215959544Y-179630414D01*
X215996544Y-179620500D01*
X221736146Y-179620500D01*
X221736146Y-179620499D01*
X221825288Y-179596614D01*
X221905212Y-179550470D01*
X222660469Y-178795212D01*
X222706614Y-178715288D01*
X222730499Y-178626146D01*
X222730500Y-178626146D01*
X222730500Y-176587000D01*
X222752174Y-176534674D01*
X222804500Y-176513000D01*
X223161746Y-176513000D01*
X223161748Y-176513000D01*
X223220231Y-176501367D01*
X223286552Y-176457052D01*
X223330867Y-176390731D01*
X223342500Y-176332248D01*
X223342500Y-173267752D01*
X223330867Y-173209269D01*
X223286552Y-173142948D01*
X223264343Y-173128108D01*
X223220232Y-173098633D01*
X223220233Y-173098633D01*
X223190989Y-173092816D01*
X223161748Y-173087000D01*
X221598252Y-173087000D01*
X221569010Y-173092816D01*
X221539767Y-173098633D01*
X221473449Y-173142947D01*
X221473447Y-173142949D01*
X221429133Y-173209267D01*
X221417500Y-173267753D01*
X221417500Y-176332246D01*
X221429133Y-176390732D01*
X221458608Y-176434843D01*
X221473448Y-176457052D01*
X221517560Y-176486527D01*
X221539767Y-176501366D01*
X221539768Y-176501366D01*
X221539769Y-176501367D01*
X221598252Y-176513000D01*
X221955500Y-176513000D01*
X222007826Y-176534674D01*
X222029500Y-176587000D01*
X222029500Y-178404166D01*
X222007826Y-178456492D01*
X221566492Y-178897826D01*
X221514166Y-178919500D01*
X209583854Y-178919500D01*
X209494715Y-178943384D01*
X209494710Y-178943386D01*
X209414787Y-178989530D01*
X207739529Y-180664788D01*
X207709738Y-180716390D01*
X207709737Y-180716392D01*
X207693387Y-180744708D01*
X207693384Y-180744715D01*
X207669500Y-180833853D01*
X207669500Y-180872034D01*
X207647826Y-180924360D01*
X207619500Y-180952685D01*
X207553610Y-181066809D01*
X207553606Y-181066818D01*
X207519500Y-181194105D01*
X200750500Y-181194105D01*
X200750500Y-173267753D01*
X208717500Y-173267753D01*
X208717500Y-176332246D01*
X208729133Y-176390732D01*
X208758608Y-176434843D01*
X208773448Y-176457052D01*
X208817560Y-176486527D01*
X208839767Y-176501366D01*
X208839768Y-176501366D01*
X208839769Y-176501367D01*
X208898252Y-176513000D01*
X208898254Y-176513000D01*
X210461746Y-176513000D01*
X210461748Y-176513000D01*
X210520231Y-176501367D01*
X210586552Y-176457052D01*
X210630867Y-176390731D01*
X210642500Y-176332248D01*
X210642500Y-173267753D01*
X211257500Y-173267753D01*
X211257500Y-176332246D01*
X211269133Y-176390732D01*
X211298608Y-176434843D01*
X211313448Y-176457052D01*
X211357560Y-176486527D01*
X211379767Y-176501366D01*
X211379768Y-176501366D01*
X211379769Y-176501367D01*
X211438252Y-176513000D01*
X211438254Y-176513000D01*
X213001746Y-176513000D01*
X213001748Y-176513000D01*
X213060231Y-176501367D01*
X213126552Y-176457052D01*
X213170867Y-176390731D01*
X213182500Y-176332248D01*
X213182500Y-173267753D01*
X213797500Y-173267753D01*
X213797500Y-176332246D01*
X213809133Y-176390732D01*
X213838608Y-176434843D01*
X213853448Y-176457052D01*
X213897560Y-176486527D01*
X213919767Y-176501366D01*
X213919768Y-176501366D01*
X213919769Y-176501367D01*
X213978252Y-176513000D01*
X213978254Y-176513000D01*
X215541746Y-176513000D01*
X215541748Y-176513000D01*
X215600231Y-176501367D01*
X215666552Y-176457052D01*
X215710867Y-176390731D01*
X215722500Y-176332248D01*
X215722500Y-173267753D01*
X216337500Y-173267753D01*
X216337500Y-176332246D01*
X216349133Y-176390732D01*
X216378608Y-176434843D01*
X216393448Y-176457052D01*
X216437560Y-176486527D01*
X216459767Y-176501366D01*
X216459768Y-176501366D01*
X216459769Y-176501367D01*
X216518252Y-176513000D01*
X216518254Y-176513000D01*
X218081746Y-176513000D01*
X218081748Y-176513000D01*
X218140231Y-176501367D01*
X218206552Y-176457052D01*
X218250867Y-176390731D01*
X218262500Y-176332248D01*
X218262500Y-173267753D01*
X218877500Y-173267753D01*
X218877500Y-176332246D01*
X218889133Y-176390732D01*
X218918608Y-176434843D01*
X218933448Y-176457052D01*
X218977560Y-176486527D01*
X218999767Y-176501366D01*
X218999768Y-176501366D01*
X218999769Y-176501367D01*
X219058252Y-176513000D01*
X219058254Y-176513000D01*
X220621746Y-176513000D01*
X220621748Y-176513000D01*
X220680231Y-176501367D01*
X220746552Y-176457052D01*
X220790867Y-176390731D01*
X220802500Y-176332248D01*
X220802500Y-173267752D01*
X220790867Y-173209269D01*
X220746552Y-173142948D01*
X220724343Y-173128108D01*
X220680232Y-173098633D01*
X220680233Y-173098633D01*
X220650989Y-173092816D01*
X220621748Y-173087000D01*
X219058252Y-173087000D01*
X219029010Y-173092816D01*
X218999767Y-173098633D01*
X218933449Y-173142947D01*
X218933447Y-173142949D01*
X218889133Y-173209267D01*
X218877500Y-173267753D01*
X218262500Y-173267753D01*
X218262500Y-173267752D01*
X218250867Y-173209269D01*
X218206552Y-173142948D01*
X218184343Y-173128108D01*
X218140232Y-173098633D01*
X218140233Y-173098633D01*
X218110989Y-173092816D01*
X218081748Y-173087000D01*
X218081746Y-173087000D01*
X217724500Y-173087000D01*
X217672174Y-173065326D01*
X217650500Y-173013000D01*
X217650500Y-172477966D01*
X217669322Y-172432525D01*
X217667547Y-172431163D01*
X217670498Y-172427316D01*
X217670500Y-172427314D01*
X217736392Y-172313186D01*
X217770499Y-172185894D01*
X217770500Y-172185894D01*
X217770500Y-172054106D01*
X217770499Y-172054105D01*
X217736393Y-171926818D01*
X217736392Y-171926814D01*
X217670500Y-171812686D01*
X217577314Y-171719500D01*
X217463190Y-171653610D01*
X217463181Y-171653606D01*
X217335894Y-171619500D01*
X217335892Y-171619500D01*
X217204108Y-171619500D01*
X217204106Y-171619500D01*
X217076818Y-171653606D01*
X217076809Y-171653610D01*
X216962685Y-171719500D01*
X216869500Y-171812685D01*
X216803610Y-171926809D01*
X216803606Y-171926818D01*
X216769500Y-172054105D01*
X216769500Y-172185894D01*
X216803606Y-172313181D01*
X216803610Y-172313190D01*
X216869500Y-172427314D01*
X216927826Y-172485640D01*
X216949500Y-172537966D01*
X216949500Y-173013000D01*
X216927826Y-173065326D01*
X216875500Y-173087000D01*
X216518252Y-173087000D01*
X216489010Y-173092816D01*
X216459767Y-173098633D01*
X216393449Y-173142947D01*
X216393447Y-173142949D01*
X216349133Y-173209267D01*
X216337500Y-173267753D01*
X215722500Y-173267753D01*
X215722500Y-173267752D01*
X215710867Y-173209269D01*
X215666552Y-173142948D01*
X215644343Y-173128108D01*
X215600232Y-173098633D01*
X215600233Y-173098633D01*
X215570989Y-173092816D01*
X215541748Y-173087000D01*
X213978252Y-173087000D01*
X213949010Y-173092816D01*
X213919767Y-173098633D01*
X213853449Y-173142947D01*
X213853447Y-173142949D01*
X213809133Y-173209267D01*
X213797500Y-173267753D01*
X213182500Y-173267753D01*
X213182500Y-173267752D01*
X213170867Y-173209269D01*
X213126552Y-173142948D01*
X213104343Y-173128108D01*
X213060232Y-173098633D01*
X213060233Y-173098633D01*
X213030989Y-173092816D01*
X213001748Y-173087000D01*
X211438252Y-173087000D01*
X211409010Y-173092816D01*
X211379767Y-173098633D01*
X211313449Y-173142947D01*
X211313447Y-173142949D01*
X211269133Y-173209267D01*
X211257500Y-173267753D01*
X210642500Y-173267753D01*
X210642500Y-173267752D01*
X210630867Y-173209269D01*
X210586552Y-173142948D01*
X210564343Y-173128108D01*
X210520232Y-173098633D01*
X210520233Y-173098633D01*
X210490989Y-173092816D01*
X210461748Y-173087000D01*
X208898252Y-173087000D01*
X208869010Y-173092816D01*
X208839767Y-173098633D01*
X208773449Y-173142947D01*
X208773447Y-173142949D01*
X208729133Y-173209267D01*
X208717500Y-173267753D01*
X200750500Y-173267753D01*
X200750500Y-171619500D01*
X200750500Y-147896630D01*
X212949501Y-147896630D01*
X212949501Y-149303372D01*
X212952318Y-149327659D01*
X212952318Y-149327661D01*
X212952319Y-149327662D01*
X212996188Y-149427016D01*
X213072985Y-149503813D01*
X213172339Y-149547682D01*
X213196628Y-149550500D01*
X214003373Y-149550499D01*
X214027663Y-149547682D01*
X214127017Y-149503813D01*
X214203814Y-149427016D01*
X214247683Y-149327662D01*
X214250501Y-149303373D01*
X214250500Y-147896628D01*
X214247683Y-147872338D01*
X214203814Y-147772984D01*
X214127017Y-147696187D01*
X214027663Y-147652318D01*
X214027664Y-147652318D01*
X214022805Y-147651754D01*
X214003374Y-147649500D01*
X214003370Y-147649500D01*
X213196628Y-147649500D01*
X213172341Y-147652317D01*
X213072984Y-147696187D01*
X212996188Y-147772983D01*
X212952319Y-147872337D01*
X212949501Y-147896630D01*
X200750500Y-147896630D01*
X200750500Y-123776630D01*
X212949501Y-123776630D01*
X212949501Y-125183372D01*
X212952318Y-125207659D01*
X212952318Y-125207661D01*
X212952319Y-125207662D01*
X212996188Y-125307016D01*
X213072985Y-125383813D01*
X213172339Y-125427682D01*
X213184028Y-125429038D01*
X213233507Y-125456595D01*
X213249501Y-125502544D01*
X213249501Y-129671147D01*
X213273385Y-129760285D01*
X213273387Y-129760290D01*
X213319531Y-129840213D01*
X216527827Y-133048509D01*
X216549501Y-133100835D01*
X216549501Y-142677455D01*
X216527827Y-142729781D01*
X216484027Y-142750962D01*
X216472340Y-142752317D01*
X216372984Y-142796187D01*
X216296188Y-142872983D01*
X216252319Y-142972337D01*
X216249501Y-142996630D01*
X216249501Y-144403372D01*
X216252318Y-144427659D01*
X216252318Y-144427661D01*
X216252319Y-144427662D01*
X216296188Y-144527016D01*
X216372985Y-144603813D01*
X216472339Y-144647682D01*
X216496628Y-144650500D01*
X217303373Y-144650499D01*
X217327663Y-144647682D01*
X217427017Y-144603813D01*
X217503814Y-144527016D01*
X217547683Y-144427662D01*
X217550501Y-144403373D01*
X217550500Y-142996628D01*
X217547683Y-142972338D01*
X217503814Y-142872984D01*
X217427017Y-142796187D01*
X217327663Y-142752318D01*
X217327664Y-142752318D01*
X217324957Y-142752004D01*
X217315971Y-142750961D01*
X217266493Y-142723401D01*
X217250501Y-142677455D01*
X217250501Y-132878855D01*
X217250500Y-132878854D01*
X217226616Y-132789716D01*
X217226614Y-132789711D01*
X217180470Y-132709788D01*
X213972175Y-129501493D01*
X213950501Y-129449167D01*
X213950501Y-125502544D01*
X213972175Y-125450218D01*
X214015976Y-125429037D01*
X214027663Y-125427682D01*
X214127017Y-125383813D01*
X214203814Y-125307016D01*
X214247683Y-125207662D01*
X214250501Y-125183373D01*
X214250500Y-123776628D01*
X214247683Y-123752338D01*
X214203814Y-123652984D01*
X214127017Y-123576187D01*
X214027663Y-123532318D01*
X214027664Y-123532318D01*
X214022805Y-123531754D01*
X214003374Y-123529500D01*
X214003370Y-123529500D01*
X213196628Y-123529500D01*
X213172341Y-123532317D01*
X213072984Y-123576187D01*
X212996188Y-123652983D01*
X212952319Y-123752337D01*
X212949501Y-123776630D01*
X200750500Y-123776630D01*
X200750500Y-99656630D01*
X212949501Y-99656630D01*
X212949501Y-101063372D01*
X212952318Y-101087659D01*
X212952318Y-101087661D01*
X212952319Y-101087662D01*
X212996188Y-101187016D01*
X213072985Y-101263813D01*
X213172339Y-101307682D01*
X213184028Y-101309038D01*
X213233507Y-101336595D01*
X213249501Y-101382544D01*
X213249501Y-110046147D01*
X213273385Y-110135285D01*
X213273387Y-110135290D01*
X213319531Y-110215213D01*
X216377826Y-113273507D01*
X216399500Y-113325833D01*
X216399500Y-118619020D01*
X216377826Y-118671346D01*
X216296188Y-118752983D01*
X216252319Y-118852337D01*
X216249501Y-118876630D01*
X216249501Y-120283372D01*
X216252318Y-120307659D01*
X216252318Y-120307661D01*
X216252319Y-120307662D01*
X216296188Y-120407016D01*
X216372985Y-120483813D01*
X216472339Y-120527682D01*
X216496628Y-120530500D01*
X217303373Y-120530499D01*
X217327663Y-120527682D01*
X217427017Y-120483813D01*
X217503814Y-120407016D01*
X217547683Y-120307662D01*
X217550501Y-120283373D01*
X217550500Y-118876628D01*
X217547683Y-118852338D01*
X217503814Y-118752984D01*
X217427017Y-118676187D01*
X217327663Y-118632318D01*
X217327664Y-118632318D01*
X217322805Y-118631754D01*
X217303374Y-118629500D01*
X217303370Y-118629500D01*
X217174500Y-118629500D01*
X217122174Y-118607826D01*
X217100500Y-118555500D01*
X217100500Y-113103854D01*
X217100499Y-113103853D01*
X217076615Y-113014715D01*
X217076613Y-113014710D01*
X217030471Y-112934791D01*
X217030470Y-112934790D01*
X217030469Y-112934788D01*
X216965212Y-112869531D01*
X213972175Y-109876493D01*
X213950501Y-109824167D01*
X213950501Y-101382544D01*
X213972175Y-101330218D01*
X214015976Y-101309037D01*
X214027663Y-101307682D01*
X214127017Y-101263813D01*
X214203814Y-101187016D01*
X214247683Y-101087662D01*
X214250501Y-101063373D01*
X214250500Y-99656628D01*
X214247683Y-99632338D01*
X214203814Y-99532984D01*
X214127017Y-99456187D01*
X214027663Y-99412318D01*
X214027664Y-99412318D01*
X214022805Y-99411754D01*
X214003374Y-99409500D01*
X214003370Y-99409500D01*
X213196628Y-99409500D01*
X213172341Y-99412317D01*
X213072984Y-99456187D01*
X212996188Y-99532983D01*
X212952319Y-99632337D01*
X212949501Y-99656630D01*
X200750500Y-99656630D01*
X200750500Y-75536630D01*
X212949501Y-75536630D01*
X212949501Y-76943372D01*
X212952318Y-76967659D01*
X212952318Y-76967661D01*
X212952319Y-76967662D01*
X212996188Y-77067016D01*
X213072985Y-77143813D01*
X213172339Y-77187682D01*
X213184028Y-77189038D01*
X213233507Y-77216595D01*
X213249501Y-77262544D01*
X213249501Y-84621147D01*
X213273385Y-84710285D01*
X213273387Y-84710290D01*
X213319531Y-84790213D01*
X216377826Y-87848507D01*
X216399500Y-87900833D01*
X216399500Y-94499020D01*
X216377826Y-94551346D01*
X216296188Y-94632983D01*
X216252319Y-94732337D01*
X216249501Y-94756630D01*
X216249501Y-96163372D01*
X216252318Y-96187659D01*
X216252318Y-96187661D01*
X216252319Y-96187662D01*
X216296188Y-96287016D01*
X216372985Y-96363813D01*
X216472339Y-96407682D01*
X216496628Y-96410500D01*
X217303373Y-96410499D01*
X217327663Y-96407682D01*
X217427017Y-96363813D01*
X217503814Y-96287016D01*
X217547683Y-96187662D01*
X217550501Y-96163373D01*
X217550500Y-94756628D01*
X217547683Y-94732338D01*
X217503814Y-94632984D01*
X217427017Y-94556187D01*
X217327663Y-94512318D01*
X217327664Y-94512318D01*
X217322805Y-94511754D01*
X217303374Y-94509500D01*
X217303370Y-94509500D01*
X217174500Y-94509500D01*
X217122174Y-94487826D01*
X217100500Y-94435500D01*
X217100500Y-87678854D01*
X217100499Y-87678853D01*
X217076615Y-87589715D01*
X217076613Y-87589710D01*
X217030471Y-87509791D01*
X217030470Y-87509790D01*
X217030469Y-87509788D01*
X216965212Y-87444531D01*
X213972175Y-84451493D01*
X213950501Y-84399167D01*
X213950501Y-77262544D01*
X213972175Y-77210218D01*
X214015976Y-77189037D01*
X214027663Y-77187682D01*
X214127017Y-77143813D01*
X214203814Y-77067016D01*
X214247683Y-76967662D01*
X214250501Y-76943373D01*
X214250500Y-75536628D01*
X214247683Y-75512338D01*
X214203814Y-75412984D01*
X214127017Y-75336187D01*
X214027663Y-75292318D01*
X214027664Y-75292318D01*
X214022805Y-75291754D01*
X214003374Y-75289500D01*
X214003370Y-75289500D01*
X213196628Y-75289500D01*
X213172341Y-75292317D01*
X213072984Y-75336187D01*
X212996188Y-75412983D01*
X212952319Y-75512337D01*
X212949501Y-75536630D01*
X200750500Y-75536630D01*
X200750500Y-51416630D01*
X212949501Y-51416630D01*
X212949501Y-52823372D01*
X212952318Y-52847659D01*
X212952318Y-52847661D01*
X212952319Y-52847662D01*
X212996188Y-52947016D01*
X213072985Y-53023813D01*
X213172339Y-53067682D01*
X213184028Y-53069038D01*
X213233507Y-53096595D01*
X213249501Y-53142544D01*
X213249501Y-61021147D01*
X213273385Y-61110285D01*
X213273387Y-61110290D01*
X213319531Y-61190213D01*
X216527827Y-64398509D01*
X216549501Y-64450835D01*
X216549501Y-70317455D01*
X216527827Y-70369781D01*
X216484027Y-70390962D01*
X216472340Y-70392317D01*
X216372984Y-70436187D01*
X216296188Y-70512983D01*
X216252319Y-70612337D01*
X216249501Y-70636630D01*
X216249501Y-72043372D01*
X216252318Y-72067659D01*
X216252318Y-72067661D01*
X216252319Y-72067662D01*
X216296188Y-72167016D01*
X216372985Y-72243813D01*
X216472339Y-72287682D01*
X216496628Y-72290500D01*
X217303373Y-72290499D01*
X217327663Y-72287682D01*
X217427017Y-72243813D01*
X217503814Y-72167016D01*
X217547683Y-72067662D01*
X217550501Y-72043373D01*
X217550500Y-70636628D01*
X217547683Y-70612338D01*
X217503814Y-70512984D01*
X217427017Y-70436187D01*
X217327663Y-70392318D01*
X217327664Y-70392318D01*
X217324957Y-70392004D01*
X217315971Y-70390961D01*
X217266493Y-70363401D01*
X217250501Y-70317455D01*
X217250501Y-64228855D01*
X217250500Y-64228854D01*
X217226616Y-64139716D01*
X217226614Y-64139711D01*
X217180470Y-64059788D01*
X213972175Y-60851493D01*
X213950501Y-60799167D01*
X213950501Y-53142544D01*
X213972175Y-53090218D01*
X214015976Y-53069037D01*
X214027663Y-53067682D01*
X214127017Y-53023813D01*
X214203814Y-52947016D01*
X214247683Y-52847662D01*
X214250501Y-52823373D01*
X214250500Y-52051007D01*
X216049500Y-52051007D01*
X216049500Y-52188992D01*
X216076418Y-52324322D01*
X216076421Y-52324332D01*
X216129224Y-52451810D01*
X216205885Y-52566542D01*
X216227827Y-52588484D01*
X216249501Y-52640810D01*
X216249501Y-52823372D01*
X216252318Y-52847659D01*
X216252318Y-52847661D01*
X216252319Y-52847662D01*
X216296188Y-52947016D01*
X216372985Y-53023813D01*
X216472339Y-53067682D01*
X216496628Y-53070500D01*
X216679190Y-53070499D01*
X216731516Y-53092173D01*
X217725326Y-54085983D01*
X217747000Y-54138309D01*
X217747000Y-54318340D01*
X217742847Y-54342781D01*
X217712276Y-54430144D01*
X217712275Y-54430149D01*
X217712275Y-54430151D01*
X217709500Y-54459744D01*
X217709500Y-55040256D01*
X217711165Y-55058011D01*
X217712275Y-55069853D01*
X217734233Y-55132600D01*
X217742847Y-55157219D01*
X217747000Y-55181658D01*
X217747000Y-74221690D01*
X217725326Y-74274016D01*
X216731515Y-75267826D01*
X216679189Y-75289500D01*
X216496628Y-75289500D01*
X216472341Y-75292317D01*
X216372984Y-75336187D01*
X216296188Y-75412983D01*
X216252319Y-75512337D01*
X216249501Y-75536630D01*
X216249501Y-75719189D01*
X216227828Y-75771514D01*
X216205885Y-75793457D01*
X216129224Y-75908189D01*
X216076421Y-76035667D01*
X216076418Y-76035677D01*
X216049500Y-76171007D01*
X216049500Y-76308992D01*
X216076418Y-76444322D01*
X216076421Y-76444332D01*
X216129224Y-76571810D01*
X216205885Y-76686542D01*
X216227827Y-76708484D01*
X216249501Y-76760810D01*
X216249501Y-76943372D01*
X216252318Y-76967659D01*
X216252318Y-76967661D01*
X216252319Y-76967662D01*
X216296188Y-77067016D01*
X216372985Y-77143813D01*
X216472339Y-77187682D01*
X216496628Y-77190500D01*
X216679190Y-77190499D01*
X216731516Y-77212173D01*
X217695326Y-78175983D01*
X217717000Y-78228309D01*
X217717000Y-78318340D01*
X217712847Y-78342781D01*
X217682276Y-78430144D01*
X217682275Y-78430149D01*
X217682275Y-78430151D01*
X217679500Y-78459744D01*
X217679500Y-79040256D01*
X217681165Y-79058011D01*
X217682275Y-79069853D01*
X217704233Y-79132600D01*
X217712847Y-79157219D01*
X217717000Y-79181658D01*
X217717000Y-98371690D01*
X217695326Y-98424016D01*
X216731515Y-99387826D01*
X216679189Y-99409500D01*
X216496628Y-99409500D01*
X216472341Y-99412317D01*
X216372984Y-99456187D01*
X216296188Y-99532983D01*
X216252319Y-99632337D01*
X216249501Y-99656630D01*
X216249501Y-99935231D01*
X216243868Y-99963549D01*
X216226422Y-100005666D01*
X216226419Y-100005676D01*
X216199501Y-100141007D01*
X216199501Y-100578993D01*
X216226419Y-100714323D01*
X216226420Y-100714325D01*
X216226421Y-100714329D01*
X216243869Y-100756455D01*
X216249501Y-100784769D01*
X216249501Y-101063372D01*
X216252318Y-101087659D01*
X216252318Y-101087661D01*
X216252319Y-101087662D01*
X216296188Y-101187016D01*
X216372985Y-101263813D01*
X216472339Y-101307682D01*
X216496628Y-101310500D01*
X216679190Y-101310499D01*
X216731516Y-101332173D01*
X217707826Y-102308482D01*
X217729500Y-102360808D01*
X217729500Y-102418340D01*
X217725347Y-102442781D01*
X217694776Y-102530144D01*
X217694775Y-102530149D01*
X217694775Y-102530151D01*
X217692000Y-102559744D01*
X217692000Y-103140256D01*
X217693665Y-103158011D01*
X217694775Y-103169853D01*
X217716733Y-103232600D01*
X217725347Y-103257219D01*
X217729500Y-103281658D01*
X217729500Y-122479190D01*
X217707826Y-122531516D01*
X216731515Y-123507826D01*
X216679189Y-123529500D01*
X216496628Y-123529500D01*
X216472341Y-123532317D01*
X216372984Y-123576187D01*
X216296188Y-123652983D01*
X216252319Y-123752337D01*
X216249501Y-123776630D01*
X216249501Y-124055231D01*
X216243868Y-124083549D01*
X216226422Y-124125666D01*
X216226419Y-124125676D01*
X216199501Y-124261007D01*
X216199501Y-124698993D01*
X216226419Y-124834323D01*
X216226420Y-124834325D01*
X216226421Y-124834329D01*
X216243869Y-124876455D01*
X216249501Y-124904769D01*
X216249501Y-125183372D01*
X216252318Y-125207659D01*
X216252318Y-125207661D01*
X216252319Y-125207662D01*
X216296188Y-125307016D01*
X216372985Y-125383813D01*
X216472339Y-125427682D01*
X216496628Y-125430500D01*
X216679190Y-125430499D01*
X216731516Y-125452173D01*
X217685326Y-126405983D01*
X217707000Y-126458309D01*
X217707000Y-126558340D01*
X217702847Y-126582781D01*
X217672276Y-126670144D01*
X217672275Y-126670149D01*
X217672275Y-126670151D01*
X217669500Y-126699744D01*
X217669500Y-127280256D01*
X217672275Y-127309849D01*
X217672275Y-127309851D01*
X217672276Y-127309854D01*
X217715882Y-127434472D01*
X217718423Y-127439279D01*
X217727000Y-127473860D01*
X217727000Y-141028340D01*
X217722847Y-141052781D01*
X217692276Y-141140144D01*
X217692275Y-141140149D01*
X217692275Y-141140151D01*
X217689500Y-141169744D01*
X217689500Y-141750256D01*
X217691165Y-141768011D01*
X217692275Y-141779853D01*
X217714233Y-141842600D01*
X217722847Y-141867219D01*
X217727000Y-141891658D01*
X217727000Y-144691691D01*
X217705326Y-144744017D01*
X217146516Y-145302827D01*
X217094190Y-145324501D01*
X216968994Y-145324501D01*
X216831008Y-145324501D01*
X216792643Y-145332132D01*
X216695678Y-145351419D01*
X216695668Y-145351422D01*
X216568192Y-145404224D01*
X216453462Y-145480884D01*
X216355884Y-145578462D01*
X216279224Y-145693192D01*
X216226422Y-145820668D01*
X216226419Y-145820678D01*
X216199501Y-145956009D01*
X216199501Y-148518990D01*
X216226419Y-148654321D01*
X216226421Y-148654327D01*
X216243868Y-148696448D01*
X216249501Y-148724766D01*
X216249501Y-149303372D01*
X216252318Y-149327659D01*
X216252318Y-149327661D01*
X216252319Y-149327662D01*
X216296188Y-149427016D01*
X216372985Y-149503813D01*
X216472339Y-149547682D01*
X216496628Y-149550500D01*
X217303373Y-149550499D01*
X217327663Y-149547682D01*
X217427017Y-149503813D01*
X217503814Y-149427016D01*
X217547683Y-149327662D01*
X217550501Y-149303373D01*
X217550500Y-148724766D01*
X217556133Y-148696448D01*
X217573581Y-148654327D01*
X217600501Y-148518992D01*
X217600501Y-146755824D01*
X217622175Y-146703498D01*
X217646183Y-146687457D01*
X217662457Y-146680715D01*
X217746810Y-146645776D01*
X217861542Y-146569115D01*
X218971614Y-145459043D01*
X219048275Y-145344311D01*
X219101080Y-145216828D01*
X219128000Y-145081494D01*
X219128000Y-144943506D01*
X219128000Y-141891658D01*
X219132152Y-141867219D01*
X219162725Y-141779849D01*
X219165500Y-141750256D01*
X219165500Y-141169744D01*
X219162725Y-141140151D01*
X219132153Y-141052781D01*
X219128000Y-141028340D01*
X219128000Y-127364503D01*
X219132153Y-127340061D01*
X219142724Y-127309852D01*
X219142724Y-127309851D01*
X219142725Y-127309849D01*
X219145500Y-127280256D01*
X219145500Y-126699744D01*
X219142725Y-126670151D01*
X219112153Y-126582781D01*
X219108000Y-126558340D01*
X219108000Y-126068508D01*
X219081081Y-125933177D01*
X219081080Y-125933176D01*
X219081080Y-125933172D01*
X219028275Y-125805689D01*
X218951614Y-125690957D01*
X217792982Y-124532325D01*
X217771308Y-124479999D01*
X217792982Y-124427673D01*
X218165424Y-124055231D01*
X218974113Y-123246543D01*
X219050774Y-123131812D01*
X219050775Y-123131811D01*
X219103580Y-123004328D01*
X219130500Y-122868993D01*
X219130500Y-103281658D01*
X219134652Y-103257219D01*
X219165225Y-103169849D01*
X219168000Y-103140256D01*
X219168000Y-102559744D01*
X219165225Y-102530151D01*
X219134653Y-102442781D01*
X219130500Y-102418340D01*
X219130500Y-101971008D01*
X219103581Y-101835677D01*
X219103580Y-101835676D01*
X219103580Y-101835672D01*
X219050775Y-101708189D01*
X218974114Y-101593458D01*
X218876542Y-101495886D01*
X217792982Y-100412326D01*
X217771308Y-100360000D01*
X217792982Y-100307674D01*
X218165425Y-99935231D01*
X218961614Y-99139043D01*
X219038275Y-99024311D01*
X219091080Y-98896828D01*
X219118000Y-98761494D01*
X219118000Y-98623506D01*
X219118000Y-79181658D01*
X219122152Y-79157219D01*
X219152725Y-79069849D01*
X219155500Y-79040256D01*
X219155500Y-78459744D01*
X219152725Y-78430151D01*
X219122153Y-78342781D01*
X219118000Y-78318340D01*
X219118000Y-77838508D01*
X219091081Y-77703177D01*
X219091080Y-77703176D01*
X219091080Y-77703172D01*
X219038275Y-77575689D01*
X218961614Y-77460957D01*
X217792983Y-76292326D01*
X217771309Y-76240000D01*
X217792983Y-76187674D01*
X218991613Y-74989044D01*
X218991614Y-74989043D01*
X219068275Y-74874311D01*
X219121080Y-74746828D01*
X219148000Y-74611493D01*
X219148000Y-74473506D01*
X219148000Y-55181658D01*
X219152152Y-55157219D01*
X219182725Y-55069849D01*
X219185500Y-55040256D01*
X219185500Y-54459744D01*
X219182725Y-54430151D01*
X219152153Y-54342781D01*
X219148000Y-54318340D01*
X219148000Y-53748508D01*
X219121081Y-53613177D01*
X219121080Y-53613176D01*
X219121080Y-53613172D01*
X219068275Y-53485689D01*
X218991614Y-53370957D01*
X217572174Y-51951517D01*
X217550500Y-51899191D01*
X217550500Y-51416627D01*
X217547683Y-51392340D01*
X217547683Y-51392338D01*
X217503814Y-51292984D01*
X217427017Y-51216187D01*
X217327663Y-51172318D01*
X217327664Y-51172318D01*
X217322805Y-51171754D01*
X217303374Y-51169500D01*
X217303370Y-51169500D01*
X216496628Y-51169500D01*
X216472341Y-51172317D01*
X216372984Y-51216187D01*
X216296188Y-51292983D01*
X216252319Y-51392337D01*
X216249501Y-51416630D01*
X216249501Y-51599189D01*
X216227828Y-51651514D01*
X216205885Y-51673457D01*
X216129224Y-51788189D01*
X216076421Y-51915667D01*
X216076418Y-51915677D01*
X216049500Y-52051007D01*
X214250500Y-52051007D01*
X214250500Y-51416628D01*
X214247683Y-51392338D01*
X214203814Y-51292984D01*
X214127017Y-51216187D01*
X214027663Y-51172318D01*
X214027664Y-51172318D01*
X214022805Y-51171754D01*
X214003374Y-51169500D01*
X214003370Y-51169500D01*
X213196628Y-51169500D01*
X213172341Y-51172317D01*
X213072984Y-51216187D01*
X212996188Y-51292983D01*
X212952319Y-51392337D01*
X212949501Y-51416630D01*
X200750500Y-51416630D01*
X200750500Y-47159105D01*
X214399500Y-47159105D01*
X214399500Y-47290894D01*
X214433606Y-47418181D01*
X214433607Y-47418184D01*
X214433608Y-47418186D01*
X214499500Y-47532314D01*
X214592686Y-47625500D01*
X214706814Y-47691392D01*
X214834105Y-47725499D01*
X214834106Y-47725500D01*
X214834108Y-47725500D01*
X214965894Y-47725500D01*
X214965894Y-47725499D01*
X215093186Y-47691392D01*
X215207314Y-47625500D01*
X215240640Y-47592174D01*
X215292966Y-47570500D01*
X216175502Y-47570500D01*
X216227828Y-47592174D01*
X216249502Y-47644500D01*
X216249502Y-47923372D01*
X216252318Y-47947659D01*
X216252318Y-47947661D01*
X216252319Y-47947662D01*
X216296188Y-48047016D01*
X216372985Y-48123813D01*
X216472339Y-48167682D01*
X216496628Y-48170500D01*
X217303373Y-48170499D01*
X217327663Y-48167682D01*
X217427017Y-48123813D01*
X217503814Y-48047016D01*
X217547683Y-47947662D01*
X217550501Y-47923373D01*
X217550500Y-46516628D01*
X217547683Y-46492338D01*
X217503814Y-46392984D01*
X217427017Y-46316187D01*
X217327663Y-46272318D01*
X217327664Y-46272318D01*
X217322805Y-46271754D01*
X217303374Y-46269500D01*
X217303370Y-46269500D01*
X216496628Y-46269500D01*
X216472341Y-46272317D01*
X216372984Y-46316187D01*
X216296188Y-46392983D01*
X216252319Y-46492337D01*
X216249501Y-46516630D01*
X216249501Y-46795500D01*
X216227827Y-46847826D01*
X216175501Y-46869500D01*
X215282966Y-46869500D01*
X215230640Y-46847826D01*
X215207314Y-46824500D01*
X215093190Y-46758610D01*
X215093181Y-46758606D01*
X214965894Y-46724500D01*
X214965892Y-46724500D01*
X214834108Y-46724500D01*
X214834106Y-46724500D01*
X214706818Y-46758606D01*
X214706809Y-46758610D01*
X214592685Y-46824500D01*
X214499500Y-46917685D01*
X214433610Y-47031809D01*
X214433606Y-47031818D01*
X214399500Y-47159105D01*
X200750500Y-47159105D01*
X200750500Y-42054139D01*
X200750963Y-42045889D01*
X200762093Y-41947122D01*
X200765776Y-41930988D01*
X200797213Y-41841143D01*
X200804401Y-41826218D01*
X200855043Y-41745621D01*
X200865366Y-41732676D01*
X200932676Y-41665367D01*
X200945622Y-41655043D01*
X201026223Y-41604398D01*
X201041141Y-41597214D01*
X201130985Y-41565776D01*
X201147129Y-41562091D01*
X201229549Y-41552805D01*
X201245874Y-41550966D01*
X201254158Y-41550501D01*
X210315894Y-41550501D01*
X210315894Y-41550500D01*
X210443186Y-41516393D01*
X210557314Y-41450501D01*
X210650500Y-41357315D01*
X210716392Y-41243187D01*
X210750499Y-41115895D01*
X210750500Y-41115895D01*
X210750500Y-40549500D01*
X210750500Y-39554136D01*
X210750963Y-39545886D01*
X210762092Y-39447121D01*
X210765776Y-39430987D01*
X210797213Y-39341143D01*
X210804401Y-39326218D01*
X210804402Y-39326217D01*
X210855043Y-39245621D01*
X210865366Y-39232676D01*
X210932677Y-39165366D01*
X210945621Y-39155043D01*
X211026223Y-39104398D01*
X211041139Y-39097215D01*
X211130987Y-39065776D01*
X211147123Y-39062092D01*
X211245882Y-39050964D01*
X211254165Y-39050500D01*
X211315891Y-39050500D01*
X219184108Y-39050500D01*
X219245841Y-39050500D01*
X219254126Y-39050965D01*
G37*
%TD.AperFunction*%
%TD*%
M02*
