M48
; DRILL file {KiCad 9.0.2} date 2026-02-26T22:18:23+0800
; FORMAT={-:-/ absolute / metric / decimal}
; #@! TF.CreationDate,2026-02-26T22:18:23+08:00
; #@! TF.GenerationSoftware,Kicad,Pcbnew,9.0.2
; #@! TF.FileFunction,Plated,1,2,PTH
FMAT,2
METRIC
; #@! TA.AperFunction,Plated,PTH,ViaDrill
T1C0.300
; #@! TA.AperFunction,Plated,PTH,ComponentDrill
T2C0.600
; #@! TA.AperFunction,Plated,PTH,ComponentDrill
T3C1.000
; #@! TA.AperFunction,Plated,PTH,ComponentDrill
T4C1.500
; #@! TA.AperFunction,Plated,PTH,ComponentDrill
T5C1.600
%
G90
G05
T1
X201.22Y-250.68
X201.52Y-249.08
X201.59Y-249.93
X201.74Y-248.1
X202.01Y-250.88
X202.57Y-251.57
X202.65Y-248.24
X203.2Y-250.99
X203.41Y-248.27
X203.44Y-260.83
X203.88Y-251.57
X203.925Y-262.65
X204.09Y-258.65
X204.14Y-260.8
X204.23Y-248.56
X204.36Y-250.89
X204.5Y-249.17
X204.55Y-249.83
X204.64Y-251.64
X204.71Y-260.42
X204.86Y-258.65
X205.18Y-259.91
X205.27Y-200.48
X205.77Y-244.79
X206.06Y-200.56
X206.09Y-261.79
X206.24Y-245.49
X206.44Y-246.4
X206.65Y-262.7
X206.73Y-261.2
X206.81Y-200.38
X206.9Y-244.84
X206.95Y-199.22
X207.09Y-245.79
X207.37Y-183.15
X207.49Y-246.38
X207.7Y-244.89
X207.89Y-249.32
X208.02Y-181.26
X208.04Y-187.59
X208.18Y-245.55
X208.23Y-246.51
X208.67Y-247.85
X208.68Y-247.07
X208.69Y-248.82
X208.81Y-245.94
X208.9Y-256.67
X209.03Y-252.48
X209.04Y-251.57
X209.45Y-261.46
X209.57Y-263.62
X209.74Y-269.55
X209.77Y-268.7
X209.78Y-267.97
X209.86Y-251.59
X209.92Y-264.32
X209.96Y-252.45
X210.15Y-261.21
X210.35Y-263.53
X210.79Y-251.64
X210.79Y-252.44
X210.79Y-260.63
X210.88Y-261.46
X210.89Y-269.78
X211.05Y-267.1
X211.86Y-48.14
X211.86Y-144.03
X211.87Y-263.52
X211.88Y-143.2
X211.94Y-150.07
X211.96Y-96.49
X211.96Y-149.34
X211.99Y-144.8
X212.0Y-51.725
X212.0Y-52.75
X212.03Y-269.6
X212.06Y-120.61
X212.1Y-267.78
X212.15Y-268.58
X212.17Y-72.69
X212.23Y-123.18
X212.34Y-98.58
X212.45Y-208.725
X212.5Y-207.5
X212.5Y-210.4
X212.5Y-50.675
X212.51Y-48.74
X212.57Y-209.54
X212.66Y-121.37
X212.82Y-211.45
X212.83Y-150.34
X212.87Y-74.56
X212.87Y-97.19
X213.12Y-73.14
X213.12Y-122.69
X213.26Y-98.51
X213.34Y-207.77
X213.53Y-48.85
X213.63Y-74.58
X213.63Y-210.1
X213.66Y-121.42
X213.72Y-251.91
X213.725Y-211.025
X213.73Y-252.75
X213.75Y-97.19
X213.75Y-150.39
X213.85Y-186.73
X213.87Y-253.62
X213.96Y-73.01
X214.05Y-98.52
X214.29Y-122.81
X214.37Y-185.72
X214.52Y-74.62
X214.64Y-121.2
X214.67Y-96.88
X214.69Y-254.21
X214.71Y-150.29
X214.73Y-48.56
X214.75Y-49.75
X214.77Y-98.81
X214.83Y-99.65
X214.85Y-72.47
X214.87Y-52.17
X214.87Y-143.0
X214.87Y-143.7
X214.87Y-144.44
X214.9Y-47.225
X214.9Y-51.025
X214.9Y-75.62
X214.92Y-185.1
X214.925Y-258.475
X214.925Y-259.275
X214.93Y-120.44
X214.96Y-149.47
X215.05Y-123.51
X215.05Y-124.51
X215.08Y-185.81
X215.175Y-210.875
X215.19Y-147.89
X215.19Y-148.6
X215.39Y-256.68
X215.55Y-254.2
X215.65Y-185.36
X215.775Y-49.025
X215.82Y-182.13
X215.85Y-180.25
X215.875Y-50.225
X216.02Y-188.53
X216.31Y-185.12
X216.525Y-210.55
X216.88Y-207.14
X216.9Y-146.025
X217.2Y-211.18
X217.27Y-172.12
X217.375Y-209.9
X217.42Y-208.93
X217.675Y-207.75
X217.72Y-267.41
X217.82Y-207.01
X217.88Y-268.29
X217.9Y-210.39
X218.13Y-209.48
X218.22Y-269.53
X218.375Y-208.725
X218.53Y-266.92
X218.53Y-267.74
X218.54Y-268.77
X218.56Y-188.89
X218.66Y-270.05
X218.68Y-263.93
X218.76Y-207.41
X218.83Y-211.05
X219.22Y-188.28
X219.42Y-269.9
X219.43Y-256.84
X219.43Y-267.08
X219.51Y-186.32
X219.54Y-251.86
X219.66Y-260.97
X219.82Y-187.71
X219.85Y-253.4
X219.94Y-256.2
X220.04Y-186.85
X220.05Y-252.61
X220.08Y-142.62
X220.11Y-256.86
X220.36Y-260.97
X220.6Y-267.47
X220.61Y-269.71
X220.64Y-264.32
X220.66Y-264.95
X220.68Y-256.34
X220.78Y-104.48
X220.8Y-252.86
X220.86Y-142.56
X220.89Y-56.06
X220.91Y-253.67
X220.91Y-255.7
X220.92Y-268.66
X220.94Y-254.73
X221.0Y-80.51
X221.02Y-124.75
X221.03Y-260.95
X221.07Y-121.56
X221.07Y-126.17
X221.13Y-52.17
X221.13Y-53.4
X221.14Y-128.26
X221.21Y-138.69
X221.33Y-267.74
X221.38Y-127.46
X221.4Y-141.6
X221.4Y-269.34
X221.45Y-77.75
X221.46Y-102.71
X221.51Y-104.27
X221.55Y-142.55
X221.55Y-261.56
X221.59Y-254.21
X221.63Y-255.01
X221.68Y-101.49
X221.68Y-255.7
X221.69Y-55.67
X221.7Y-73.61
X221.76Y-78.56
X221.77Y-54.89
X221.8Y-49.41
X221.8Y-53.97
X221.84Y-79.62
X221.89Y-124.54
X221.96Y-170.61
X222.02Y-172.23
X222.08Y-97.83
X222.14Y-52.14
X222.25Y-126.99
X222.31Y-138.95
X222.31Y-140.98
X222.34Y-171.33
X222.47Y-140.12
X222.5Y-255.24
X222.51Y-261.53
X222.55Y-123.39
X222.57Y-50.41
X222.58Y-76.78
X222.59Y-74.6
X222.59Y-75.73
X222.59Y-98.85
X222.6Y-51.34
X222.61Y-122.17
X222.69Y-100.02
X222.8Y-170.64
X222.81Y-171.96
X222.93Y-265.04
X222.97Y-264.29
X223.44Y-261.43
X223.59Y-172.46
X223.63Y-171.42
X223.7Y-177.91
X223.83Y-258.36
X224.02Y-177.11
X224.1Y-264.8
X224.14Y-265.5
X224.15Y-170.37
X224.59Y-172.03
X224.61Y-177.89
X224.66Y-177.09
X224.96Y-170.9
X224.96Y-186.76
X225.13Y-170.13
X225.37Y-177.11
X225.44Y-171.47
X225.44Y-177.86
X225.51Y-172.4
X225.8Y-258.52
X225.89Y-259.24
X226.26Y-177.13
X227.46Y-187.54
T3
X208.75Y-197.125
X208.75Y-202.125
X223.25Y-197.125
X223.25Y-199.625
X223.25Y-202.125
T5
X215.25Y-208.65
X215.25Y-246.45
T2
G00X210.93Y-264.35
M15
G01X210.93Y-264.95
M16
G05
G00X210.93Y-268.15
M15
G01X210.93Y-268.75
M16
G05
G00X219.57Y-264.35
M15
G01X219.57Y-264.95
M16
G05
G00X219.57Y-268.15
M15
G01X219.57Y-268.75
M16
G05
T4
G00X216.4Y-194.025
M15
G01X215.1Y-194.025
M16
G05
G00X216.4Y-205.225
M15
G01X215.1Y-205.225
M16
G05
M30
