%TF.GenerationSoftware,KiCad,Pcbnew,9.0.2*%
%TF.CreationDate,2026-02-26T22:18:23+08:00*%
%TF.ProjectId,tuki_GlowStick,74756b69-5f47-46c6-9f77-537469636b2e,rev?*%
%TF.SameCoordinates,Original*%
%TF.FileFunction,Copper,L1,Top*%
%TF.FilePolarity,Positive*%
%FSLAX46Y46*%
G04 Gerber Fmt 4.6, Leading zero omitted, Abs format (unit mm)*
G04 Created by KiCad (PCBNEW 9.0.2) date 2026-02-26 22:18:23*
%MOMM*%
%LPD*%
G01*
G04 APERTURE LIST*
G04 Aperture macros list*
%AMRoundRect*
0 Rectangle with rounded corners*
0 $1 Rounding radius*
0 $2 $3 $4 $5 $6 $7 $8 $9 X,Y pos of 4 corners*
0 Add a 4 corners polygon primitive as box body*
4,1,4,$2,$3,$4,$5,$6,$7,$8,$9,$2,$3,0*
0 Add four circle primitives for the rounded corners*
1,1,$1+$1,$2,$3*
1,1,$1+$1,$4,$5*
1,1,$1+$1,$6,$7*
1,1,$1+$1,$8,$9*
0 Add four rect primitives between the rounded corners*
20,1,$1+$1,$2,$3,$4,$5,0*
20,1,$1+$1,$4,$5,$6,$7,0*
20,1,$1+$1,$6,$7,$8,$9,0*
20,1,$1+$1,$8,$9,$2,$3,0*%
%AMRotRect*
0 Rectangle, with rotation*
0 The origin of the aperture is its center*
0 $1 length*
0 $2 width*
0 $3 Rotation angle, in degrees counterclockwise*
0 Add horizontal line*
21,1,$1,$2,0,0,$3*%
%AMFreePoly0*
4,1,14,0.334644,0.085355,0.385355,0.034644,0.400000,-0.000711,0.400000,-0.050000,0.385355,-0.085355,0.350000,-0.100000,-0.350000,-0.100000,-0.385355,-0.085355,-0.400000,-0.050000,-0.400000,0.050000,-0.385355,0.085355,-0.350000,0.100000,0.299289,0.100000,0.334644,0.085355,0.334644,0.085355,$1*%
%AMFreePoly1*
4,1,14,0.385355,0.085355,0.400000,0.050000,0.400000,0.000711,0.385355,-0.034644,0.334644,-0.085355,0.299289,-0.100000,-0.350000,-0.100000,-0.385355,-0.085355,-0.400000,-0.050000,-0.400000,0.050000,-0.385355,0.085355,-0.350000,0.100000,0.350000,0.100000,0.385355,0.085355,0.385355,0.085355,$1*%
%AMFreePoly2*
4,1,14,0.085355,0.385355,0.100000,0.350000,0.100000,-0.350000,0.085355,-0.385355,0.050000,-0.400000,-0.050000,-0.400000,-0.085355,-0.385355,-0.100000,-0.350000,-0.100000,0.299289,-0.085355,0.334644,-0.034644,0.385355,0.000711,0.400000,0.050000,0.400000,0.085355,0.385355,0.085355,0.385355,$1*%
%AMFreePoly3*
4,1,14,0.034644,0.385355,0.085355,0.334644,0.100000,0.299289,0.100000,-0.350000,0.085355,-0.385355,0.050000,-0.400000,-0.050000,-0.400000,-0.085355,-0.385355,-0.100000,-0.350000,-0.100000,0.350000,-0.085355,0.385355,-0.050000,0.400000,-0.000711,0.400000,0.034644,0.385355,0.034644,0.385355,$1*%
%AMFreePoly4*
4,1,14,0.385355,0.085355,0.400000,0.050000,0.400000,-0.050000,0.385355,-0.085355,0.350000,-0.100000,-0.299289,-0.100000,-0.334644,-0.085355,-0.385355,-0.034644,-0.400000,0.000711,-0.400000,0.050000,-0.385355,0.085355,-0.350000,0.100000,0.350000,0.100000,0.385355,0.085355,0.385355,0.085355,$1*%
%AMFreePoly5*
4,1,14,0.385355,0.085355,0.400000,0.050000,0.400000,-0.050000,0.385355,-0.085355,0.350000,-0.100000,-0.350000,-0.100000,-0.385355,-0.085355,-0.400000,-0.050000,-0.400000,-0.000711,-0.385355,0.034644,-0.334644,0.085355,-0.299289,0.100000,0.350000,0.100000,0.385355,0.085355,0.385355,0.085355,$1*%
%AMFreePoly6*
4,1,14,0.085355,0.385355,0.100000,0.350000,0.100000,-0.299289,0.085355,-0.334644,0.034644,-0.385355,-0.000711,-0.400000,-0.050000,-0.400000,-0.085355,-0.385355,-0.100000,-0.350000,-0.100000,0.350000,-0.085355,0.385355,-0.050000,0.400000,0.050000,0.400000,0.085355,0.385355,0.085355,0.385355,$1*%
%AMFreePoly7*
4,1,14,0.085355,0.385355,0.100000,0.350000,0.100000,-0.350000,0.085355,-0.385355,0.050000,-0.400000,0.000711,-0.400000,-0.034644,-0.385355,-0.085355,-0.334644,-0.100000,-0.299289,-0.100000,0.350000,-0.085355,0.385355,-0.050000,0.400000,0.050000,0.400000,0.085355,0.385355,0.085355,0.385355,$1*%
G04 Aperture macros list end*
%TA.AperFunction,SMDPad,CuDef*%
%ADD10RoundRect,0.237500X-0.237500X0.250000X-0.237500X-0.250000X0.237500X-0.250000X0.237500X0.250000X0*%
%TD*%
%TA.AperFunction,SMDPad,CuDef*%
%ADD11RoundRect,0.175000X-0.175000X-0.425000X0.175000X-0.425000X0.175000X0.425000X-0.175000X0.425000X0*%
%TD*%
%TA.AperFunction,SMDPad,CuDef*%
%ADD12RoundRect,0.190000X0.190000X0.410000X-0.190000X0.410000X-0.190000X-0.410000X0.190000X-0.410000X0*%
%TD*%
%TA.AperFunction,SMDPad,CuDef*%
%ADD13RoundRect,0.200000X0.200000X0.400000X-0.200000X0.400000X-0.200000X-0.400000X0.200000X-0.400000X0*%
%TD*%
%TA.AperFunction,SMDPad,CuDef*%
%ADD14RoundRect,0.175000X0.175000X0.425000X-0.175000X0.425000X-0.175000X-0.425000X0.175000X-0.425000X0*%
%TD*%
%TA.AperFunction,SMDPad,CuDef*%
%ADD15RoundRect,0.190000X-0.190000X-0.410000X0.190000X-0.410000X0.190000X0.410000X-0.190000X0.410000X0*%
%TD*%
%TA.AperFunction,SMDPad,CuDef*%
%ADD16RoundRect,0.200000X-0.200000X-0.400000X0.200000X-0.400000X0.200000X0.400000X-0.200000X0.400000X0*%
%TD*%
%TA.AperFunction,HeatsinkPad*%
%ADD17O,1.100000X1.700000*%
%TD*%
%TA.AperFunction,SMDPad,CuDef*%
%ADD18RoundRect,0.090000X-0.360000X0.660000X-0.360000X-0.660000X0.360000X-0.660000X0.360000X0.660000X0*%
%TD*%
%TA.AperFunction,SMDPad,CuDef*%
%ADD19RoundRect,0.237500X-0.300000X-0.237500X0.300000X-0.237500X0.300000X0.237500X-0.300000X0.237500X0*%
%TD*%
%TA.AperFunction,SMDPad,CuDef*%
%ADD20RoundRect,0.237500X-0.380070X0.044194X0.044194X-0.380070X0.380070X-0.044194X-0.044194X0.380070X0*%
%TD*%
%TA.AperFunction,SMDPad,CuDef*%
%ADD21RoundRect,0.218750X-0.256250X0.218750X-0.256250X-0.218750X0.256250X-0.218750X0.256250X0.218750X0*%
%TD*%
%TA.AperFunction,SMDPad,CuDef*%
%ADD22RoundRect,0.250000X-0.650000X0.412500X-0.650000X-0.412500X0.650000X-0.412500X0.650000X0.412500X0*%
%TD*%
%TA.AperFunction,SMDPad,CuDef*%
%ADD23RoundRect,0.250000X-0.250000X-0.250000X0.250000X-0.250000X0.250000X0.250000X-0.250000X0.250000X0*%
%TD*%
%TA.AperFunction,SMDPad,CuDef*%
%ADD24RoundRect,0.100000X0.687500X0.100000X-0.687500X0.100000X-0.687500X-0.100000X0.687500X-0.100000X0*%
%TD*%
%TA.AperFunction,HeatsinkPad*%
%ADD25R,1.500000X1.800000*%
%TD*%
%TA.AperFunction,SMDPad,CuDef*%
%ADD26FreePoly0,45.000000*%
%TD*%
%TA.AperFunction,SMDPad,CuDef*%
%ADD27RoundRect,0.050000X-0.212132X-0.282843X0.282843X0.212132X0.212132X0.282843X-0.282843X-0.212132X0*%
%TD*%
%TA.AperFunction,SMDPad,CuDef*%
%ADD28FreePoly1,45.000000*%
%TD*%
%TA.AperFunction,SMDPad,CuDef*%
%ADD29FreePoly2,45.000000*%
%TD*%
%TA.AperFunction,SMDPad,CuDef*%
%ADD30RoundRect,0.050000X0.212132X-0.282843X0.282843X-0.212132X-0.212132X0.282843X-0.282843X0.212132X0*%
%TD*%
%TA.AperFunction,SMDPad,CuDef*%
%ADD31FreePoly3,45.000000*%
%TD*%
%TA.AperFunction,SMDPad,CuDef*%
%ADD32FreePoly4,45.000000*%
%TD*%
%TA.AperFunction,SMDPad,CuDef*%
%ADD33FreePoly5,45.000000*%
%TD*%
%TA.AperFunction,SMDPad,CuDef*%
%ADD34FreePoly6,45.000000*%
%TD*%
%TA.AperFunction,SMDPad,CuDef*%
%ADD35FreePoly7,45.000000*%
%TD*%
%TA.AperFunction,HeatsinkPad*%
%ADD36RotRect,1.700000X1.700000X45.000000*%
%TD*%
%TA.AperFunction,SMDPad,CuDef*%
%ADD37RoundRect,0.237500X0.237500X-0.300000X0.237500X0.300000X-0.237500X0.300000X-0.237500X-0.300000X0*%
%TD*%
%TA.AperFunction,SMDPad,CuDef*%
%ADD38RoundRect,0.150000X-0.512500X-0.150000X0.512500X-0.150000X0.512500X0.150000X-0.512500X0.150000X0*%
%TD*%
%TA.AperFunction,SMDPad,CuDef*%
%ADD39RoundRect,0.210000X0.490000X1.540000X-0.490000X1.540000X-0.490000X-1.540000X0.490000X-1.540000X0*%
%TD*%
%TA.AperFunction,SMDPad,CuDef*%
%ADD40RoundRect,0.250000X-0.337500X-0.475000X0.337500X-0.475000X0.337500X0.475000X-0.337500X0.475000X0*%
%TD*%
%TA.AperFunction,SMDPad,CuDef*%
%ADD41RoundRect,0.150000X0.825000X0.150000X-0.825000X0.150000X-0.825000X-0.150000X0.825000X-0.150000X0*%
%TD*%
%TA.AperFunction,HeatsinkPad*%
%ADD42R,2.410000X3.300000*%
%TD*%
%TA.AperFunction,SMDPad,CuDef*%
%ADD43RoundRect,0.250000X-0.450000X0.350000X-0.450000X-0.350000X0.450000X-0.350000X0.450000X0.350000X0*%
%TD*%
%TA.AperFunction,SMDPad,CuDef*%
%ADD44RoundRect,0.250000X0.450000X-0.350000X0.450000X0.350000X-0.450000X0.350000X-0.450000X-0.350000X0*%
%TD*%
%TA.AperFunction,SMDPad,CuDef*%
%ADD45RoundRect,0.150000X0.512500X0.150000X-0.512500X0.150000X-0.512500X-0.150000X0.512500X-0.150000X0*%
%TD*%
%TA.AperFunction,SMDPad,CuDef*%
%ADD46RoundRect,0.237500X0.300000X0.237500X-0.300000X0.237500X-0.300000X-0.237500X0.300000X-0.237500X0*%
%TD*%
%TA.AperFunction,SMDPad,CuDef*%
%ADD47RoundRect,0.237500X-0.250000X-0.237500X0.250000X-0.237500X0.250000X0.237500X-0.250000X0.237500X0*%
%TD*%
%TA.AperFunction,ComponentPad*%
%ADD48R,2.000000X2.000000*%
%TD*%
%TA.AperFunction,ComponentPad*%
%ADD49C,2.000000*%
%TD*%
%TA.AperFunction,ComponentPad*%
%ADD50R,3.200000X2.000000*%
%TD*%
%TA.AperFunction,ComponentPad*%
%ADD51R,3.000000X3.000000*%
%TD*%
%TA.AperFunction,ComponentPad*%
%ADD52C,3.000000*%
%TD*%
%TA.AperFunction,SMDPad,CuDef*%
%ADD53C,1.500000*%
%TD*%
%TA.AperFunction,ViaPad*%
%ADD54C,0.600000*%
%TD*%
%TA.AperFunction,Conductor*%
%ADD55C,0.300000*%
%TD*%
%TA.AperFunction,Conductor*%
%ADD56C,0.700000*%
%TD*%
%TA.AperFunction,Conductor*%
%ADD57C,0.200000*%
%TD*%
%TA.AperFunction,Conductor*%
%ADD58C,1.000000*%
%TD*%
%TA.AperFunction,Conductor*%
%ADD59C,0.400000*%
%TD*%
%TA.AperFunction,Conductor*%
%ADD60C,0.150000*%
%TD*%
%TA.AperFunction,Conductor*%
%ADD61C,0.500000*%
%TD*%
%TA.AperFunction,Conductor*%
%ADD62C,0.170000*%
%TD*%
G04 APERTURE END LIST*
D10*
%TO.P,R3,1*%
%TO.N,-BATT*%
X208700000Y-264037500D03*
%TO.P,R3,2*%
%TO.N,Net-(J1-CC1)*%
X208700000Y-265862500D03*
%TD*%
D11*
%TO.P,J1,A5,CC1*%
%TO.N,Net-(J1-CC1)*%
X214750000Y-264570000D03*
D12*
%TO.P,J1,A9,VBUS*%
%TO.N,VCC*%
X216770000Y-264570000D03*
D13*
%TO.P,J1,A12,GND*%
%TO.N,-BATT*%
X218000000Y-264570000D03*
D14*
%TO.P,J1,B5,CC2*%
%TO.N,Net-(J1-CC2)*%
X215750000Y-264570000D03*
D15*
%TO.P,J1,B9,VBUS*%
%TO.N,VCC*%
X213730000Y-264570000D03*
D16*
%TO.P,J1,B12,GND*%
%TO.N,-BATT*%
X212500000Y-264570000D03*
D17*
%TO.P,J1,S1,SHIELD*%
X210930000Y-264650000D03*
X210930000Y-268450000D03*
X219570000Y-264650000D03*
X219570000Y-268450000D03*
%TD*%
D18*
%TO.P,D5,1,VDD*%
%TO.N,+5V*%
X216900001Y-119580000D03*
%TO.P,D5,2,DOUT*%
%TO.N,Net-(D5-DOUT)*%
X213600001Y-119580000D03*
%TO.P,D5,3,VSS*%
%TO.N,-BATT*%
X213600001Y-124480000D03*
%TO.P,D5,4,DIN*%
%TO.N,Net-(D4-DOUT)*%
X216900001Y-124480000D03*
%TD*%
D19*
%TO.P,C2,1*%
%TO.N,Net-(U1-VDD)*%
X202550000Y-259574998D03*
%TO.P,C2,2*%
%TO.N,-BATT*%
X204275000Y-259574998D03*
%TD*%
%TO.P,C7,1*%
%TO.N,+5V*%
X219387500Y-122820000D03*
%TO.P,C7,2*%
%TO.N,-BATT*%
X221112500Y-122820000D03*
%TD*%
D20*
%TO.P,C16,1*%
%TO.N,+5V*%
X217400000Y-185910000D03*
%TO.P,C16,2*%
%TO.N,-BATT*%
X218619760Y-187129758D03*
%TD*%
D21*
%TO.P,D2,1,K*%
%TO.N,Net-(D2-K)*%
X205615000Y-267849999D03*
%TO.P,D2,2,A*%
%TO.N,VCC*%
X205615000Y-269424999D03*
%TD*%
D10*
%TO.P,R2,1*%
%TO.N,-BATT*%
X221800000Y-264327500D03*
%TO.P,R2,2*%
%TO.N,Net-(J1-CC2)*%
X221800000Y-266152500D03*
%TD*%
%TO.P,Rr1,1*%
%TO.N,Net-(U2-~{CHRG})*%
X205549999Y-263204996D03*
%TO.P,Rr1,2*%
%TO.N,Net-(D2-K)*%
X205549999Y-265029996D03*
%TD*%
D22*
%TO.P,C4,1*%
%TO.N,+5V*%
X203000000Y-246512500D03*
%TO.P,C4,2*%
%TO.N,-BATT*%
X203000000Y-249637500D03*
%TD*%
D18*
%TO.P,D7,1,VDD*%
%TO.N,+5V*%
X216900001Y-71340000D03*
%TO.P,D7,2,DOUT*%
%TO.N,Net-(D7-DOUT)*%
X213600001Y-71340000D03*
%TO.P,D7,3,VSS*%
%TO.N,-BATT*%
X213600001Y-76240000D03*
%TO.P,D7,4,DIN*%
%TO.N,Net-(D6-DOUT)*%
X216900001Y-76240000D03*
%TD*%
D23*
%TO.P,D3,1,K*%
%TO.N,+5V*%
X203750000Y-243400000D03*
%TO.P,D3,2,A*%
%TO.N,Net-(D3-A)*%
X206250000Y-243400000D03*
%TD*%
D24*
%TO.P,Q1,1*%
%TO.N,unconnected-(Q1-Pad1)_1*%
X214212500Y-257625000D03*
%TO.P,Q1,2*%
%TO.N,-BATT*%
X214212500Y-256975000D03*
%TO.P,Q1,3*%
X214212500Y-256325000D03*
%TO.P,Q1,4*%
%TO.N,Net-(U1-OC)*%
X214212500Y-255675000D03*
%TO.P,Q1,5*%
%TO.N,Net-(U1-OD)*%
X209987500Y-255675000D03*
%TO.P,Q1,6*%
%TO.N,-BATT*%
X209987500Y-256325000D03*
%TO.P,Q1,7*%
X209987500Y-256975000D03*
%TO.P,Q1,8*%
%TO.N,unconnected-(Q1-Pad1)*%
X209987500Y-257625000D03*
D25*
%TO.P,Q1,9*%
%TO.N,N/C*%
X212100000Y-256650000D03*
%TD*%
D26*
%TO.P,U5,1,PA2*%
%TO.N,unconnected-(U5-PA2-Pad1)*%
X218128629Y-183390609D03*
D27*
%TO.P,U5,2,PA3*%
%TO.N,IO3*%
X218411471Y-183673452D03*
%TO.P,U5,3,GND*%
%TO.N,-BATT*%
X218694314Y-183956295D03*
%TO.P,U5,4,VCC*%
%TO.N,+5V*%
X218977157Y-184239138D03*
D28*
%TO.P,U5,5,PA4*%
%TO.N,unconnected-(U5-PA4-Pad5)*%
X219259999Y-184521981D03*
D29*
%TO.P,U5,6,PA5*%
%TO.N,IO5*%
X220179238Y-184521980D03*
D30*
%TO.P,U5,7,PA6*%
%TO.N,IO6*%
X220462081Y-184239138D03*
%TO.P,U5,8,PA7*%
%TO.N,IO7*%
X220744924Y-183956295D03*
%TO.P,U5,9,PB5*%
%TO.N,unconnected-(U5-PB5-Pad9)*%
X221027767Y-183673452D03*
D31*
%TO.P,U5,10,PB4*%
%TO.N,unconnected-(U5-PB4-Pad10)*%
X221310610Y-183390610D03*
D32*
%TO.P,U5,11,PB3*%
%TO.N,unconnected-(U5-PB3-Pad11)*%
X221310609Y-182471371D03*
D27*
%TO.P,U5,12,PB2*%
%TO.N,unconnected-(U5-PB2-Pad12)*%
X221027767Y-182188528D03*
%TO.P,U5,13,PB1*%
%TO.N,unconnected-(U5-PB1-Pad13)*%
X220744924Y-181905685D03*
%TO.P,U5,14,PB0*%
%TO.N,unconnected-(U5-PB0-Pad14)*%
X220462081Y-181622842D03*
D33*
%TO.P,U5,15,PC0*%
%TO.N,unconnected-(U5-PC0-Pad15)*%
X220179239Y-181339999D03*
D34*
%TO.P,U5,16,PC1*%
%TO.N,unconnected-(U5-PC1-Pad16)*%
X219260000Y-181340000D03*
D30*
%TO.P,U5,17,PC2*%
%TO.N,unconnected-(U5-PC2-Pad17)*%
X218977157Y-181622842D03*
%TO.P,U5,18,PC3*%
%TO.N,unconnected-(U5-PC3-Pad18)*%
X218694314Y-181905685D03*
%TO.P,U5,19,~{RESET}/PA0*%
%TO.N,unconnected-(U5-~{RESET}{slash}PA0-Pad19)*%
X218411471Y-182188528D03*
D35*
%TO.P,U5,20,PA1*%
%TO.N,IO21*%
X218128628Y-182471370D03*
D36*
%TO.P,U5,21,GND*%
%TO.N,-BATT*%
X219719619Y-182930990D03*
%TD*%
D37*
%TO.P,R5,1*%
%TO.N,Net-(U2-PROG)*%
X225000001Y-260537500D03*
%TO.P,R5,2*%
%TO.N,-BATT*%
X225000001Y-258812500D03*
%TD*%
D18*
%TO.P,D4,1,VDD*%
%TO.N,+5V*%
X216900001Y-143700000D03*
%TO.P,D4,2,DOUT*%
%TO.N,Net-(D4-DOUT)*%
X213600001Y-143700000D03*
%TO.P,D4,3,VSS*%
%TO.N,-BATT*%
X213600001Y-148600000D03*
%TO.P,D4,4,DIN*%
%TO.N,IO3*%
X216900001Y-148600000D03*
%TD*%
D22*
%TO.P,C5,1*%
%TO.N,+BATT*%
X215250000Y-249712500D03*
%TO.P,C5,2*%
%TO.N,-BATT*%
X215250000Y-252837500D03*
%TD*%
D10*
%TO.P,Rr2,1*%
%TO.N,Net-(U2-~{STDBY})*%
X202540000Y-263204999D03*
%TO.P,Rr2,2*%
%TO.N,Net-(D1-K)*%
X202540000Y-265029999D03*
%TD*%
D38*
%TO.P,U3,1,SW*%
%TO.N,Net-(D3-A)*%
X210137499Y-248387503D03*
%TO.P,U3,2,GND*%
%TO.N,-BATT*%
X210137499Y-249337503D03*
%TO.P,U3,3,FB*%
%TO.N,Net-(U3-FB)*%
X210137499Y-250287503D03*
%TO.P,U3,4,EN*%
%TO.N,+BATT*%
X212412499Y-250287503D03*
%TO.P,U3,5,IN*%
X212412499Y-249337503D03*
%TO.P,U3,6,NC*%
%TO.N,unconnected-(U3-NC-Pad6)*%
X212412499Y-248387503D03*
%TD*%
D20*
%TO.P,C17,1*%
%TO.N,+5V*%
X216270000Y-187030000D03*
%TO.P,C17,2*%
%TO.N,-BATT*%
X217489760Y-188249758D03*
%TD*%
D19*
%TO.P,C8,1*%
%TO.N,+5V*%
X219427500Y-98990000D03*
%TO.P,C8,2*%
%TO.N,-BATT*%
X221152500Y-98990000D03*
%TD*%
%TO.P,C6,1*%
%TO.N,+5V*%
X219427500Y-139740000D03*
%TO.P,C6,2*%
%TO.N,-BATT*%
X221152500Y-139740000D03*
%TD*%
D39*
%TO.P,L1,1*%
%TO.N,+BATT*%
X212325000Y-243400000D03*
%TO.P,L1,2*%
%TO.N,Net-(D3-A)*%
X209725000Y-243400000D03*
%TD*%
D40*
%TO.P,C3,1*%
%TO.N,+BATT*%
X217737500Y-254775000D03*
%TO.P,C3,2*%
%TO.N,-BATT*%
X219812500Y-254775000D03*
%TD*%
D18*
%TO.P,D6,1,VDD*%
%TO.N,+5V*%
X216900001Y-95460000D03*
%TO.P,D6,2,DOUT*%
%TO.N,Net-(D6-DOUT)*%
X213600001Y-95460000D03*
%TO.P,D6,3,VSS*%
%TO.N,-BATT*%
X213600001Y-100360000D03*
%TO.P,D6,4,DIN*%
%TO.N,Net-(D5-DOUT)*%
X216900001Y-100360000D03*
%TD*%
D41*
%TO.P,U2,1,TEMP*%
%TO.N,-BATT*%
X222400000Y-260805000D03*
%TO.P,U2,2,PROG*%
%TO.N,Net-(U2-PROG)*%
X222400000Y-259535000D03*
%TO.P,U2,3,GND*%
%TO.N,-BATT*%
X222400000Y-258265000D03*
%TO.P,U2,4,V_{CC}*%
%TO.N,VCC*%
X222400000Y-256995000D03*
%TO.P,U2,5,BAT*%
%TO.N,+BATT*%
X217450000Y-256995000D03*
%TO.P,U2,6,~{STDBY}*%
%TO.N,Net-(U2-~{STDBY})*%
X217450000Y-258265000D03*
%TO.P,U2,7,~{CHRG}*%
%TO.N,Net-(U2-~{CHRG})*%
X217450000Y-259535000D03*
%TO.P,U2,8,CE*%
%TO.N,VCC*%
X217450000Y-260805000D03*
D42*
%TO.P,U2,9,EPAD*%
%TO.N,-BATT*%
X219925000Y-258900000D03*
%TD*%
D43*
%TO.P,R6,1*%
%TO.N,+5V*%
X205960000Y-248170000D03*
%TO.P,R6,2*%
%TO.N,Net-(U3-FB)*%
X205960000Y-250170000D03*
%TD*%
D44*
%TO.P,R1,1*%
%TO.N,Net-(U1-VDD)*%
X202562499Y-257550003D03*
%TO.P,R1,2*%
%TO.N,+BATT*%
X202562499Y-255550003D03*
%TD*%
D18*
%TO.P,D8,1,VDD*%
%TO.N,+5V*%
X216900001Y-47220000D03*
%TO.P,D8,2,DOUT*%
%TO.N,Net-(D8-DOUT)*%
X213600001Y-47220000D03*
%TO.P,D8,3,VSS*%
%TO.N,-BATT*%
X213600001Y-52120000D03*
%TO.P,D8,4,DIN*%
%TO.N,Net-(D7-DOUT)*%
X216900001Y-52120000D03*
%TD*%
D10*
%TO.P,R4,1*%
%TO.N,Net-(U1-CSI)*%
X207887500Y-259462500D03*
%TO.P,R4,2*%
%TO.N,-BATT*%
X207887500Y-261287500D03*
%TD*%
D45*
%TO.P,U1,1,OD*%
%TO.N,Net-(U1-OD)*%
X207000000Y-257650000D03*
%TO.P,U1,2,CSI*%
%TO.N,Net-(U1-CSI)*%
X207000000Y-256700000D03*
%TO.P,U1,3,OC*%
%TO.N,Net-(U1-OC)*%
X207000000Y-255750000D03*
%TO.P,U1,4,TS*%
%TO.N,unconnected-(U1-TS-Pad4)*%
X204725000Y-255750000D03*
%TO.P,U1,5,VDD*%
%TO.N,Net-(U1-VDD)*%
X204725000Y-256700000D03*
%TO.P,U1,6,VSS*%
%TO.N,-BATT*%
X204725000Y-257650000D03*
%TD*%
D46*
%TO.P,C1,1*%
%TO.N,VCC*%
X213850000Y-260800000D03*
%TO.P,C1,2*%
%TO.N,-BATT*%
X212125000Y-260800000D03*
%TD*%
D19*
%TO.P,C10,1*%
%TO.N,+5V*%
X219407500Y-50930000D03*
%TO.P,C10,2*%
%TO.N,-BATT*%
X221132500Y-50930000D03*
%TD*%
D21*
%TO.P,D1,1,K*%
%TO.N,Net-(D1-K)*%
X202525002Y-267849999D03*
%TO.P,D1,2,A*%
%TO.N,VCC*%
X202525002Y-269424999D03*
%TD*%
D47*
%TO.P,R7,1*%
%TO.N,Net-(U3-FB)*%
X206087500Y-251860000D03*
%TO.P,R7,2*%
%TO.N,-BATT*%
X207912500Y-251860000D03*
%TD*%
D19*
%TO.P,C9,1*%
%TO.N,+5V*%
X219430000Y-75230000D03*
%TO.P,C9,2*%
%TO.N,-BATT*%
X221155000Y-75230000D03*
%TD*%
D48*
%TO.P,SW1,A,A*%
%TO.N,IO5*%
X223250000Y-202125000D03*
D49*
%TO.P,SW1,B,B*%
%TO.N,IO7*%
X223250000Y-197125000D03*
%TO.P,SW1,C,C*%
%TO.N,IO6*%
X223250000Y-199625000D03*
D50*
%TO.P,SW1,MP*%
%TO.N,N/C*%
X215750000Y-205225000D03*
X215750000Y-194025000D03*
D49*
%TO.P,SW1,S1,S1*%
%TO.N,Net-(R8-Pad1)*%
X208750000Y-197125000D03*
%TO.P,SW1,S2,S2*%
%TO.N,IO21*%
X208750000Y-202125000D03*
%TD*%
D43*
%TO.P,R8,1*%
%TO.N,Net-(R8-Pad1)*%
X205830000Y-197120000D03*
%TO.P,R8,2*%
%TO.N,-BATT*%
X205830000Y-199120000D03*
%TD*%
D51*
%TO.P,BT1,1,+*%
%TO.N,+BATT*%
X215250000Y-246450000D03*
D52*
%TO.P,BT1,2,-*%
%TO.N,-BATT*%
X215250000Y-208650000D03*
%TD*%
D53*
%TO.P,TP1,1,1*%
%TO.N,+5V*%
X206700000Y-177900000D03*
%TD*%
D54*
%TO.N,-BATT*%
X215875000Y-50225000D03*
X215775000Y-49025000D03*
X214750000Y-49750000D03*
X214869763Y-52170000D03*
X214900000Y-51025000D03*
X212000000Y-52750000D03*
X212000000Y-51725000D03*
X212500001Y-50675000D03*
X222610000Y-122170000D03*
X207700000Y-244890000D03*
X206440000Y-246400000D03*
X211990000Y-144800000D03*
X221630000Y-255010000D03*
X204230000Y-248560000D03*
X213340000Y-207770000D03*
X213630000Y-210100000D03*
X214850000Y-72470000D03*
X221960000Y-170610000D03*
X210150000Y-261210000D03*
X204550000Y-249830000D03*
X225370000Y-177110000D03*
X225440000Y-177860000D03*
X209920000Y-264320000D03*
X220780000Y-104480000D03*
X213720000Y-251910000D03*
X213260000Y-98510000D03*
X221130000Y-53400000D03*
X226260000Y-177130000D03*
X212500000Y-207500000D03*
X205270000Y-200480000D03*
X220920000Y-268660000D03*
X225800000Y-258520000D03*
X219660000Y-260970000D03*
X222590000Y-74600000D03*
X212030000Y-269600000D03*
X221840000Y-79620000D03*
X210790000Y-260630000D03*
X212500000Y-210400000D03*
X221070000Y-121560000D03*
X220910000Y-255700000D03*
X220890000Y-56060000D03*
X211960000Y-149340000D03*
X207890000Y-249320000D03*
X215190000Y-147890000D03*
X209740000Y-269550000D03*
X212660000Y-121370000D03*
X221770000Y-54890000D03*
X206730000Y-261200000D03*
X224150000Y-170370000D03*
X213960000Y-73010000D03*
X219940000Y-256200000D03*
X224960000Y-170900000D03*
X214370000Y-185720000D03*
X205180000Y-259910000D03*
X212820000Y-211450000D03*
X217820000Y-207010000D03*
X223590000Y-172460000D03*
X206810000Y-200380000D03*
X221000000Y-80510000D03*
X211860000Y-144030000D03*
X215080000Y-185810000D03*
X211870000Y-263520000D03*
X217200000Y-211180000D03*
X212150000Y-268580000D03*
X208810000Y-245940000D03*
X204640000Y-251640000D03*
X211050000Y-267100000D03*
X218760000Y-207410000D03*
X214870000Y-144440000D03*
X214670000Y-96880000D03*
X222500000Y-255240000D03*
X216020000Y-188530000D03*
X207090000Y-245790000D03*
X210890000Y-269780000D03*
X222250000Y-126990000D03*
X224020000Y-177110000D03*
X212870000Y-74560000D03*
X224610000Y-177890000D03*
X218530000Y-266920000D03*
X221140000Y-128260000D03*
X221680000Y-255700000D03*
X212510000Y-48740000D03*
X218540000Y-268770000D03*
X203410000Y-248270000D03*
X217900000Y-210390000D03*
X213870000Y-253620000D03*
X214690000Y-254210000D03*
X223830000Y-258360000D03*
X221800000Y-53970000D03*
X221130000Y-52170000D03*
X219430000Y-256840000D03*
X221070000Y-126170000D03*
X220660000Y-264950000D03*
X221400000Y-141600000D03*
X222140000Y-52140000D03*
X206090000Y-261790000D03*
X222810000Y-171960000D03*
X214870000Y-143700000D03*
X216880000Y-207140000D03*
X222590000Y-98850000D03*
X220940000Y-254730000D03*
X212230000Y-123180000D03*
X214770000Y-98810000D03*
X212100000Y-267780000D03*
X209570000Y-263620000D03*
X222510000Y-261530000D03*
X222020000Y-172230000D03*
X219420000Y-269900000D03*
X221510000Y-104270000D03*
X217880000Y-268290000D03*
X221550000Y-142550000D03*
X222570000Y-50410000D03*
X218660000Y-270050000D03*
X215550000Y-254200000D03*
X222970000Y-264290000D03*
X203200000Y-250990000D03*
X219220000Y-188280000D03*
X222930000Y-265040000D03*
X208180000Y-245550000D03*
X215050000Y-123510000D03*
X206900000Y-244840000D03*
X201220000Y-250680000D03*
X220360000Y-260970000D03*
X210790000Y-252440000D03*
X208900000Y-256670000D03*
X222590000Y-75730000D03*
X224140000Y-265500000D03*
X214050000Y-98520000D03*
X215175000Y-210875000D03*
X221760000Y-78560000D03*
X220640000Y-264320000D03*
X214520000Y-74620000D03*
X208670000Y-247850000D03*
X201590000Y-249930000D03*
X209030000Y-252480000D03*
X211940000Y-150070000D03*
X222310000Y-138950000D03*
X211960000Y-96490000D03*
X213750000Y-150390000D03*
X220680000Y-256340000D03*
X222580000Y-76780000D03*
X223700000Y-177910000D03*
X204860000Y-258650000D03*
X221210000Y-138690000D03*
X217720000Y-267410000D03*
X222470000Y-140120000D03*
X218220000Y-269530000D03*
X214930000Y-120440000D03*
X214870000Y-143000000D03*
X212060000Y-120610000D03*
X224590000Y-172030000D03*
X215650000Y-185360000D03*
X212870000Y-97190000D03*
X213660000Y-121420000D03*
X221550000Y-261560000D03*
X213630000Y-74580000D03*
X220910000Y-253670000D03*
X221450000Y-77750000D03*
X210880000Y-261460000D03*
X221700000Y-73610000D03*
X209450000Y-261460000D03*
X209770000Y-268700000D03*
X221380000Y-127460000D03*
X204500000Y-249170000D03*
X203440000Y-260830000D03*
X225130000Y-170130000D03*
X219510000Y-186320000D03*
X208690000Y-248820000D03*
X219540000Y-251860000D03*
X218830000Y-211050000D03*
X221800000Y-49410000D03*
X209860000Y-251590000D03*
X212340000Y-98580000D03*
X219430000Y-267080000D03*
X221460000Y-102710000D03*
X207490000Y-246380000D03*
X218530000Y-267740000D03*
X219820000Y-187710000D03*
X220040000Y-186850000D03*
X204140000Y-260800000D03*
X206950000Y-199220000D03*
X218680000Y-263930000D03*
X217375000Y-209900000D03*
X206060000Y-200560000D03*
X214900000Y-75620000D03*
X221890000Y-124540000D03*
X213120000Y-122690000D03*
X224660000Y-177090000D03*
X220800000Y-252860000D03*
X220860000Y-142560000D03*
X218375000Y-208725000D03*
X220050000Y-252610000D03*
X221590000Y-254210000D03*
X222690000Y-100020000D03*
X220110000Y-256860000D03*
X204360000Y-250890000D03*
X213730000Y-252750000D03*
X214920000Y-185100000D03*
X220600000Y-267470000D03*
X214960000Y-149470000D03*
X222310000Y-140980000D03*
X202010000Y-250880000D03*
X218560000Y-188890000D03*
X221020000Y-124750000D03*
X214730000Y-48560000D03*
X209960000Y-252450000D03*
X217420000Y-208930000D03*
X214290000Y-122810000D03*
X212570000Y-209540000D03*
X216525000Y-210550000D03*
X221330000Y-267740000D03*
X201520000Y-249080000D03*
X213750000Y-97190000D03*
X208680000Y-247070000D03*
X202570000Y-251570000D03*
X209040000Y-251570000D03*
X213530000Y-48850000D03*
X222080000Y-97830000D03*
X222800000Y-170640000D03*
X218130000Y-209480000D03*
X204710000Y-260420000D03*
X214710000Y-150290000D03*
X224100000Y-264800000D03*
X214640000Y-121200000D03*
X213120000Y-73140000D03*
X222550000Y-123390000D03*
X208230000Y-246510000D03*
X217675000Y-207750000D03*
X225890000Y-259240000D03*
X216310000Y-185120000D03*
X221690000Y-55670000D03*
X221030000Y-260950000D03*
X223630000Y-171420000D03*
X212450000Y-208725000D03*
X212170000Y-72690000D03*
X205770000Y-244790000D03*
X209780000Y-267970000D03*
X220080000Y-142620000D03*
X206240000Y-245490000D03*
X202650000Y-248240000D03*
X223440000Y-261430000D03*
X215050000Y-124510000D03*
X201740000Y-248100000D03*
X222600000Y-51340000D03*
X210350000Y-263530000D03*
X222340000Y-171330000D03*
X221680000Y-101490000D03*
X225440000Y-171470000D03*
X220610000Y-269710000D03*
X204090000Y-258650000D03*
X210790000Y-251640000D03*
X214830000Y-99650000D03*
X203880000Y-251570000D03*
X219850000Y-253400000D03*
X211880000Y-143200000D03*
X212830000Y-150340000D03*
X213725000Y-211025000D03*
X215390000Y-256680000D03*
X225510000Y-172400000D03*
X221400000Y-269340000D03*
X211860000Y-48140000D03*
X215190000Y-148600000D03*
%TO.N,+5V*%
X207370000Y-183150000D03*
X213850000Y-186730000D03*
X216900001Y-146025001D03*
%TO.N,IO3*%
X217270000Y-172120000D03*
X215820000Y-182130000D03*
X215850000Y-180250000D03*
%TO.N,Net-(D8-DOUT)*%
X214900000Y-47225000D03*
%TO.N,Net-(U2-~{CHRG})*%
X214925000Y-259275003D03*
X206650000Y-262700000D03*
%TO.N,Net-(U2-~{STDBY})*%
X203925000Y-262650000D03*
X214925000Y-258475000D03*
%TO.N,IO21*%
X208020000Y-181260000D03*
X208040000Y-187590000D03*
%TO.N,IO5*%
X227460000Y-187540000D03*
%TO.N,IO6*%
X224960000Y-186760000D03*
%TD*%
D55*
%TO.N,+5V*%
X206700000Y-182480000D02*
X206700000Y-177900000D01*
X207370000Y-183150000D02*
X206700000Y-182480000D01*
D56*
%TO.N,+BATT*%
X202562499Y-254597501D02*
X202562499Y-255550003D01*
X211875000Y-253750000D02*
X203410000Y-253750000D01*
X203410000Y-253750000D02*
X202562499Y-254597501D01*
X212412499Y-253212501D02*
X211875000Y-253750000D01*
X212412499Y-250287503D02*
X212412499Y-253212501D01*
X212412499Y-250287503D02*
X212412499Y-249337503D01*
D57*
%TO.N,-BATT*%
X216940000Y-184560000D02*
X218090609Y-184560000D01*
X216380000Y-185120000D02*
X216940000Y-184560000D01*
X218090609Y-184560000D02*
X218694314Y-183956295D01*
X216310000Y-185120000D02*
X216380000Y-185120000D01*
D55*
%TO.N,VCC*%
X213850000Y-262150000D02*
X213850000Y-260800000D01*
D58*
X218805000Y-262875000D02*
X226050000Y-262875000D01*
D55*
X208400000Y-262525000D02*
X213475000Y-262525000D01*
D58*
X226220000Y-256995000D02*
X222400000Y-256995000D01*
X227200000Y-257975000D02*
X226220000Y-256995000D01*
D55*
X207450000Y-263475000D02*
X208400000Y-262525000D01*
D58*
X227200000Y-261725000D02*
X227200000Y-257975000D01*
X217450000Y-261520000D02*
X218805000Y-262875000D01*
D55*
X202525000Y-269425000D02*
X205855000Y-269425000D01*
X213475000Y-262525000D02*
X213850000Y-262150000D01*
X205855000Y-269425000D02*
X207450000Y-267830000D01*
D58*
X217450000Y-260805000D02*
X217450000Y-261520000D01*
D55*
X207450000Y-267830000D02*
X207450000Y-263475000D01*
D58*
X226050000Y-262875000D02*
X227200000Y-261725000D01*
D59*
%TO.N,Net-(U1-VDD)*%
X203412502Y-256700000D02*
X202562499Y-257550003D01*
D56*
X202550000Y-259574998D02*
X202550000Y-257562502D01*
D59*
X203412502Y-256700000D02*
X204725000Y-256700000D01*
D58*
%TO.N,+5V*%
X216900001Y-71490001D02*
X216900001Y-71189999D01*
X219420000Y-141180001D02*
X219420000Y-122250000D01*
X205960000Y-247620000D02*
X204852499Y-246512499D01*
X216750000Y-143850001D02*
X219420000Y-141180001D01*
D55*
X207370000Y-183150000D02*
X205630000Y-183150000D01*
X205630000Y-183150000D02*
X203750000Y-185030000D01*
D58*
X219420000Y-122250000D02*
X216900001Y-119730001D01*
X219420000Y-68670000D02*
X219420000Y-49890000D01*
X216900001Y-119730001D02*
X216900001Y-119429999D01*
X216599999Y-146025001D02*
X216175000Y-146450000D01*
D60*
X217400000Y-185810000D02*
X218970862Y-184239138D01*
D58*
X219420000Y-49890000D02*
X216900001Y-47370001D01*
X216900001Y-119429999D02*
X219420000Y-116910000D01*
X212380000Y-146450000D02*
X203750000Y-155080000D01*
X219420000Y-74010000D02*
X216900001Y-71490001D01*
X205960000Y-248170000D02*
X205960000Y-247620000D01*
D61*
X217390000Y-185910000D02*
X216270000Y-187030000D01*
D58*
X216900001Y-146025001D02*
X216750000Y-145875000D01*
X219420000Y-98130000D02*
X216900001Y-95610001D01*
X219420000Y-116910000D02*
X219420000Y-98130000D01*
D61*
X213850000Y-186730000D02*
X214580000Y-186730000D01*
D58*
X216750000Y-145875000D02*
X216750000Y-143850001D01*
X203000000Y-244150000D02*
X203750000Y-243400000D01*
X216900001Y-146025001D02*
X216599999Y-146025001D01*
X216900001Y-71189999D02*
X219420000Y-68670000D01*
X216900001Y-47370001D02*
X216900001Y-47220000D01*
D61*
X214880000Y-187030000D02*
X216270000Y-187030000D01*
D58*
X204852499Y-246512499D02*
X203000000Y-246512499D01*
X216900001Y-95309999D02*
X219420000Y-92790000D01*
X203750000Y-155080000D02*
X203750000Y-243400000D01*
X219420000Y-92790000D02*
X219420000Y-74010000D01*
D61*
X214580000Y-186730000D02*
X214880000Y-187030000D01*
D58*
X203000000Y-246512499D02*
X203000000Y-244150000D01*
X216900001Y-95610001D02*
X216900001Y-95309999D01*
X216175000Y-146450000D02*
X212380000Y-146450000D01*
D55*
%TO.N,Net-(D1-K)*%
X202525004Y-267849998D02*
X202525004Y-265044995D01*
%TO.N,Net-(D2-K)*%
X205549999Y-265029996D02*
X205549999Y-267784995D01*
%TO.N,Net-(D3-A)*%
X209724999Y-246134999D02*
X209724999Y-243400000D01*
X210137499Y-248387503D02*
X210137499Y-246547499D01*
D58*
X209724999Y-243400000D02*
X206250000Y-243400000D01*
D55*
X210137499Y-246547499D02*
X209724999Y-246134999D01*
%TO.N,Net-(D4-DOUT)*%
X213600001Y-143549999D02*
X213600001Y-133149999D01*
X213600001Y-133149999D02*
X216750000Y-130000000D01*
X216750000Y-130000000D02*
X216750000Y-124480000D01*
D62*
%TO.N,IO3*%
X215850000Y-180250000D02*
X217270000Y-178830000D01*
D60*
X215820000Y-182550000D02*
X215820000Y-182130000D01*
D55*
X217270000Y-172120000D02*
X216900001Y-171750001D01*
D62*
X217270000Y-178830000D02*
X217270000Y-172120000D01*
D55*
X216900001Y-171750001D02*
X216900001Y-148750001D01*
D62*
X217238730Y-184030000D02*
X215820000Y-182611270D01*
X215820000Y-182611270D02*
X215820000Y-182130000D01*
X218054923Y-184030000D02*
X217238730Y-184030000D01*
X218411471Y-183673452D02*
X218054923Y-184030000D01*
D55*
%TO.N,Net-(D5-DOUT)*%
X216750000Y-109650000D02*
X216750000Y-100360000D01*
X213450000Y-119580000D02*
X213450000Y-112950000D01*
X213450000Y-112950000D02*
X216750000Y-109650000D01*
%TO.N,Net-(D6-DOUT)*%
X213600001Y-85349999D02*
X216900001Y-82049999D01*
X213600001Y-95309999D02*
X213600001Y-85349999D01*
X216900001Y-82049999D02*
X216900001Y-76390001D01*
%TO.N,Net-(D7-DOUT)*%
X216900001Y-59149999D02*
X216900001Y-52270001D01*
X213600001Y-62449999D02*
X216900001Y-59149999D01*
X213600001Y-71189999D02*
X213600001Y-62449999D01*
%TO.N,Net-(D8-DOUT)*%
X214900000Y-47225000D02*
X213605001Y-47225000D01*
%TO.N,Net-(J1-CC1)*%
X214750000Y-265170000D02*
X214057500Y-265862500D01*
X214057500Y-265862500D02*
X208700000Y-265862500D01*
X214750000Y-264570000D02*
X214750000Y-265170000D01*
%TO.N,Net-(J1-CC2)*%
X216492500Y-265912500D02*
X221560000Y-265912500D01*
X215750000Y-265170000D02*
X216492500Y-265912500D01*
X215750000Y-264570000D02*
X215750000Y-265170000D01*
%TO.N,Net-(U1-CSI)*%
X205800000Y-259050000D02*
X206212500Y-259462500D01*
X206212500Y-259462500D02*
X207887500Y-259462500D01*
X207000000Y-256700000D02*
X206165000Y-256700000D01*
X206165000Y-256700000D02*
X205800000Y-257065000D01*
X205800000Y-257065000D02*
X205800000Y-259050000D01*
%TO.N,Net-(U2-PROG)*%
X223997501Y-259535000D02*
X225000001Y-260537500D01*
X222400000Y-259535000D02*
X223997501Y-259535000D01*
%TO.N,Net-(U3-FB)*%
X206067500Y-250297506D02*
X206067500Y-251840000D01*
X210137499Y-250287503D02*
X206077503Y-250287503D01*
%TO.N,Net-(R8-Pad1)*%
X205625000Y-197124999D02*
X208750000Y-197125000D01*
%TO.N,Net-(U2-~{CHRG})*%
X214925000Y-259275003D02*
X215580003Y-259275003D01*
X206145004Y-263204996D02*
X206650000Y-262700000D01*
X215840000Y-259535000D02*
X217450000Y-259535000D01*
X215580003Y-259275003D02*
X215840000Y-259535000D01*
X205549999Y-263204996D02*
X206145004Y-263204996D01*
%TO.N,Net-(U2-~{STDBY})*%
X215760000Y-258265000D02*
X217450000Y-258265000D01*
X202540000Y-263204999D02*
X203370001Y-263204999D01*
X214925000Y-258475000D02*
X215550000Y-258475000D01*
X215550000Y-258475000D02*
X215760000Y-258265000D01*
X203370001Y-263204999D02*
X203925000Y-262650000D01*
D62*
%TO.N,IO7*%
X227290000Y-185870000D02*
X222658629Y-185870000D01*
X227060000Y-197130000D02*
X227120000Y-197190000D01*
X228280000Y-186860000D02*
X227290000Y-185870000D01*
X223255000Y-197130000D02*
X227060000Y-197130000D01*
X222658629Y-185870000D02*
X220744924Y-183956295D01*
X228280000Y-196030000D02*
X228280000Y-186860000D01*
X227120000Y-197190000D02*
X228280000Y-196030000D01*
D55*
%TO.N,IO21*%
X208020000Y-187570000D02*
X208040000Y-187590000D01*
X208020000Y-181260000D02*
X208020000Y-187570000D01*
D60*
X218128628Y-182471370D02*
X216927258Y-181270000D01*
X216927258Y-181270000D02*
X208030000Y-181270000D01*
X208030000Y-181270000D02*
X208020000Y-181260000D01*
D62*
%TO.N,IO5*%
X220179238Y-184521980D02*
X223197258Y-187540000D01*
X223197258Y-187540000D02*
X227460000Y-187540000D01*
%TO.N,IO6*%
X222982943Y-186760000D02*
X220462081Y-184239138D01*
X222982943Y-186760000D02*
X224960000Y-186760000D01*
D57*
%TO.N,Net-(U1-OD)*%
X209987500Y-255367500D02*
X209740000Y-255120000D01*
X208555000Y-255120000D02*
X208190000Y-255485000D01*
X208190000Y-257085000D02*
X207625000Y-257650000D01*
X207625000Y-257650000D02*
X207000000Y-257650000D01*
X209740000Y-255120000D02*
X208555000Y-255120000D01*
X208190000Y-255485000D02*
X208190000Y-257085000D01*
X209987500Y-255675000D02*
X209987500Y-255367500D01*
%TO.N,Net-(U1-OC)*%
X207000000Y-255200000D02*
X207550000Y-254650000D01*
X207000000Y-255750000D02*
X207000000Y-255200000D01*
X214212500Y-255222500D02*
X214212500Y-255675000D01*
X207550000Y-254650000D02*
X213640000Y-254650000D01*
X213640000Y-254650000D02*
X214212500Y-255222500D01*
%TD*%
%TA.AperFunction,Conductor*%
%TO.N,+BATT*%
G36*
X217325000Y-244475000D02*
G01*
X217325000Y-251050000D01*
X216524999Y-251048347D01*
X213906578Y-251042938D01*
X213897000Y-251042918D01*
X212279012Y-251039576D01*
X212266875Y-251038955D01*
X212110169Y-251023214D01*
X212090270Y-251021215D01*
X212066473Y-251016437D01*
X211990678Y-250993306D01*
X211902549Y-250966411D01*
X211880136Y-250957086D01*
X211729106Y-250876083D01*
X211708939Y-250862570D01*
X211576583Y-250753692D01*
X211559433Y-250736508D01*
X211450827Y-250603926D01*
X211437356Y-250583731D01*
X211356660Y-250432526D01*
X211347388Y-250410108D01*
X211305824Y-250272897D01*
X211300499Y-250236948D01*
X211300499Y-250071816D01*
X211300498Y-250071801D01*
X211297597Y-250034939D01*
X211297597Y-250034934D01*
X211279923Y-249974099D01*
X211274999Y-249939504D01*
X211274999Y-249685500D01*
X211279922Y-249650907D01*
X211297597Y-249590072D01*
X211300499Y-249553197D01*
X211300499Y-249202584D01*
X211300608Y-249201845D01*
X211300504Y-249201478D01*
X211305838Y-249166590D01*
X211317794Y-249127175D01*
X211356091Y-249068736D01*
X211419903Y-249040279D01*
X211488970Y-249050838D01*
X211499576Y-249056437D01*
X211639601Y-249139247D01*
X211681223Y-249151339D01*
X211797425Y-249185100D01*
X211797428Y-249185100D01*
X211797430Y-249185101D01*
X211834305Y-249188003D01*
X211834313Y-249188003D01*
X212990685Y-249188003D01*
X212990693Y-249188003D01*
X213027568Y-249185101D01*
X213027570Y-249185100D01*
X213027572Y-249185100D01*
X213069190Y-249173008D01*
X213185397Y-249139247D01*
X213326864Y-249055584D01*
X213443080Y-248939368D01*
X213526743Y-248797901D01*
X213572597Y-248640072D01*
X213575499Y-248603197D01*
X213575499Y-248171809D01*
X213572597Y-248134934D01*
X213526743Y-247977105D01*
X213516546Y-247959864D01*
X213467268Y-247876536D01*
X213450000Y-247813416D01*
X213450000Y-245550000D01*
X212450000Y-245550000D01*
X212031093Y-245550000D01*
X212018939Y-245549403D01*
X211842065Y-245531982D01*
X211818224Y-245527240D01*
X211654001Y-245477424D01*
X211631543Y-245468121D01*
X211480201Y-245387227D01*
X211459989Y-245373722D01*
X211327333Y-245264854D01*
X211310145Y-245247666D01*
X211201277Y-245115010D01*
X211187772Y-245094798D01*
X211106878Y-244943456D01*
X211097575Y-244920998D01*
X211047757Y-244756769D01*
X211043018Y-244732941D01*
X211025597Y-244556061D01*
X211025000Y-244543907D01*
X211025000Y-242256092D01*
X211025597Y-242243938D01*
X211043018Y-242067056D01*
X211047757Y-242043232D01*
X211097577Y-241878994D01*
X211106875Y-241856549D01*
X211187775Y-241705195D01*
X211201272Y-241684995D01*
X211310149Y-241552328D01*
X211327328Y-241535149D01*
X211459995Y-241426272D01*
X211480195Y-241412775D01*
X211631549Y-241331875D01*
X211653994Y-241322577D01*
X211818232Y-241272757D01*
X211842056Y-241268018D01*
X212018939Y-241250597D01*
X212031093Y-241250000D01*
X217325000Y-241250000D01*
X217325000Y-244475000D01*
G37*
%TD.AperFunction*%
%TD*%
%TA.AperFunction,Conductor*%
%TO.N,VCC*%
G36*
X215735124Y-260177383D02*
G01*
X215775929Y-260185500D01*
X215775931Y-260185500D01*
X216159484Y-260185500D01*
X216222605Y-260202768D01*
X216283167Y-260238583D01*
X216364602Y-260286744D01*
X216406224Y-260298836D01*
X216522426Y-260332597D01*
X216522429Y-260332597D01*
X216522431Y-260332598D01*
X216559306Y-260335500D01*
X218095501Y-260335500D01*
X218162540Y-260355185D01*
X218208295Y-260407989D01*
X218219501Y-260459500D01*
X218219501Y-260597876D01*
X218225908Y-260657483D01*
X218276202Y-260792328D01*
X218276206Y-260792335D01*
X218362452Y-260907544D01*
X218362455Y-260907547D01*
X218477664Y-260993793D01*
X218477671Y-260993797D01*
X218594333Y-261037309D01*
X218650267Y-261079180D01*
X218674684Y-261144644D01*
X218675000Y-261153491D01*
X218675000Y-262701000D01*
X218655315Y-262768039D01*
X218602511Y-262813794D01*
X218551000Y-262825000D01*
X217300000Y-262825000D01*
X217300000Y-263627980D01*
X217280315Y-263695019D01*
X217263681Y-263715661D01*
X217244531Y-263734810D01*
X217244530Y-263734811D01*
X217156522Y-263880393D01*
X217105913Y-264042807D01*
X217105843Y-264043580D01*
X217099500Y-264113384D01*
X217099500Y-265026616D01*
X217101552Y-265049192D01*
X217105914Y-265097198D01*
X217107135Y-265101116D01*
X217107174Y-265103534D01*
X217107194Y-265103631D01*
X217107176Y-265103634D01*
X217107585Y-265128518D01*
X217111486Y-265155647D01*
X217108151Y-265162949D01*
X217108283Y-265170976D01*
X217093846Y-265194272D01*
X217082461Y-265219203D01*
X217075707Y-265223543D01*
X217071479Y-265230367D01*
X217046739Y-265242159D01*
X217023683Y-265256977D01*
X217012186Y-265258630D01*
X217008408Y-265260431D01*
X216988748Y-265262000D01*
X216813308Y-265262000D01*
X216746269Y-265242315D01*
X216725627Y-265225681D01*
X216636819Y-265136873D01*
X216603334Y-265075550D01*
X216600500Y-265049192D01*
X216600500Y-264090408D01*
X216600500Y-264090406D01*
X216594315Y-264022343D01*
X216545512Y-263865730D01*
X216545511Y-263865727D01*
X216460651Y-263725351D01*
X216460648Y-263725347D01*
X216344652Y-263609351D01*
X216344648Y-263609348D01*
X216204272Y-263524488D01*
X216204263Y-263524485D01*
X216047664Y-263475687D01*
X216047662Y-263475686D01*
X216047657Y-263475685D01*
X215979594Y-263469500D01*
X215520406Y-263469500D01*
X215452343Y-263475685D01*
X215452341Y-263475685D01*
X215452338Y-263475686D01*
X215288570Y-263526719D01*
X215287720Y-263523991D01*
X215231639Y-263531722D01*
X215211695Y-263525866D01*
X215211430Y-263526719D01*
X215047661Y-263475686D01*
X215047659Y-263475685D01*
X215047657Y-263475685D01*
X214979594Y-263469500D01*
X214520406Y-263469500D01*
X214452343Y-263475685D01*
X214452339Y-263475686D01*
X214452335Y-263475687D01*
X214295736Y-263524485D01*
X214295732Y-263524486D01*
X214293450Y-263525866D01*
X214253528Y-263550000D01*
X214175000Y-263550000D01*
X214175000Y-263597471D01*
X214155347Y-263609352D01*
X214130067Y-263634631D01*
X214130064Y-263634634D01*
X214039348Y-263725351D01*
X213954488Y-263865727D01*
X213954485Y-263865736D01*
X213905687Y-264022335D01*
X213905685Y-264022343D01*
X213903826Y-264042807D01*
X213899500Y-264090408D01*
X213899500Y-265049190D01*
X213890855Y-265078629D01*
X213884333Y-265108615D01*
X213880577Y-265113631D01*
X213879815Y-265116229D01*
X213863182Y-265136870D01*
X213824373Y-265175680D01*
X213763051Y-265209166D01*
X213736691Y-265212000D01*
X213519432Y-265212000D01*
X213452393Y-265192315D01*
X213406638Y-265139511D01*
X213395941Y-265076779D01*
X213400500Y-265026616D01*
X213400500Y-264113384D01*
X213394086Y-264042804D01*
X213343478Y-263880394D01*
X213255472Y-263734815D01*
X213255470Y-263734813D01*
X213255469Y-263734811D01*
X213211319Y-263690661D01*
X213177834Y-263629338D01*
X213175000Y-263602980D01*
X213175000Y-260299000D01*
X213194685Y-260231961D01*
X213247489Y-260186206D01*
X213299000Y-260175000D01*
X215710932Y-260175000D01*
X215735124Y-260177383D01*
G37*
%TD.AperFunction*%
%TD*%
%TA.AperFunction,Conductor*%
%TO.N,+BATT*%
G36*
X217978182Y-241250418D02*
G01*
X218136839Y-241271306D01*
X218149192Y-241274616D01*
X218294040Y-241334614D01*
X218305114Y-241341007D01*
X218388476Y-241404974D01*
X218429501Y-241436454D01*
X218438545Y-241445498D01*
X218533990Y-241569882D01*
X218540386Y-241580961D01*
X218600382Y-241725806D01*
X218603693Y-241738161D01*
X218624581Y-241896817D01*
X218625000Y-241903213D01*
X218625000Y-256572593D01*
X218624764Y-256577396D01*
X218609974Y-256727549D01*
X218592295Y-256760624D01*
X218578334Y-256768656D01*
X218477671Y-256806202D01*
X218477667Y-256806204D01*
X218362454Y-256892454D01*
X218276205Y-257007666D01*
X218225907Y-257142520D01*
X218219500Y-257202120D01*
X218219500Y-257351345D01*
X218218522Y-257353704D01*
X218219264Y-257356148D01*
X218211472Y-257370725D01*
X218205148Y-257385993D01*
X218201585Y-257389223D01*
X218184298Y-257403410D01*
X218176312Y-257408745D01*
X218082827Y-257458714D01*
X218059730Y-257464500D01*
X216559303Y-257464500D01*
X216522435Y-257467401D01*
X216522430Y-257467402D01*
X216516322Y-257469176D01*
X216479559Y-257465334D01*
X216373688Y-257408746D01*
X216365701Y-257403409D01*
X216221624Y-257285167D01*
X216214832Y-257278375D01*
X216096591Y-257134299D01*
X216091255Y-257126314D01*
X216088778Y-257121681D01*
X216085105Y-257084359D01*
X216091250Y-257071367D01*
X216099394Y-257059179D01*
X216159737Y-256913497D01*
X216190500Y-256758842D01*
X216190500Y-256601158D01*
X216186642Y-256581762D01*
X216159739Y-256446512D01*
X216159736Y-256446501D01*
X216099395Y-256300824D01*
X216099394Y-256300821D01*
X216011789Y-256169711D01*
X215939352Y-256097274D01*
X215925000Y-256062626D01*
X215925000Y-255579823D01*
X215925939Y-255570274D01*
X215945935Y-255469750D01*
X215953250Y-255452092D01*
X216007453Y-255370972D01*
X216020972Y-255357453D01*
X216102092Y-255303250D01*
X216119750Y-255295935D01*
X216220274Y-255275939D01*
X216229823Y-255275000D01*
X216525000Y-255275000D01*
X216525000Y-253680204D01*
X216532294Y-253654482D01*
X216584814Y-253569334D01*
X216639999Y-253402797D01*
X216650500Y-253300009D01*
X216650499Y-252374992D01*
X216646667Y-252337483D01*
X216639999Y-252272205D01*
X216639999Y-252272203D01*
X216584814Y-252105666D01*
X216584811Y-252105661D01*
X216532295Y-252020517D01*
X216525000Y-251994794D01*
X216525000Y-251048347D01*
X216525000Y-248100000D01*
X213562448Y-248100000D01*
X213526742Y-247977103D01*
X213456824Y-247858877D01*
X213450000Y-247833934D01*
X213450000Y-245550000D01*
X213450000Y-241250000D01*
X217971787Y-241250000D01*
X217978182Y-241250418D01*
G37*
%TD.AperFunction*%
%TD*%
%TA.AperFunction,Conductor*%
%TO.N,-BATT*%
G36*
X219254126Y-39050965D02*
G01*
X219264606Y-39052145D01*
X219352875Y-39062091D01*
X219369014Y-39065775D01*
X219458852Y-39097211D01*
X219473781Y-39104400D01*
X219554372Y-39155038D01*
X219567328Y-39165370D01*
X219634629Y-39232671D01*
X219644961Y-39245627D01*
X219695599Y-39326217D01*
X219702788Y-39341146D01*
X219734222Y-39430978D01*
X219737910Y-39447134D01*
X219749034Y-39545868D01*
X219749036Y-39545879D01*
X219749501Y-39554164D01*
X219749501Y-41115894D01*
X219783607Y-41243181D01*
X219783608Y-41243184D01*
X219783609Y-41243186D01*
X219849501Y-41357314D01*
X219942687Y-41450500D01*
X220056815Y-41516392D01*
X220184106Y-41550499D01*
X220184107Y-41550500D01*
X220184111Y-41550500D01*
X229184107Y-41550502D01*
X229184108Y-41550503D01*
X229245843Y-41550503D01*
X229254126Y-41550968D01*
X229264292Y-41552113D01*
X229352873Y-41562094D01*
X229369013Y-41565778D01*
X229458845Y-41597212D01*
X229458851Y-41597214D01*
X229473780Y-41604403D01*
X229522255Y-41634861D01*
X229554367Y-41655039D01*
X229554371Y-41655041D01*
X229567327Y-41665373D01*
X229634627Y-41732673D01*
X229644959Y-41745629D01*
X229695596Y-41826218D01*
X229702785Y-41841147D01*
X229734219Y-41930979D01*
X229737907Y-41947134D01*
X229749037Y-42045913D01*
X229749502Y-42054199D01*
X229749502Y-270984107D01*
X229749501Y-274984107D01*
X229749501Y-275045840D01*
X229749036Y-275054126D01*
X229737910Y-275152869D01*
X229734222Y-275169024D01*
X229702789Y-275258852D01*
X229695600Y-275273781D01*
X229644962Y-275354373D01*
X229634630Y-275367329D01*
X229567328Y-275434630D01*
X229554373Y-275444961D01*
X229473784Y-275495599D01*
X229458854Y-275502789D01*
X229393762Y-275525565D01*
X229369022Y-275534222D01*
X229352868Y-275537910D01*
X229254126Y-275549035D01*
X229245841Y-275549500D01*
X221315892Y-275549499D01*
X221254158Y-275549499D01*
X221245873Y-275549034D01*
X221147134Y-275537909D01*
X221130978Y-275534221D01*
X221041146Y-275502787D01*
X221026219Y-275495599D01*
X220945628Y-275444961D01*
X220932672Y-275434629D01*
X220865371Y-275367327D01*
X220855041Y-275354373D01*
X220804402Y-275273782D01*
X220797214Y-275258856D01*
X220797213Y-275258852D01*
X220765777Y-275169016D01*
X220762092Y-275152872D01*
X220750964Y-275054119D01*
X220750500Y-275045835D01*
X220750500Y-274984109D01*
X220750500Y-274984107D01*
X220750502Y-270984107D01*
X220716394Y-270856813D01*
X220650502Y-270742685D01*
X220557316Y-270649499D01*
X220443195Y-270583611D01*
X220443192Y-270583609D01*
X220443183Y-270583605D01*
X220315896Y-270549499D01*
X220315894Y-270549499D01*
X220184110Y-270549499D01*
X220184109Y-270549499D01*
X210184108Y-270549500D01*
X210184107Y-270549501D01*
X210056820Y-270583607D01*
X210056811Y-270583611D01*
X209942687Y-270649501D01*
X209849502Y-270742686D01*
X209783612Y-270856810D01*
X209783608Y-270856819D01*
X209749502Y-270984106D01*
X209749502Y-275045841D01*
X209749037Y-275054126D01*
X209749037Y-275054127D01*
X209737911Y-275152869D01*
X209734223Y-275169024D01*
X209702790Y-275258854D01*
X209695600Y-275273784D01*
X209644962Y-275354373D01*
X209634631Y-275367328D01*
X209567330Y-275434630D01*
X209554375Y-275444961D01*
X209554374Y-275444962D01*
X209473784Y-275495600D01*
X209458855Y-275502789D01*
X209369023Y-275534223D01*
X209352868Y-275537911D01*
X209254154Y-275549034D01*
X209245868Y-275549499D01*
X201254156Y-275549499D01*
X201245872Y-275549034D01*
X201147133Y-275537910D01*
X201130980Y-275534223D01*
X201041146Y-275502789D01*
X201026217Y-275495600D01*
X200945626Y-275444962D01*
X200932670Y-275434630D01*
X200865369Y-275367329D01*
X200855037Y-275354373D01*
X200804399Y-275273782D01*
X200797211Y-275258856D01*
X200765774Y-275169013D01*
X200762090Y-275152875D01*
X200750965Y-275054143D01*
X200750500Y-275045857D01*
X200750500Y-267598252D01*
X201849502Y-267598252D01*
X201849502Y-268101745D01*
X201865051Y-268199919D01*
X201925342Y-268318248D01*
X202019252Y-268412158D01*
X202078416Y-268442303D01*
X202137581Y-268472449D01*
X202137581Y-268472450D01*
X202235755Y-268487999D01*
X202235756Y-268487999D01*
X202814249Y-268487999D01*
X202912422Y-268472450D01*
X203030753Y-268412157D01*
X203124660Y-268318250D01*
X203184953Y-268199919D01*
X203200502Y-268101745D01*
X203200502Y-267598253D01*
X203184953Y-267500079D01*
X203124660Y-267381748D01*
X203030753Y-267287841D01*
X202915908Y-267229324D01*
X202879126Y-267186257D01*
X202875504Y-267163390D01*
X202875504Y-265762251D01*
X202897178Y-265709925D01*
X202925060Y-265692405D01*
X202984475Y-265671615D01*
X203090711Y-265593210D01*
X203169116Y-265486974D01*
X203212725Y-265362348D01*
X203215500Y-265332755D01*
X203215500Y-264727243D01*
X203215500Y-264727240D01*
X204874499Y-264727240D01*
X204874499Y-265332752D01*
X204877274Y-265362345D01*
X204877274Y-265362347D01*
X204877275Y-265362350D01*
X204920881Y-265486969D01*
X204952751Y-265530151D01*
X204999288Y-265593207D01*
X205105524Y-265671612D01*
X205149939Y-265687153D01*
X205192170Y-265724891D01*
X205199499Y-265757000D01*
X205199499Y-267196509D01*
X205177825Y-267248835D01*
X205159095Y-267262443D01*
X205109248Y-267287841D01*
X205015340Y-267381749D01*
X204955049Y-267500078D01*
X204955048Y-267500078D01*
X204939500Y-267598252D01*
X204939500Y-268101745D01*
X204955049Y-268199919D01*
X205015340Y-268318248D01*
X205109250Y-268412158D01*
X205168414Y-268442303D01*
X205227579Y-268472449D01*
X205227579Y-268472450D01*
X205325753Y-268487999D01*
X205325754Y-268487999D01*
X205904247Y-268487999D01*
X206002420Y-268472450D01*
X206120751Y-268412157D01*
X206214658Y-268318250D01*
X206274951Y-268199919D01*
X206290500Y-268101745D01*
X206290500Y-267598253D01*
X206274951Y-267500079D01*
X206214658Y-267381748D01*
X206120751Y-267287841D01*
X206120749Y-267287839D01*
X206002420Y-267227548D01*
X205962922Y-267221292D01*
X205914631Y-267191699D01*
X205900499Y-267148203D01*
X205900499Y-265757000D01*
X205922173Y-265704674D01*
X205950056Y-265687154D01*
X205994474Y-265671612D01*
X206100710Y-265593207D01*
X206179115Y-265486971D01*
X206184864Y-265470543D01*
X206219482Y-265371609D01*
X206222724Y-265362345D01*
X206225499Y-265332752D01*
X206225499Y-264727240D01*
X206222724Y-264697647D01*
X206222722Y-264697641D01*
X206179116Y-264573022D01*
X206158575Y-264545191D01*
X206100710Y-264466785D01*
X206050134Y-264429458D01*
X205994472Y-264388378D01*
X205869853Y-264344772D01*
X205869854Y-264344772D01*
X205869849Y-264344771D01*
X205869848Y-264344771D01*
X205840255Y-264341996D01*
X205259743Y-264341996D01*
X205230150Y-264344771D01*
X205230148Y-264344771D01*
X205230144Y-264344772D01*
X205105525Y-264388378D01*
X204999289Y-264466784D01*
X204999287Y-264466786D01*
X204920881Y-264573022D01*
X204877275Y-264697641D01*
X204877275Y-264697644D01*
X204877274Y-264697647D01*
X204874499Y-264727240D01*
X203215500Y-264727240D01*
X203212725Y-264697650D01*
X203212722Y-264697641D01*
X203169117Y-264573025D01*
X203148576Y-264545194D01*
X203090711Y-264466788D01*
X203040135Y-264429461D01*
X202984473Y-264388381D01*
X202859854Y-264344775D01*
X202859855Y-264344775D01*
X202859850Y-264344774D01*
X202859849Y-264344774D01*
X202830256Y-264341999D01*
X202249744Y-264341999D01*
X202220151Y-264344774D01*
X202220149Y-264344774D01*
X202220145Y-264344775D01*
X202095526Y-264388381D01*
X201989290Y-264466787D01*
X201989288Y-264466789D01*
X201910882Y-264573025D01*
X201867276Y-264697644D01*
X201867276Y-264697647D01*
X201867275Y-264697650D01*
X201864500Y-264727243D01*
X201864500Y-265332755D01*
X201867275Y-265362348D01*
X201867275Y-265362350D01*
X201867276Y-265362353D01*
X201910882Y-265486972D01*
X201928530Y-265510884D01*
X201989289Y-265593210D01*
X202095525Y-265671615D01*
X202124944Y-265681909D01*
X202167175Y-265719647D01*
X202174504Y-265751756D01*
X202174504Y-267163388D01*
X202152830Y-267215714D01*
X202134100Y-267229322D01*
X202019250Y-267287841D01*
X201925342Y-267381749D01*
X201865051Y-267500078D01*
X201865050Y-267500078D01*
X201849502Y-267598252D01*
X200750500Y-267598252D01*
X200750500Y-262902243D01*
X201864500Y-262902243D01*
X201864500Y-263507755D01*
X201867275Y-263537348D01*
X201867275Y-263537350D01*
X201867276Y-263537353D01*
X201910882Y-263661971D01*
X201910883Y-263661973D01*
X201910884Y-263661974D01*
X201989289Y-263768210D01*
X202067695Y-263826075D01*
X202095526Y-263846616D01*
X202220145Y-263890222D01*
X202220151Y-263890224D01*
X202249744Y-263892999D01*
X202249751Y-263892999D01*
X202830249Y-263892999D01*
X202830256Y-263892999D01*
X202859849Y-263890224D01*
X202916532Y-263870389D01*
X202984473Y-263846616D01*
X202984473Y-263846615D01*
X202984475Y-263846615D01*
X203090711Y-263768210D01*
X203169116Y-263661974D01*
X203169117Y-263661971D01*
X203169118Y-263661971D01*
X203189032Y-263605059D01*
X203226771Y-263562827D01*
X203258879Y-263555499D01*
X203416147Y-263555499D01*
X203416147Y-263555498D01*
X203505289Y-263531613D01*
X203546612Y-263507755D01*
X203585213Y-263485469D01*
X203898508Y-263172174D01*
X203950834Y-263150500D01*
X203990894Y-263150500D01*
X203990894Y-263150499D01*
X204118186Y-263116392D01*
X204232314Y-263050500D01*
X204325500Y-262957314D01*
X204357297Y-262902240D01*
X204874499Y-262902240D01*
X204874499Y-263507752D01*
X204877274Y-263537345D01*
X204877274Y-263537347D01*
X204877275Y-263537350D01*
X204920881Y-263661969D01*
X204961961Y-263717631D01*
X204999288Y-263768207D01*
X205077694Y-263826072D01*
X205105525Y-263846613D01*
X205230144Y-263890219D01*
X205230150Y-263890221D01*
X205259743Y-263892996D01*
X205259750Y-263892996D01*
X205840248Y-263892996D01*
X205840255Y-263892996D01*
X205869848Y-263890221D01*
X205994463Y-263846616D01*
X205994472Y-263846613D01*
X205994472Y-263846612D01*
X205994474Y-263846612D01*
X206100710Y-263768207D01*
X206179115Y-263661971D01*
X206206065Y-263584951D01*
X206243802Y-263542722D01*
X206256753Y-263537916D01*
X206280292Y-263531610D01*
X206360216Y-263485466D01*
X206623508Y-263222174D01*
X206675834Y-263200500D01*
X206715894Y-263200500D01*
X206715894Y-263200499D01*
X206843186Y-263166392D01*
X206957314Y-263100500D01*
X207050500Y-263007314D01*
X207116392Y-262893186D01*
X207150499Y-262765894D01*
X207150500Y-262765894D01*
X207150500Y-262634106D01*
X207150499Y-262634105D01*
X207146201Y-262618066D01*
X207116392Y-262506814D01*
X207050500Y-262392686D01*
X206957314Y-262299500D01*
X206870712Y-262249500D01*
X206843190Y-262233610D01*
X206843181Y-262233606D01*
X206715894Y-262199500D01*
X206715892Y-262199500D01*
X206584108Y-262199500D01*
X206584106Y-262199500D01*
X206456818Y-262233606D01*
X206456809Y-262233610D01*
X206342685Y-262299500D01*
X206249500Y-262392685D01*
X206183610Y-262506809D01*
X206183606Y-262506818D01*
X206167818Y-262565741D01*
X206133340Y-262610674D01*
X206077187Y-262618066D01*
X206052398Y-262606129D01*
X205994472Y-262563378D01*
X205869853Y-262519772D01*
X205869854Y-262519772D01*
X205869849Y-262519771D01*
X205869848Y-262519771D01*
X205840255Y-262516996D01*
X205259743Y-262516996D01*
X205230150Y-262519771D01*
X205230148Y-262519771D01*
X205230144Y-262519772D01*
X205105525Y-262563378D01*
X204999289Y-262641784D01*
X204999287Y-262641786D01*
X204920881Y-262748022D01*
X204877275Y-262872641D01*
X204877275Y-262872644D01*
X204877274Y-262872647D01*
X204874499Y-262902240D01*
X204357297Y-262902240D01*
X204391392Y-262843186D01*
X204425499Y-262715894D01*
X204425500Y-262715894D01*
X204425500Y-262584106D01*
X204425499Y-262584105D01*
X204420578Y-262565741D01*
X204391392Y-262456814D01*
X204325500Y-262342686D01*
X204232314Y-262249500D01*
X204145712Y-262199500D01*
X204118190Y-262183610D01*
X204118181Y-262183606D01*
X203990894Y-262149500D01*
X203990892Y-262149500D01*
X203859108Y-262149500D01*
X203859106Y-262149500D01*
X203731818Y-262183606D01*
X203731809Y-262183610D01*
X203617685Y-262249500D01*
X203524500Y-262342685D01*
X203458610Y-262456809D01*
X203458606Y-262456818D01*
X203424500Y-262584105D01*
X203424500Y-262624166D01*
X203402826Y-262676492D01*
X203294431Y-262784886D01*
X203242105Y-262806560D01*
X203189779Y-262784886D01*
X203172258Y-262757002D01*
X203169116Y-262748024D01*
X203145402Y-262715892D01*
X203090711Y-262641788D01*
X203012553Y-262584105D01*
X202984473Y-262563381D01*
X202859854Y-262519775D01*
X202859855Y-262519775D01*
X202859850Y-262519774D01*
X202859849Y-262519774D01*
X202830256Y-262516999D01*
X202249744Y-262516999D01*
X202220151Y-262519774D01*
X202220149Y-262519774D01*
X202220145Y-262519775D01*
X202095526Y-262563381D01*
X201989290Y-262641787D01*
X201989288Y-262641789D01*
X201910882Y-262748025D01*
X201867276Y-262872644D01*
X201867276Y-262872647D01*
X201867275Y-262872650D01*
X201864500Y-262902243D01*
X200750500Y-262902243D01*
X200750500Y-255145737D01*
X201661999Y-255145737D01*
X201661999Y-255954269D01*
X201664853Y-255984702D01*
X201664853Y-255984704D01*
X201664854Y-255984707D01*
X201709705Y-256112884D01*
X201709706Y-256112886D01*
X201790345Y-256222149D01*
X201790352Y-256222156D01*
X201899615Y-256302795D01*
X201899617Y-256302796D01*
X202027794Y-256347647D01*
X202027800Y-256347649D01*
X202058233Y-256350503D01*
X202058240Y-256350503D01*
X203016954Y-256350503D01*
X203069280Y-256372177D01*
X203090954Y-256424503D01*
X203069280Y-256476829D01*
X202818281Y-256727829D01*
X202765955Y-256749503D01*
X202058233Y-256749503D01*
X202027800Y-256752357D01*
X202027798Y-256752357D01*
X202027794Y-256752358D01*
X201899617Y-256797209D01*
X201899615Y-256797210D01*
X201790352Y-256877849D01*
X201790345Y-256877856D01*
X201709706Y-256987119D01*
X201709705Y-256987121D01*
X201664854Y-257115298D01*
X201664853Y-257115302D01*
X201664853Y-257115304D01*
X201661999Y-257145737D01*
X201661999Y-257954269D01*
X201664853Y-257984702D01*
X201664853Y-257984704D01*
X201664854Y-257984707D01*
X201709705Y-258112884D01*
X201709706Y-258112886D01*
X201790345Y-258222149D01*
X201790352Y-258222156D01*
X201899615Y-258302795D01*
X201899614Y-258302795D01*
X201899617Y-258302796D01*
X201949941Y-258320404D01*
X201992171Y-258358142D01*
X201999500Y-258390251D01*
X201999500Y-258940647D01*
X201977826Y-258992973D01*
X201969443Y-259000187D01*
X201936791Y-259024285D01*
X201936790Y-259024286D01*
X201858382Y-259130524D01*
X201814776Y-259255143D01*
X201814775Y-259255147D01*
X201814775Y-259255149D01*
X201812000Y-259284742D01*
X201812000Y-259865254D01*
X201814775Y-259894847D01*
X201814775Y-259894849D01*
X201814776Y-259894852D01*
X201858382Y-260019471D01*
X201870212Y-260035500D01*
X201936789Y-260125709D01*
X201978624Y-260156584D01*
X202043026Y-260204115D01*
X202167645Y-260247721D01*
X202167651Y-260247723D01*
X202197244Y-260250498D01*
X202197251Y-260250498D01*
X202902749Y-260250498D01*
X202902756Y-260250498D01*
X202932349Y-260247723D01*
X202989032Y-260227888D01*
X203056973Y-260204115D01*
X203056973Y-260204114D01*
X203056975Y-260204114D01*
X203163211Y-260125709D01*
X203241616Y-260019473D01*
X203257851Y-259973078D01*
X203278008Y-259915471D01*
X203285225Y-259894847D01*
X203288000Y-259865254D01*
X203288000Y-259284742D01*
X203285225Y-259255149D01*
X203285223Y-259255143D01*
X203241617Y-259130524D01*
X203215990Y-259095801D01*
X203163211Y-259024287D01*
X203137791Y-259005526D01*
X203130557Y-259000187D01*
X203101326Y-258951676D01*
X203100500Y-258940647D01*
X203100500Y-258398998D01*
X203122174Y-258346672D01*
X203150056Y-258329152D01*
X203225381Y-258302796D01*
X203334649Y-258222153D01*
X203415292Y-258112885D01*
X203460145Y-257984702D01*
X203462999Y-257954269D01*
X203462999Y-257246547D01*
X203484673Y-257194221D01*
X203556720Y-257122174D01*
X203609046Y-257100500D01*
X204020261Y-257100500D01*
X204050150Y-257106804D01*
X204142509Y-257147585D01*
X204167635Y-257150500D01*
X205282364Y-257150499D01*
X205307491Y-257147585D01*
X205345609Y-257130753D01*
X205402231Y-257129445D01*
X205443194Y-257168557D01*
X205449500Y-257198448D01*
X205449500Y-259096146D01*
X205458711Y-259130521D01*
X205458711Y-259130522D01*
X205473384Y-259185283D01*
X205473386Y-259185288D01*
X205519530Y-259265212D01*
X205997288Y-259742970D01*
X206053637Y-259775503D01*
X206077212Y-259789114D01*
X206077213Y-259789114D01*
X206077215Y-259789115D01*
X206098615Y-259794849D01*
X206166353Y-259812999D01*
X206166354Y-259813000D01*
X206166356Y-259813000D01*
X207168621Y-259813000D01*
X207220947Y-259834674D01*
X207238468Y-259862560D01*
X207258382Y-259919472D01*
X207258383Y-259919473D01*
X207258384Y-259919475D01*
X207336789Y-260025711D01*
X207406226Y-260076957D01*
X207443026Y-260104117D01*
X207567645Y-260147723D01*
X207567651Y-260147725D01*
X207597244Y-260150500D01*
X207597251Y-260150500D01*
X208177749Y-260150500D01*
X208177756Y-260150500D01*
X208207349Y-260147725D01*
X208264032Y-260127890D01*
X208331973Y-260104117D01*
X208331973Y-260104116D01*
X208331975Y-260104116D01*
X208438211Y-260025711D01*
X208516616Y-259919475D01*
X208520921Y-259907174D01*
X208546289Y-259834674D01*
X208560225Y-259794849D01*
X208563000Y-259765256D01*
X208563000Y-259159744D01*
X208560225Y-259130151D01*
X208553874Y-259112000D01*
X208516617Y-259005526D01*
X208474447Y-258948388D01*
X208438211Y-258899289D01*
X208334402Y-258822675D01*
X208331973Y-258820882D01*
X208207354Y-258777276D01*
X208207355Y-258777276D01*
X208207350Y-258777275D01*
X208207349Y-258777275D01*
X208177756Y-258774500D01*
X207597244Y-258774500D01*
X207567651Y-258777275D01*
X207567649Y-258777275D01*
X207567645Y-258777276D01*
X207443026Y-258820882D01*
X207336790Y-258899288D01*
X207336788Y-258899290D01*
X207258382Y-259005527D01*
X207238468Y-259062440D01*
X207200729Y-259104672D01*
X207168621Y-259112000D01*
X206388334Y-259112000D01*
X206336008Y-259090326D01*
X206172174Y-258926492D01*
X206150500Y-258874166D01*
X206150500Y-258066623D01*
X206172174Y-258014297D01*
X206224500Y-257992623D01*
X206276826Y-258014297D01*
X206314735Y-258052206D01*
X206417509Y-258097585D01*
X206442635Y-258100500D01*
X207557364Y-258100499D01*
X207582491Y-258097585D01*
X207685265Y-258052206D01*
X207764706Y-257972765D01*
X207789069Y-257917586D01*
X207806985Y-257894794D01*
X207806081Y-257893890D01*
X207865460Y-257834511D01*
X208065243Y-257634728D01*
X208219836Y-257480135D01*
X208999500Y-257480135D01*
X208999500Y-257769863D01*
X209002414Y-257794986D01*
X209002415Y-257794992D01*
X209024436Y-257844864D01*
X209047794Y-257897765D01*
X209127235Y-257977206D01*
X209230009Y-258022585D01*
X209255135Y-258025500D01*
X210719864Y-258025499D01*
X210744991Y-258022585D01*
X210847765Y-257977206D01*
X210927206Y-257897765D01*
X210972585Y-257794991D01*
X210975500Y-257769865D01*
X210975499Y-257480136D01*
X210972585Y-257455009D01*
X210927206Y-257352235D01*
X210847765Y-257272794D01*
X210744991Y-257227415D01*
X210744990Y-257227414D01*
X210744988Y-257227414D01*
X210722201Y-257224771D01*
X210719865Y-257224500D01*
X210719864Y-257224500D01*
X209255136Y-257224500D01*
X209230013Y-257227414D01*
X209230007Y-257227415D01*
X209127234Y-257272794D01*
X209047794Y-257352234D01*
X209002414Y-257455011D01*
X208999500Y-257480135D01*
X208219836Y-257480135D01*
X208430460Y-257269511D01*
X208470022Y-257200988D01*
X208490500Y-257124562D01*
X208490500Y-257045438D01*
X208490500Y-255640123D01*
X208512174Y-255587797D01*
X208657797Y-255442174D01*
X208710123Y-255420500D01*
X208929137Y-255420500D01*
X208981463Y-255442174D01*
X209003137Y-255494500D01*
X209002644Y-255503025D01*
X208999500Y-255530133D01*
X208999500Y-255819863D01*
X209002414Y-255844986D01*
X209002415Y-255844991D01*
X209047794Y-255947765D01*
X209127235Y-256027206D01*
X209230009Y-256072585D01*
X209255135Y-256075500D01*
X210719864Y-256075499D01*
X210744991Y-256072585D01*
X210847765Y-256027206D01*
X210927206Y-255947765D01*
X210972585Y-255844991D01*
X210975500Y-255819865D01*
X210975499Y-255730252D01*
X211149500Y-255730252D01*
X211149500Y-257569748D01*
X211154413Y-257594449D01*
X211161133Y-257628232D01*
X211171129Y-257643191D01*
X211205448Y-257694552D01*
X211239304Y-257717174D01*
X211271767Y-257738866D01*
X211271768Y-257738866D01*
X211271769Y-257738867D01*
X211330252Y-257750500D01*
X211330254Y-257750500D01*
X212869746Y-257750500D01*
X212869748Y-257750500D01*
X212928231Y-257738867D01*
X212994552Y-257694552D01*
X213038867Y-257628231D01*
X213050500Y-257569748D01*
X213050500Y-255730252D01*
X213038867Y-255671769D01*
X212994552Y-255605448D01*
X212956202Y-255579823D01*
X212928232Y-255561133D01*
X212928233Y-255561133D01*
X212898077Y-255555135D01*
X212869748Y-255549500D01*
X211330252Y-255549500D01*
X211301923Y-255555135D01*
X211271767Y-255561133D01*
X211205449Y-255605447D01*
X211205447Y-255605449D01*
X211161133Y-255671767D01*
X211161133Y-255671769D01*
X211149500Y-255730252D01*
X210975499Y-255730252D01*
X210975499Y-255671769D01*
X210975499Y-255530136D01*
X210975484Y-255530007D01*
X210972585Y-255505009D01*
X210927206Y-255402235D01*
X210847765Y-255322794D01*
X210744991Y-255277415D01*
X210744990Y-255277414D01*
X210744988Y-255277414D01*
X210719865Y-255274500D01*
X210323518Y-255274500D01*
X210271192Y-255252826D01*
X210259432Y-255237500D01*
X210227959Y-255182988D01*
X210121797Y-255076826D01*
X210100123Y-255024500D01*
X210121797Y-254972174D01*
X210174123Y-254950500D01*
X213484877Y-254950500D01*
X213537203Y-254972174D01*
X213713203Y-255148174D01*
X213734877Y-255200500D01*
X213713203Y-255252826D01*
X213660877Y-255274500D01*
X213480136Y-255274500D01*
X213455013Y-255277414D01*
X213455007Y-255277415D01*
X213352234Y-255322794D01*
X213272794Y-255402234D01*
X213227414Y-255505011D01*
X213224500Y-255530135D01*
X213224500Y-255819863D01*
X213227414Y-255844986D01*
X213227415Y-255844991D01*
X213272794Y-255947765D01*
X213352235Y-256027206D01*
X213455009Y-256072585D01*
X213480135Y-256075500D01*
X214944864Y-256075499D01*
X214969991Y-256072585D01*
X215072765Y-256027206D01*
X215152206Y-255947765D01*
X215197585Y-255844991D01*
X215200500Y-255819865D01*
X215200499Y-255530136D01*
X215197585Y-255505009D01*
X215152206Y-255402235D01*
X215072765Y-255322794D01*
X214969991Y-255277415D01*
X214969990Y-255277414D01*
X214969988Y-255277414D01*
X214944865Y-255274500D01*
X214587000Y-255274500D01*
X214534674Y-255252826D01*
X214513000Y-255200500D01*
X214513000Y-255182936D01*
X214512999Y-255182935D01*
X214492522Y-255106514D01*
X214492520Y-255106509D01*
X214479531Y-255084011D01*
X214452960Y-255037989D01*
X214397011Y-254982040D01*
X213824511Y-254409540D01*
X213755990Y-254369979D01*
X213755985Y-254369977D01*
X213679564Y-254349500D01*
X213679562Y-254349500D01*
X212213808Y-254349500D01*
X212161482Y-254327826D01*
X212139808Y-254275500D01*
X212161482Y-254223174D01*
X212176808Y-254211414D01*
X212181442Y-254208738D01*
X212213015Y-254190510D01*
X212853009Y-253550516D01*
X212925483Y-253424986D01*
X212935097Y-253389107D01*
X212962998Y-253284978D01*
X212962999Y-253284978D01*
X212962999Y-251620643D01*
X212984673Y-251568317D01*
X213036999Y-251546643D01*
X213037064Y-251546643D01*
X215945654Y-251552651D01*
X215997934Y-251574433D01*
X216019500Y-251626651D01*
X216019500Y-251994797D01*
X216038678Y-252132709D01*
X216038679Y-252132714D01*
X216045974Y-252158437D01*
X216102052Y-252285886D01*
X216113516Y-252304473D01*
X216119014Y-252313387D01*
X216126274Y-252328957D01*
X216140192Y-252370959D01*
X216143564Y-252386709D01*
X216144615Y-252396990D01*
X216144999Y-252404516D01*
X216144999Y-253270479D01*
X216144615Y-253278003D01*
X216143564Y-253288286D01*
X216140192Y-253304038D01*
X216126276Y-253346034D01*
X216119016Y-253361604D01*
X216102057Y-253389100D01*
X216102053Y-253389107D01*
X216086267Y-253424986D01*
X216045969Y-253516575D01*
X216045968Y-253516579D01*
X216038674Y-253542297D01*
X216019500Y-253680197D01*
X216019500Y-254745762D01*
X215997826Y-254798088D01*
X215966983Y-254816575D01*
X215926288Y-254828920D01*
X215908623Y-254836238D01*
X215908621Y-254836239D01*
X215821254Y-254882940D01*
X215821237Y-254882951D01*
X215740136Y-254937141D01*
X215740126Y-254937149D01*
X215663535Y-255000006D01*
X215650006Y-255013535D01*
X215587149Y-255090126D01*
X215587141Y-255090136D01*
X215532951Y-255171237D01*
X215532940Y-255171254D01*
X215486239Y-255258621D01*
X215486238Y-255258623D01*
X215478920Y-255276288D01*
X215450147Y-255371131D01*
X215433888Y-255452877D01*
X215430153Y-255471653D01*
X215422865Y-255520804D01*
X215422864Y-255520811D01*
X215421925Y-255530354D01*
X215421925Y-255530363D01*
X215419500Y-255579811D01*
X215419500Y-256062639D01*
X215422397Y-256116666D01*
X215422397Y-256116669D01*
X215457975Y-256256061D01*
X215457982Y-256256081D01*
X215472322Y-256290702D01*
X215472339Y-256290740D01*
X215495684Y-256339533D01*
X215581909Y-256454715D01*
X215613984Y-256486790D01*
X215623187Y-256498005D01*
X215647375Y-256534206D01*
X215654213Y-256546998D01*
X215670873Y-256587218D01*
X215675084Y-256601099D01*
X215683578Y-256643796D01*
X215685000Y-256658234D01*
X215685000Y-256701763D01*
X215683578Y-256716201D01*
X215675083Y-256758903D01*
X215670872Y-256772783D01*
X215645086Y-256835037D01*
X215641106Y-256843193D01*
X215634286Y-256855230D01*
X215628143Y-256868219D01*
X215628140Y-256868225D01*
X215588464Y-256990132D01*
X215582035Y-257133862D01*
X215582035Y-257133877D01*
X215585705Y-257171165D01*
X215585710Y-257171205D01*
X215593901Y-257224771D01*
X215642992Y-257360020D01*
X215645467Y-257364649D01*
X215670960Y-257407173D01*
X215670965Y-257407180D01*
X215676301Y-257415165D01*
X215676304Y-257415170D01*
X215705829Y-257454979D01*
X215824080Y-257599067D01*
X215824092Y-257599081D01*
X215857378Y-257635805D01*
X215864181Y-257642608D01*
X215900937Y-257675923D01*
X216031772Y-257783298D01*
X216058470Y-257833247D01*
X216042028Y-257887446D01*
X215992079Y-257914144D01*
X215984826Y-257914500D01*
X215713854Y-257914500D01*
X215624715Y-257938384D01*
X215624710Y-257938386D01*
X215544787Y-257984530D01*
X215426492Y-258102826D01*
X215374166Y-258124500D01*
X215312966Y-258124500D01*
X215260640Y-258102826D01*
X215232314Y-258074500D01*
X215153000Y-258028708D01*
X215118521Y-257983775D01*
X215125914Y-257927622D01*
X215137671Y-257912299D01*
X215152206Y-257897765D01*
X215197585Y-257794991D01*
X215200500Y-257769865D01*
X215200499Y-257480136D01*
X215197585Y-257455009D01*
X215152206Y-257352235D01*
X215072765Y-257272794D01*
X214969991Y-257227415D01*
X214969990Y-257227414D01*
X214969988Y-257227414D01*
X214947201Y-257224771D01*
X214944865Y-257224500D01*
X214944864Y-257224500D01*
X213480136Y-257224500D01*
X213455013Y-257227414D01*
X213455007Y-257227415D01*
X213352234Y-257272794D01*
X213272794Y-257352234D01*
X213227414Y-257455011D01*
X213224500Y-257480135D01*
X213224500Y-257769863D01*
X213227414Y-257794986D01*
X213227415Y-257794992D01*
X213249436Y-257844864D01*
X213272794Y-257897765D01*
X213352235Y-257977206D01*
X213455009Y-258022585D01*
X213480135Y-258025500D01*
X214488035Y-258025499D01*
X214540361Y-258047173D01*
X214562035Y-258099499D01*
X214540361Y-258151825D01*
X214524500Y-258167685D01*
X214458610Y-258281809D01*
X214458606Y-258281818D01*
X214424500Y-258409105D01*
X214424500Y-258540894D01*
X214458606Y-258668181D01*
X214458610Y-258668190D01*
X214524500Y-258782314D01*
X214564861Y-258822675D01*
X214586535Y-258875001D01*
X214564861Y-258927326D01*
X214524501Y-258967686D01*
X214458610Y-259081812D01*
X214458606Y-259081821D01*
X214424500Y-259209108D01*
X214424500Y-259340897D01*
X214458606Y-259468184D01*
X214458610Y-259468193D01*
X214510749Y-259558500D01*
X214518142Y-259614653D01*
X214483663Y-259659586D01*
X214446663Y-259669500D01*
X213298999Y-259669500D01*
X213191545Y-259681052D01*
X213140027Y-259692260D01*
X213140019Y-259692263D01*
X213037501Y-259726384D01*
X213037496Y-259726386D01*
X213037496Y-259726387D01*
X213016621Y-259739802D01*
X212916459Y-259804172D01*
X212863658Y-259849924D01*
X212863653Y-259849929D01*
X212769432Y-259958664D01*
X212709660Y-260089545D01*
X212709655Y-260089558D01*
X212689982Y-260156558D01*
X212689975Y-260156588D01*
X212669500Y-260298995D01*
X212669500Y-262100500D01*
X212647826Y-262152826D01*
X212595500Y-262174500D01*
X208353854Y-262174500D01*
X208264715Y-262198384D01*
X208264710Y-262198386D01*
X208184787Y-262244530D01*
X207169530Y-263259787D01*
X207133876Y-263321543D01*
X207128705Y-263330500D01*
X207123385Y-263339713D01*
X207123384Y-263339715D01*
X207099500Y-263428853D01*
X207099500Y-267654165D01*
X207077826Y-267706491D01*
X206011254Y-268773062D01*
X205958928Y-268794736D01*
X205947354Y-268793825D01*
X205904249Y-268786999D01*
X205904246Y-268786999D01*
X205325754Y-268786999D01*
X205325753Y-268786999D01*
X205227579Y-268802547D01*
X205227579Y-268802548D01*
X205109250Y-268862839D01*
X205015340Y-268956749D01*
X204975931Y-269034095D01*
X204932864Y-269070878D01*
X204909997Y-269074500D01*
X203230005Y-269074500D01*
X203177679Y-269052826D01*
X203164071Y-269034095D01*
X203124661Y-268956749D01*
X203030751Y-268862839D01*
X202912422Y-268802548D01*
X202912422Y-268802547D01*
X202814249Y-268786999D01*
X202814248Y-268786999D01*
X202235756Y-268786999D01*
X202235755Y-268786999D01*
X202137581Y-268802547D01*
X202137581Y-268802548D01*
X202019252Y-268862839D01*
X201925342Y-268956749D01*
X201865051Y-269075078D01*
X201865050Y-269075078D01*
X201849502Y-269173252D01*
X201849502Y-269676745D01*
X201865051Y-269774919D01*
X201925342Y-269893248D01*
X202019252Y-269987158D01*
X202078416Y-270017303D01*
X202137581Y-270047449D01*
X202137581Y-270047450D01*
X202235755Y-270062999D01*
X202235756Y-270062999D01*
X202814249Y-270062999D01*
X202912422Y-270047450D01*
X203030753Y-269987157D01*
X203124660Y-269893250D01*
X203126092Y-269890438D01*
X203164070Y-269815905D01*
X203207137Y-269779122D01*
X203230004Y-269775500D01*
X204909998Y-269775500D01*
X204962324Y-269797174D01*
X204975932Y-269815905D01*
X205015340Y-269893248D01*
X205109250Y-269987158D01*
X205168414Y-270017303D01*
X205227579Y-270047449D01*
X205227579Y-270047450D01*
X205325753Y-270062999D01*
X205325754Y-270062999D01*
X205904247Y-270062999D01*
X206002420Y-270047450D01*
X206120751Y-269987157D01*
X206214658Y-269893250D01*
X206274951Y-269774919D01*
X206290500Y-269676745D01*
X206290500Y-269515834D01*
X206312174Y-269463508D01*
X207002620Y-268773062D01*
X207730470Y-268045212D01*
X207776614Y-267965288D01*
X207783779Y-267938545D01*
X207788674Y-267920282D01*
X207800500Y-267876143D01*
X207800500Y-263650834D01*
X207822174Y-263598508D01*
X208523508Y-262897174D01*
X208575834Y-262875500D01*
X212595500Y-262875500D01*
X212647826Y-262897174D01*
X212669500Y-262949500D01*
X212669500Y-263602995D01*
X212672396Y-263657020D01*
X212675231Y-263683379D01*
X212675233Y-263683398D01*
X212683885Y-263736789D01*
X212734168Y-263871600D01*
X212734167Y-263871600D01*
X212767649Y-263932917D01*
X212767653Y-263932922D01*
X212853226Y-264047233D01*
X212857305Y-264053284D01*
X212874478Y-264081692D01*
X212881799Y-264097959D01*
X212891649Y-264129567D01*
X212895000Y-264151583D01*
X212895000Y-265000340D01*
X212894696Y-265007039D01*
X212892516Y-265031015D01*
X212892516Y-265031030D01*
X212897634Y-265161751D01*
X212908331Y-265224484D01*
X212922867Y-265271700D01*
X212946819Y-265349504D01*
X212955075Y-265362350D01*
X212977981Y-265397993D01*
X212988037Y-265453730D01*
X212955735Y-265500253D01*
X212915728Y-265512000D01*
X209418879Y-265512000D01*
X209366553Y-265490326D01*
X209349032Y-265462440D01*
X209329117Y-265405527D01*
X209329116Y-265405525D01*
X209250711Y-265299289D01*
X209188483Y-265253363D01*
X209144473Y-265220882D01*
X209019854Y-265177276D01*
X209019855Y-265177276D01*
X209019850Y-265177275D01*
X209019849Y-265177275D01*
X208990256Y-265174500D01*
X208409744Y-265174500D01*
X208380151Y-265177275D01*
X208380149Y-265177275D01*
X208380145Y-265177276D01*
X208255526Y-265220882D01*
X208149290Y-265299288D01*
X208149288Y-265299290D01*
X208070882Y-265405526D01*
X208027276Y-265530145D01*
X208027275Y-265530149D01*
X208027275Y-265530151D01*
X208024500Y-265559744D01*
X208024500Y-266165256D01*
X208027275Y-266194849D01*
X208027275Y-266194851D01*
X208027276Y-266194854D01*
X208070882Y-266319473D01*
X208083818Y-266337000D01*
X208149289Y-266425711D01*
X208227695Y-266483576D01*
X208255526Y-266504117D01*
X208380145Y-266547723D01*
X208380151Y-266547725D01*
X208409744Y-266550500D01*
X208409751Y-266550500D01*
X208990249Y-266550500D01*
X208990256Y-266550500D01*
X209019849Y-266547725D01*
X209076532Y-266527890D01*
X209144473Y-266504117D01*
X209144473Y-266504116D01*
X209144475Y-266504116D01*
X209250711Y-266425711D01*
X209329116Y-266319475D01*
X209349032Y-266262560D01*
X209386771Y-266220328D01*
X209418879Y-266213000D01*
X214103646Y-266213000D01*
X214103646Y-266212999D01*
X214192788Y-266189114D01*
X214234111Y-266165256D01*
X214272712Y-266142970D01*
X215030470Y-265385212D01*
X215038323Y-265371608D01*
X215069908Y-265342127D01*
X215146211Y-265304826D01*
X215197674Y-265253363D01*
X215250000Y-265231689D01*
X215302326Y-265253363D01*
X215353789Y-265304826D01*
X215430090Y-265342126D01*
X215461675Y-265371608D01*
X215469526Y-265385207D01*
X215469528Y-265385209D01*
X215469530Y-265385212D01*
X216277288Y-266192970D01*
X216357212Y-266239114D01*
X216357213Y-266239114D01*
X216357215Y-266239115D01*
X216401784Y-266251057D01*
X216446353Y-266262999D01*
X216446354Y-266263000D01*
X216446356Y-266263000D01*
X216446357Y-266263000D01*
X216538644Y-266263000D01*
X221050500Y-266263000D01*
X221102826Y-266284674D01*
X221124500Y-266337000D01*
X221124500Y-266455256D01*
X221127275Y-266484849D01*
X221127275Y-266484851D01*
X221127276Y-266484854D01*
X221170882Y-266609473D01*
X221211962Y-266665135D01*
X221249289Y-266715711D01*
X221327695Y-266773576D01*
X221355526Y-266794117D01*
X221480145Y-266837723D01*
X221480151Y-266837725D01*
X221509744Y-266840500D01*
X221509751Y-266840500D01*
X222090249Y-266840500D01*
X222090256Y-266840500D01*
X222119849Y-266837725D01*
X222176532Y-266817890D01*
X222244473Y-266794117D01*
X222244473Y-266794116D01*
X222244475Y-266794116D01*
X222350711Y-266715711D01*
X222429116Y-266609475D01*
X222449753Y-266550500D01*
X222472723Y-266484854D01*
X222472722Y-266484854D01*
X222472725Y-266484849D01*
X222475500Y-266455256D01*
X222475500Y-265849744D01*
X222472725Y-265820151D01*
X222452465Y-265762251D01*
X222429117Y-265695526D01*
X222408576Y-265667695D01*
X222350711Y-265589289D01*
X222270573Y-265530145D01*
X222244473Y-265510882D01*
X222119854Y-265467276D01*
X222119855Y-265467276D01*
X222119850Y-265467275D01*
X222119849Y-265467275D01*
X222090256Y-265464500D01*
X221509744Y-265464500D01*
X221480151Y-265467275D01*
X221480149Y-265467275D01*
X221480145Y-265467276D01*
X221355526Y-265510882D01*
X221305858Y-265547540D01*
X221261915Y-265562000D01*
X217593575Y-265562000D01*
X217574727Y-265554193D01*
X217554595Y-265550901D01*
X217549427Y-265543713D01*
X217541249Y-265540326D01*
X217533442Y-265521478D01*
X217521534Y-265504915D01*
X217522962Y-265496178D01*
X217519575Y-265488000D01*
X217530674Y-265449020D01*
X217537963Y-265437258D01*
X217537966Y-265437252D01*
X217537973Y-265437241D01*
X217537978Y-265437227D01*
X217539240Y-265434837D01*
X217539351Y-265434895D01*
X217541130Y-265431573D01*
X217541015Y-265431510D01*
X217542274Y-265429200D01*
X217542284Y-265429186D01*
X217553669Y-265404255D01*
X217553668Y-265404254D01*
X217560446Y-265389414D01*
X217567155Y-265372587D01*
X217567963Y-265372956D01*
X217571298Y-265365654D01*
X217571308Y-265365632D01*
X217575156Y-265352524D01*
X217576444Y-265349295D01*
X217576634Y-265349099D01*
X217577366Y-265347086D01*
X217595583Y-265305398D01*
X217599864Y-265271693D01*
X217602271Y-265260175D01*
X217610635Y-265231689D01*
X217611842Y-265227579D01*
X217611841Y-265182087D01*
X217611857Y-265180563D01*
X217611937Y-265176649D01*
X217613715Y-265162664D01*
X217613583Y-265154637D01*
X217612393Y-265154656D01*
X217613056Y-265122625D01*
X217613016Y-265120211D01*
X217613017Y-265120211D01*
X217612608Y-265095327D01*
X217612570Y-265092989D01*
X217612569Y-265092951D01*
X217612524Y-265090178D01*
X217612522Y-265090133D01*
X217612220Y-265071779D01*
X217610942Y-265069078D01*
X217605304Y-265007036D01*
X217605000Y-265000339D01*
X217605000Y-264151581D01*
X217608350Y-264129568D01*
X217618198Y-264097961D01*
X217625520Y-264081692D01*
X217646842Y-264046420D01*
X217655124Y-264035250D01*
X217657288Y-264032842D01*
X217673922Y-264012200D01*
X217705567Y-263968316D01*
X217765338Y-263837439D01*
X217765340Y-263837428D01*
X217765344Y-263837421D01*
X217785017Y-263770421D01*
X217785017Y-263770418D01*
X217785023Y-263770400D01*
X217785024Y-263770396D01*
X217805500Y-263627980D01*
X217805500Y-263404500D01*
X217827174Y-263352174D01*
X217879500Y-263330500D01*
X218239192Y-263330500D01*
X218291518Y-263352174D01*
X218358458Y-263419114D01*
X218473189Y-263495775D01*
X218547866Y-263526707D01*
X218600671Y-263548580D01*
X218627591Y-263553934D01*
X218736007Y-263575500D01*
X218736008Y-263575500D01*
X226118992Y-263575500D01*
X226118994Y-263575500D01*
X226254328Y-263548580D01*
X226381811Y-263495775D01*
X226496543Y-263419114D01*
X227744114Y-262171543D01*
X227820775Y-262056811D01*
X227873580Y-261929328D01*
X227900500Y-261793994D01*
X227900500Y-261656006D01*
X227900500Y-257906007D01*
X227898090Y-257893890D01*
X227873581Y-257770676D01*
X227873580Y-257770672D01*
X227873241Y-257769854D01*
X227873236Y-257769842D01*
X227846208Y-257704591D01*
X227846208Y-257704590D01*
X227820776Y-257643191D01*
X227820386Y-257642608D01*
X227771703Y-257569748D01*
X227744114Y-257528457D01*
X226666543Y-256450886D01*
X226619616Y-256419530D01*
X226551810Y-256374224D01*
X226424332Y-256321421D01*
X226424322Y-256321418D01*
X226330695Y-256302795D01*
X226288994Y-256294500D01*
X226288993Y-256294500D01*
X222331007Y-256294500D01*
X222292642Y-256302131D01*
X222195677Y-256321418D01*
X222195667Y-256321421D01*
X222068191Y-256374223D01*
X221953461Y-256450883D01*
X221931517Y-256472827D01*
X221879192Y-256494500D01*
X221541735Y-256494500D01*
X221473606Y-256504427D01*
X221473605Y-256504427D01*
X221368517Y-256555801D01*
X221285801Y-256638517D01*
X221234427Y-256743605D01*
X221234427Y-256743606D01*
X221224500Y-256811735D01*
X221224500Y-257178264D01*
X221234427Y-257246393D01*
X221234427Y-257246394D01*
X221285801Y-257351482D01*
X221285802Y-257351483D01*
X221368517Y-257434198D01*
X221473607Y-257485573D01*
X221541740Y-257495500D01*
X221879192Y-257495500D01*
X221931517Y-257517173D01*
X221953458Y-257539114D01*
X222068189Y-257615775D01*
X222068190Y-257615775D01*
X222068191Y-257615776D01*
X222116546Y-257635805D01*
X222195672Y-257668580D01*
X222331007Y-257695500D01*
X225899191Y-257695500D01*
X225951517Y-257717174D01*
X226477826Y-258243483D01*
X226499500Y-258295809D01*
X226499500Y-261404191D01*
X226477826Y-261456517D01*
X225781517Y-262152826D01*
X225729191Y-262174500D01*
X219254500Y-262174500D01*
X219202174Y-262152826D01*
X219180500Y-262100500D01*
X219180500Y-261153481D01*
X219180178Y-261135463D01*
X219180178Y-261135447D01*
X219179862Y-261126600D01*
X219178896Y-261108581D01*
X219148312Y-260967989D01*
X219124345Y-260903733D01*
X219124019Y-260902809D01*
X219123895Y-260902525D01*
X219123894Y-260902522D01*
X219054938Y-260776242D01*
X218953199Y-260674504D01*
X218953196Y-260674501D01*
X218897265Y-260632633D01*
X218770974Y-260563674D01*
X218768577Y-260562580D01*
X218769310Y-260560973D01*
X218731634Y-260525770D01*
X218725001Y-260495149D01*
X218725001Y-260459499D01*
X218713448Y-260352045D01*
X218709959Y-260336008D01*
X218702242Y-260300533D01*
X218670151Y-260204115D01*
X218668116Y-260198001D01*
X218668115Y-260197999D01*
X218668114Y-260197996D01*
X218607780Y-260104116D01*
X218590328Y-260076959D01*
X218544576Y-260024158D01*
X218544573Y-260024155D01*
X218544571Y-260024153D01*
X218544074Y-260023722D01*
X218544008Y-260023591D01*
X218542709Y-260022292D01*
X218542842Y-260022158D01*
X218542840Y-260022155D01*
X218542884Y-260022116D01*
X218543141Y-260021859D01*
X218518723Y-259973078D01*
X218536608Y-259919339D01*
X218540199Y-259915481D01*
X218564198Y-259891483D01*
X218615573Y-259786393D01*
X218625500Y-259718260D01*
X218625500Y-259351740D01*
X218625499Y-259351735D01*
X221224500Y-259351735D01*
X221224500Y-259718264D01*
X221234427Y-259786393D01*
X221234427Y-259786394D01*
X221285801Y-259891482D01*
X221285802Y-259891483D01*
X221368517Y-259974198D01*
X221473607Y-260025573D01*
X221541740Y-260035500D01*
X221541746Y-260035500D01*
X223258254Y-260035500D01*
X223258260Y-260035500D01*
X223326393Y-260025573D01*
X223431483Y-259974198D01*
X223498507Y-259907174D01*
X223550833Y-259885500D01*
X223821667Y-259885500D01*
X223873993Y-259907174D01*
X224302827Y-260336008D01*
X224324501Y-260388334D01*
X224324501Y-260890256D01*
X224327276Y-260919849D01*
X224327276Y-260919851D01*
X224327277Y-260919854D01*
X224370883Y-261044473D01*
X224411963Y-261100135D01*
X224449290Y-261150711D01*
X224527696Y-261208576D01*
X224555527Y-261229117D01*
X224680146Y-261272723D01*
X224680152Y-261272725D01*
X224709745Y-261275500D01*
X224709752Y-261275500D01*
X225290250Y-261275500D01*
X225290257Y-261275500D01*
X225319850Y-261272725D01*
X225376533Y-261252890D01*
X225444474Y-261229117D01*
X225444474Y-261229116D01*
X225444476Y-261229116D01*
X225550712Y-261150711D01*
X225629117Y-261044475D01*
X225672726Y-260919849D01*
X225675501Y-260890256D01*
X225675501Y-260184744D01*
X225672726Y-260155151D01*
X225662423Y-260125707D01*
X225629118Y-260030526D01*
X225587546Y-259974198D01*
X225550712Y-259924289D01*
X225470714Y-259865248D01*
X225444474Y-259845882D01*
X225319855Y-259802276D01*
X225319856Y-259802276D01*
X225319851Y-259802275D01*
X225319850Y-259802275D01*
X225290257Y-259799500D01*
X225290251Y-259799500D01*
X224788335Y-259799500D01*
X224736009Y-259777826D01*
X224212713Y-259254530D01*
X224132790Y-259208386D01*
X224132785Y-259208384D01*
X224043647Y-259184500D01*
X224043645Y-259184500D01*
X223550833Y-259184500D01*
X223498507Y-259162826D01*
X223431482Y-259095801D01*
X223326394Y-259044427D01*
X223258264Y-259034500D01*
X223258260Y-259034500D01*
X221541740Y-259034500D01*
X221541735Y-259034500D01*
X221473606Y-259044427D01*
X221473605Y-259044427D01*
X221368517Y-259095801D01*
X221285801Y-259178517D01*
X221234427Y-259283605D01*
X221234427Y-259283606D01*
X221224500Y-259351735D01*
X218625499Y-259351735D01*
X218615573Y-259283607D01*
X218564198Y-259178517D01*
X218481483Y-259095802D01*
X218481482Y-259095801D01*
X218376394Y-259044427D01*
X218308264Y-259034500D01*
X218308260Y-259034500D01*
X216591740Y-259034500D01*
X216591735Y-259034500D01*
X216523606Y-259044427D01*
X216523605Y-259044427D01*
X216418517Y-259095801D01*
X216351493Y-259162826D01*
X216299167Y-259184500D01*
X216015833Y-259184500D01*
X215963507Y-259162826D01*
X215891007Y-259090326D01*
X215795215Y-258994533D01*
X215748720Y-258967689D01*
X215715292Y-258948389D01*
X215715288Y-258948388D01*
X215692479Y-258942276D01*
X215691285Y-258941360D01*
X215689788Y-258941500D01*
X215668984Y-258924247D01*
X215647547Y-258907797D01*
X215647350Y-258906305D01*
X215646192Y-258905345D01*
X215643680Y-258878427D01*
X215640155Y-258851644D01*
X215641070Y-258850450D01*
X215640931Y-258848953D01*
X215649100Y-258839987D01*
X215674634Y-258806712D01*
X215677086Y-258805357D01*
X215683029Y-258802219D01*
X215685288Y-258801614D01*
X215695912Y-258795480D01*
X215765212Y-258755470D01*
X215883508Y-258637174D01*
X215935834Y-258615500D01*
X216299167Y-258615500D01*
X216351493Y-258637174D01*
X216418517Y-258704198D01*
X216523607Y-258755573D01*
X216591740Y-258765500D01*
X216591746Y-258765500D01*
X218308254Y-258765500D01*
X218308260Y-258765500D01*
X218376393Y-258755573D01*
X218481483Y-258704198D01*
X218564198Y-258621483D01*
X218615573Y-258516393D01*
X218625500Y-258448260D01*
X218625500Y-258081740D01*
X218615573Y-258013607D01*
X218564198Y-257908517D01*
X218532098Y-257876417D01*
X218510424Y-257824091D01*
X218532098Y-257771765D01*
X218536065Y-257768079D01*
X218541098Y-257763738D01*
X218544661Y-257760508D01*
X218598755Y-257703174D01*
X218655255Y-257607944D01*
X218657278Y-257609026D01*
X218665070Y-257594449D01*
X218668917Y-257584917D01*
X218672171Y-257579434D01*
X218678495Y-257564166D01*
X218678494Y-257564165D01*
X218685942Y-257546188D01*
X218686066Y-257545886D01*
X218686460Y-257544938D01*
X218686464Y-257544926D01*
X218686840Y-257544018D01*
X218686845Y-257544008D01*
X218688588Y-257539799D01*
X218688566Y-257538970D01*
X218695683Y-257518805D01*
X218696845Y-257515732D01*
X218697917Y-257513074D01*
X218705572Y-257494116D01*
X218721401Y-257376372D01*
X218725000Y-257351345D01*
X218725000Y-257301443D01*
X218725099Y-257299533D01*
X218736514Y-257275562D01*
X218746674Y-257251035D01*
X218748960Y-257249428D01*
X218749451Y-257248398D01*
X218751423Y-257247698D01*
X218767510Y-257236396D01*
X218830416Y-257206817D01*
X218844377Y-257198785D01*
X218952913Y-257114862D01*
X219038106Y-256998916D01*
X219055785Y-256965841D01*
X219078701Y-256916823D01*
X219113039Y-256777101D01*
X219127829Y-256626948D01*
X219129655Y-256602204D01*
X219129891Y-256597401D01*
X219130500Y-256572593D01*
X219130500Y-252948713D01*
X222209500Y-252948713D01*
X222209500Y-253191286D01*
X222241160Y-253431782D01*
X222241162Y-253431791D01*
X222303945Y-253666099D01*
X222396772Y-253890203D01*
X222396775Y-253890211D01*
X222518061Y-254100285D01*
X222518065Y-254100291D01*
X222587292Y-254190509D01*
X222665735Y-254292738D01*
X222837262Y-254464265D01*
X223029711Y-254611936D01*
X223239788Y-254733224D01*
X223463900Y-254826054D01*
X223698211Y-254888838D01*
X223698214Y-254888838D01*
X223698217Y-254888839D01*
X223804951Y-254902890D01*
X223938712Y-254920500D01*
X223938714Y-254920500D01*
X224181286Y-254920500D01*
X224181288Y-254920500D01*
X224366575Y-254896106D01*
X224421782Y-254888839D01*
X224421782Y-254888838D01*
X224421789Y-254888838D01*
X224656100Y-254826054D01*
X224880212Y-254733224D01*
X225090289Y-254611936D01*
X225282738Y-254464265D01*
X225454265Y-254292738D01*
X225601936Y-254100289D01*
X225723224Y-253890212D01*
X225816054Y-253666100D01*
X225878838Y-253431789D01*
X225910500Y-253191288D01*
X225910500Y-252948712D01*
X225878838Y-252708211D01*
X225816054Y-252473900D01*
X225723224Y-252249788D01*
X225682845Y-252179849D01*
X225601938Y-252039714D01*
X225601934Y-252039708D01*
X225454264Y-251847261D01*
X225282738Y-251675735D01*
X225090291Y-251528065D01*
X225090285Y-251528061D01*
X224880211Y-251406775D01*
X224880203Y-251406772D01*
X224656099Y-251313945D01*
X224421791Y-251251162D01*
X224421782Y-251251160D01*
X224228480Y-251225712D01*
X224181288Y-251219500D01*
X223938712Y-251219500D01*
X223895736Y-251225157D01*
X223698217Y-251251160D01*
X223698208Y-251251162D01*
X223463900Y-251313945D01*
X223239796Y-251406772D01*
X223239788Y-251406775D01*
X223029714Y-251528061D01*
X223029708Y-251528065D01*
X222837261Y-251675735D01*
X222665735Y-251847261D01*
X222518065Y-252039708D01*
X222518061Y-252039714D01*
X222396775Y-252249788D01*
X222396772Y-252249796D01*
X222303945Y-252473900D01*
X222241162Y-252708208D01*
X222241160Y-252708217D01*
X222209500Y-252948713D01*
X219130500Y-252948713D01*
X219130500Y-241903213D01*
X219129419Y-241870169D01*
X219129000Y-241863773D01*
X219125756Y-241830834D01*
X219104868Y-241672178D01*
X219091964Y-241607310D01*
X219088653Y-241594955D01*
X219067404Y-241532362D01*
X219007408Y-241387517D01*
X218978170Y-241328225D01*
X218971774Y-241317146D01*
X218935027Y-241262149D01*
X218839582Y-241137765D01*
X218839570Y-241137751D01*
X218796002Y-241088072D01*
X218795986Y-241088055D01*
X218786941Y-241079010D01*
X218770723Y-241064787D01*
X218737233Y-241035416D01*
X218612846Y-240939969D01*
X218557847Y-240903221D01*
X218557843Y-240903218D01*
X218557836Y-240903214D01*
X218546772Y-240896827D01*
X218487493Y-240867596D01*
X218487477Y-240867589D01*
X218342632Y-240807592D01*
X218280033Y-240786343D01*
X218280018Y-240786338D01*
X218267671Y-240783030D01*
X218202824Y-240770131D01*
X218202810Y-240770129D01*
X218083974Y-240754484D01*
X218044164Y-240749243D01*
X218044158Y-240749242D01*
X218044155Y-240749242D01*
X218011144Y-240745993D01*
X218004783Y-240745577D01*
X218004763Y-240745576D01*
X218004758Y-240745576D01*
X217971787Y-240744500D01*
X217325000Y-240744500D01*
X212031093Y-240744500D01*
X212016213Y-240744865D01*
X212006283Y-240745109D01*
X211999143Y-240745460D01*
X211994139Y-240745706D01*
X211972486Y-240747302D01*
X211969392Y-240747531D01*
X211792519Y-240764951D01*
X211792509Y-240764952D01*
X211743460Y-240772227D01*
X211743440Y-240772230D01*
X211743436Y-240772231D01*
X211743431Y-240772231D01*
X211743425Y-240772233D01*
X211719615Y-240776968D01*
X211719612Y-240776969D01*
X211671520Y-240789016D01*
X211671519Y-240789016D01*
X211671496Y-240789023D01*
X211507258Y-240838843D01*
X211507253Y-240838844D01*
X211507249Y-240838846D01*
X211460527Y-240855563D01*
X211438096Y-240864855D01*
X211438087Y-240864859D01*
X211393271Y-240886056D01*
X211393244Y-240886070D01*
X211241907Y-240966961D01*
X211241904Y-240966963D01*
X211199353Y-240992467D01*
X211179152Y-241005965D01*
X211179130Y-241005981D01*
X211139328Y-241035500D01*
X211139302Y-241035520D01*
X211006645Y-241144389D01*
X211006596Y-241144432D01*
X210969897Y-241177695D01*
X210952695Y-241194897D01*
X210919432Y-241231596D01*
X210919389Y-241231645D01*
X210810520Y-241364302D01*
X210810500Y-241364328D01*
X210780981Y-241404130D01*
X210780965Y-241404152D01*
X210767467Y-241424353D01*
X210741967Y-241466897D01*
X210670732Y-241600167D01*
X210626951Y-241636097D01*
X210570586Y-241630545D01*
X210553144Y-241617609D01*
X210459294Y-241523759D01*
X210459290Y-241523757D01*
X210343433Y-241464725D01*
X210343431Y-241464724D01*
X210343430Y-241464724D01*
X210247308Y-241449500D01*
X209202693Y-241449500D01*
X209106565Y-241464725D01*
X209106562Y-241464726D01*
X208990707Y-241523757D01*
X208898759Y-241615705D01*
X208839724Y-241731569D01*
X208824500Y-241827691D01*
X208824500Y-242625500D01*
X208802826Y-242677826D01*
X208750500Y-242699500D01*
X206554266Y-242699500D01*
X205945734Y-242699500D01*
X205915301Y-242702354D01*
X205915299Y-242702354D01*
X205915295Y-242702355D01*
X205787118Y-242747206D01*
X205787116Y-242747207D01*
X205677853Y-242827846D01*
X205677846Y-242827853D01*
X205597207Y-242937116D01*
X205597206Y-242937118D01*
X205552355Y-243065295D01*
X205552354Y-243065299D01*
X205552354Y-243065301D01*
X205549500Y-243095734D01*
X205549500Y-243704266D01*
X205552354Y-243734699D01*
X205552354Y-243734701D01*
X205552355Y-243734704D01*
X205597206Y-243862881D01*
X205597207Y-243862883D01*
X205677846Y-243972146D01*
X205677853Y-243972153D01*
X205787116Y-244052792D01*
X205787118Y-244052793D01*
X205915295Y-244097644D01*
X205915301Y-244097646D01*
X205945734Y-244100500D01*
X206181007Y-244100500D01*
X208750501Y-244100500D01*
X208802827Y-244122174D01*
X208824501Y-244174500D01*
X208824501Y-244972306D01*
X208839725Y-245068434D01*
X208839726Y-245068437D01*
X208898757Y-245184292D01*
X208898759Y-245184294D01*
X208990706Y-245276241D01*
X209106567Y-245335275D01*
X209202693Y-245350500D01*
X209300499Y-245350499D01*
X209352824Y-245372173D01*
X209374499Y-245424498D01*
X209374499Y-246181143D01*
X209378747Y-246196995D01*
X209378747Y-246196998D01*
X209398383Y-246270282D01*
X209398385Y-246270287D01*
X209444529Y-246350211D01*
X209765325Y-246671007D01*
X209786999Y-246723333D01*
X209786999Y-247813003D01*
X209765325Y-247865329D01*
X209712999Y-247887003D01*
X209591734Y-247887003D01*
X209523605Y-247896930D01*
X209523604Y-247896930D01*
X209418516Y-247948304D01*
X209335800Y-248031020D01*
X209284426Y-248136108D01*
X209284426Y-248136109D01*
X209274499Y-248204238D01*
X209274499Y-248570767D01*
X209284426Y-248638896D01*
X209284426Y-248638897D01*
X209335800Y-248743985D01*
X209335801Y-248743986D01*
X209418516Y-248826701D01*
X209523606Y-248878076D01*
X209591739Y-248888003D01*
X209591745Y-248888003D01*
X210683253Y-248888003D01*
X210683259Y-248888003D01*
X210751392Y-248878076D01*
X210751395Y-248878074D01*
X210755611Y-248877460D01*
X210810515Y-248891363D01*
X210839508Y-248940017D01*
X210833985Y-248977591D01*
X210834781Y-248977896D01*
X210834826Y-248977910D01*
X210834825Y-248977913D01*
X210835002Y-248977981D01*
X210834055Y-248980450D01*
X210822109Y-249019833D01*
X210822106Y-249019845D01*
X210822103Y-249019856D01*
X210812751Y-249061072D01*
X210806143Y-249090194D01*
X210800809Y-249125081D01*
X210800566Y-249128090D01*
X210800519Y-249128083D01*
X210800410Y-249128822D01*
X210799449Y-249141914D01*
X210799413Y-249142364D01*
X210795026Y-249196695D01*
X210795044Y-249197356D01*
X210795020Y-249201977D01*
X210794999Y-249202556D01*
X210794999Y-249499655D01*
X210793341Y-249515231D01*
X210779464Y-249579680D01*
X210779462Y-249579692D01*
X210774541Y-249614277D01*
X210774539Y-249614293D01*
X210769499Y-249685491D01*
X210769499Y-249714005D01*
X210747825Y-249766331D01*
X210695499Y-249788005D01*
X210684831Y-249787232D01*
X210684591Y-249787197D01*
X210683263Y-249787003D01*
X210683259Y-249787003D01*
X209591739Y-249787003D01*
X209591734Y-249787003D01*
X209523605Y-249796930D01*
X209523604Y-249796930D01*
X209418516Y-249848304D01*
X209351492Y-249915329D01*
X209299166Y-249937003D01*
X206934500Y-249937003D01*
X206882174Y-249915329D01*
X206860500Y-249863003D01*
X206860500Y-249765740D01*
X206860500Y-249765734D01*
X206857646Y-249735301D01*
X206812793Y-249607118D01*
X206792552Y-249579692D01*
X206732153Y-249497853D01*
X206732146Y-249497846D01*
X206622883Y-249417207D01*
X206622881Y-249417206D01*
X206494704Y-249372355D01*
X206494705Y-249372355D01*
X206494700Y-249372354D01*
X206494699Y-249372354D01*
X206464266Y-249369500D01*
X205455734Y-249369500D01*
X205425301Y-249372354D01*
X205425299Y-249372354D01*
X205425295Y-249372355D01*
X205297118Y-249417206D01*
X205297116Y-249417207D01*
X205187853Y-249497846D01*
X205187846Y-249497853D01*
X205107207Y-249607116D01*
X205107206Y-249607118D01*
X205062355Y-249735295D01*
X205062354Y-249735299D01*
X205062354Y-249735301D01*
X205059500Y-249765734D01*
X205059500Y-250574266D01*
X205062354Y-250604699D01*
X205062354Y-250604701D01*
X205062355Y-250604704D01*
X205107206Y-250732881D01*
X205107207Y-250732883D01*
X205187846Y-250842146D01*
X205187853Y-250842153D01*
X205297116Y-250922792D01*
X205297118Y-250922793D01*
X205425295Y-250967644D01*
X205425301Y-250967646D01*
X205455734Y-250970500D01*
X205643000Y-250970500D01*
X205695326Y-250992174D01*
X205717000Y-251044500D01*
X205717000Y-251148118D01*
X205695326Y-251200444D01*
X205667442Y-251217965D01*
X205630525Y-251230883D01*
X205524290Y-251309288D01*
X205524288Y-251309290D01*
X205445882Y-251415526D01*
X205402276Y-251540145D01*
X205402275Y-251540149D01*
X205402275Y-251540151D01*
X205399500Y-251569744D01*
X205399500Y-252150256D01*
X205402275Y-252179849D01*
X205402275Y-252179851D01*
X205402276Y-252179854D01*
X205445882Y-252304473D01*
X205452461Y-252313387D01*
X205524289Y-252410711D01*
X205602695Y-252468576D01*
X205630526Y-252489117D01*
X205755145Y-252532723D01*
X205755151Y-252532725D01*
X205784744Y-252535500D01*
X205784751Y-252535500D01*
X206390249Y-252535500D01*
X206390256Y-252535500D01*
X206419849Y-252532725D01*
X206476532Y-252512890D01*
X206544473Y-252489117D01*
X206544473Y-252489116D01*
X206544475Y-252489116D01*
X206650711Y-252410711D01*
X206729116Y-252304475D01*
X206735624Y-252285878D01*
X206772723Y-252179854D01*
X206772722Y-252179854D01*
X206772725Y-252179849D01*
X206775500Y-252150256D01*
X206775500Y-251569744D01*
X206772725Y-251540151D01*
X206768496Y-251528064D01*
X206729117Y-251415526D01*
X206659759Y-251321549D01*
X206650711Y-251309289D01*
X206574382Y-251252956D01*
X206544473Y-251230882D01*
X206467559Y-251203969D01*
X206455105Y-251192839D01*
X206439674Y-251186448D01*
X206434808Y-251174701D01*
X206425328Y-251166229D01*
X206418000Y-251134122D01*
X206418000Y-251042223D01*
X206439674Y-250989897D01*
X206485090Y-250968547D01*
X206494699Y-250967646D01*
X206622882Y-250922793D01*
X206732150Y-250842150D01*
X206812793Y-250732882D01*
X206828650Y-250687562D01*
X206866390Y-250645332D01*
X206898498Y-250638003D01*
X209299166Y-250638003D01*
X209351492Y-250659677D01*
X209418516Y-250726701D01*
X209523606Y-250778076D01*
X209591739Y-250788003D01*
X209591745Y-250788003D01*
X210683253Y-250788003D01*
X210683259Y-250788003D01*
X210751392Y-250778076D01*
X210856482Y-250726701D01*
X210856485Y-250726697D01*
X210859091Y-250725424D01*
X210915619Y-250721914D01*
X210956877Y-250757064D01*
X210991383Y-250821721D01*
X210991388Y-250821730D01*
X211003608Y-250842150D01*
X211016828Y-250864242D01*
X211030299Y-250884437D01*
X211059779Y-250924257D01*
X211113549Y-250989897D01*
X211168376Y-251056828D01*
X211168395Y-251056851D01*
X211201641Y-251093600D01*
X211218793Y-251110786D01*
X211244485Y-251134122D01*
X211255446Y-251144078D01*
X211387802Y-251252956D01*
X211387814Y-251252965D01*
X211387838Y-251252984D01*
X211427523Y-251282491D01*
X211427554Y-251282514D01*
X211427575Y-251282528D01*
X211427596Y-251282543D01*
X211447719Y-251296026D01*
X211447720Y-251296026D01*
X211447721Y-251296027D01*
X211490183Y-251321556D01*
X211641213Y-251402559D01*
X211685957Y-251423803D01*
X211685974Y-251423810D01*
X211708345Y-251433118D01*
X211708360Y-251433124D01*
X211708370Y-251433128D01*
X211708377Y-251433130D01*
X211708409Y-251433143D01*
X211754986Y-251449894D01*
X211754998Y-251449897D01*
X211754999Y-251449898D01*
X211809598Y-251466560D01*
X211853319Y-251502563D01*
X211861999Y-251537338D01*
X211861999Y-252953824D01*
X211840325Y-253006150D01*
X211668649Y-253177826D01*
X211616323Y-253199500D01*
X203337523Y-253199500D01*
X203197517Y-253237014D01*
X203071984Y-253309490D01*
X202121989Y-254259485D01*
X202098310Y-254300500D01*
X202049513Y-254385018D01*
X202011999Y-254525023D01*
X202011999Y-254705379D01*
X201990325Y-254757705D01*
X201962440Y-254775226D01*
X201899617Y-254797209D01*
X201899615Y-254797210D01*
X201790352Y-254877849D01*
X201790345Y-254877856D01*
X201709706Y-254987119D01*
X201709705Y-254987121D01*
X201664854Y-255115298D01*
X201664853Y-255115302D01*
X201664853Y-255115304D01*
X201661999Y-255145737D01*
X200750500Y-255145737D01*
X200750500Y-246045734D01*
X201899500Y-246045734D01*
X201899500Y-246979266D01*
X201902354Y-247009699D01*
X201902354Y-247009701D01*
X201902355Y-247009704D01*
X201947206Y-247137881D01*
X201947207Y-247137883D01*
X202027846Y-247247146D01*
X202027853Y-247247153D01*
X202137116Y-247327792D01*
X202137118Y-247327793D01*
X202265295Y-247372644D01*
X202265301Y-247372646D01*
X202295734Y-247375500D01*
X202295741Y-247375500D01*
X203704258Y-247375500D01*
X203704266Y-247375500D01*
X203734699Y-247372646D01*
X203862882Y-247327793D01*
X203972150Y-247247150D01*
X203973538Y-247245268D01*
X203975172Y-247243056D01*
X204023684Y-247213825D01*
X204034712Y-247212999D01*
X204531690Y-247212999D01*
X204584016Y-247234673D01*
X205039666Y-247690323D01*
X205061340Y-247742649D01*
X205061017Y-247749556D01*
X205059500Y-247765734D01*
X205059500Y-248574266D01*
X205062354Y-248604699D01*
X205062354Y-248604701D01*
X205062355Y-248604704D01*
X205107206Y-248732881D01*
X205107207Y-248732883D01*
X205187846Y-248842146D01*
X205187853Y-248842153D01*
X205297116Y-248922792D01*
X205297118Y-248922793D01*
X205425295Y-248967644D01*
X205425301Y-248967646D01*
X205455734Y-248970500D01*
X205455741Y-248970500D01*
X206464258Y-248970500D01*
X206464266Y-248970500D01*
X206494699Y-248967646D01*
X206622882Y-248922793D01*
X206732150Y-248842150D01*
X206812793Y-248732882D01*
X206857646Y-248604699D01*
X206860500Y-248574266D01*
X206860500Y-247765734D01*
X206857646Y-247735301D01*
X206812793Y-247607118D01*
X206732150Y-247497850D01*
X206655756Y-247441469D01*
X206631334Y-247410250D01*
X206580775Y-247288189D01*
X206504114Y-247173457D01*
X205299041Y-245968384D01*
X205184309Y-245891723D01*
X205056831Y-245838920D01*
X205056821Y-245838917D01*
X204966194Y-245820890D01*
X204921493Y-245811999D01*
X204921492Y-245811999D01*
X204921491Y-245811999D01*
X204034710Y-245811999D01*
X203982384Y-245790325D01*
X203975169Y-245781941D01*
X203972149Y-245777849D01*
X203972146Y-245777846D01*
X203862883Y-245697207D01*
X203862881Y-245697206D01*
X203750059Y-245657727D01*
X203707828Y-245619987D01*
X203700500Y-245587880D01*
X203700500Y-244470809D01*
X203722174Y-244418483D01*
X204019837Y-244120819D01*
X204065251Y-244099469D01*
X204084699Y-244097646D01*
X204212882Y-244052793D01*
X204322150Y-243972150D01*
X204402793Y-243862882D01*
X204447646Y-243734699D01*
X204450500Y-243704266D01*
X204450500Y-243095734D01*
X204450500Y-235903713D01*
X213399500Y-235903713D01*
X213399500Y-236146286D01*
X213431160Y-236386782D01*
X213431162Y-236386791D01*
X213493945Y-236621099D01*
X213586772Y-236845203D01*
X213586775Y-236845211D01*
X213708061Y-237055285D01*
X213708065Y-237055291D01*
X213855735Y-237247738D01*
X214027262Y-237419265D01*
X214219711Y-237566936D01*
X214429788Y-237688224D01*
X214653900Y-237781054D01*
X214888211Y-237843838D01*
X214888214Y-237843838D01*
X214888217Y-237843839D01*
X214994951Y-237857890D01*
X215128712Y-237875500D01*
X215128714Y-237875500D01*
X215371286Y-237875500D01*
X215371288Y-237875500D01*
X215556575Y-237851106D01*
X215611782Y-237843839D01*
X215611782Y-237843838D01*
X215611789Y-237843838D01*
X215846100Y-237781054D01*
X216070212Y-237688224D01*
X216280289Y-237566936D01*
X216472738Y-237419265D01*
X216644265Y-237247738D01*
X216791936Y-237055289D01*
X216913224Y-236845212D01*
X217006054Y-236621100D01*
X217068838Y-236386789D01*
X217100500Y-236146288D01*
X217100500Y-235903712D01*
X217068838Y-235663211D01*
X217006054Y-235428900D01*
X216913224Y-235204788D01*
X216791936Y-234994711D01*
X216644265Y-234802262D01*
X216472738Y-234630735D01*
X216280291Y-234483065D01*
X216280285Y-234483061D01*
X216070211Y-234361775D01*
X216070203Y-234361772D01*
X215846099Y-234268945D01*
X215611791Y-234206162D01*
X215611782Y-234206160D01*
X215418480Y-234180712D01*
X215371288Y-234174500D01*
X215128712Y-234174500D01*
X215085736Y-234180157D01*
X214888217Y-234206160D01*
X214888208Y-234206162D01*
X214653900Y-234268945D01*
X214429796Y-234361772D01*
X214429788Y-234361775D01*
X214219714Y-234483061D01*
X214219708Y-234483065D01*
X214027261Y-234630735D01*
X213855735Y-234802261D01*
X213708065Y-234994708D01*
X213708061Y-234994714D01*
X213586775Y-235204788D01*
X213586772Y-235204796D01*
X213493945Y-235428900D01*
X213431162Y-235663208D01*
X213431160Y-235663217D01*
X213399500Y-235903713D01*
X204450500Y-235903713D01*
X204450500Y-218953713D01*
X213399500Y-218953713D01*
X213399500Y-219196286D01*
X213431160Y-219436782D01*
X213431162Y-219436791D01*
X213493945Y-219671099D01*
X213586772Y-219895203D01*
X213586775Y-219895211D01*
X213708061Y-220105285D01*
X213708065Y-220105291D01*
X213855735Y-220297738D01*
X214027262Y-220469265D01*
X214219711Y-220616936D01*
X214429788Y-220738224D01*
X214653900Y-220831054D01*
X214888211Y-220893838D01*
X214888214Y-220893838D01*
X214888217Y-220893839D01*
X214994951Y-220907890D01*
X215128712Y-220925500D01*
X215128714Y-220925500D01*
X215371286Y-220925500D01*
X215371288Y-220925500D01*
X215556575Y-220901106D01*
X215611782Y-220893839D01*
X215611782Y-220893838D01*
X215611789Y-220893838D01*
X215846100Y-220831054D01*
X216070212Y-220738224D01*
X216280289Y-220616936D01*
X216472738Y-220469265D01*
X216644265Y-220297738D01*
X216791936Y-220105289D01*
X216913224Y-219895212D01*
X217006054Y-219671100D01*
X217068838Y-219436789D01*
X217100500Y-219196288D01*
X217100500Y-218953712D01*
X217068838Y-218713211D01*
X217006054Y-218478900D01*
X216913224Y-218254788D01*
X216791936Y-218044711D01*
X216644265Y-217852262D01*
X216472738Y-217680735D01*
X216280291Y-217533065D01*
X216280285Y-217533061D01*
X216070211Y-217411775D01*
X216070203Y-217411772D01*
X215846099Y-217318945D01*
X215611791Y-217256162D01*
X215611782Y-217256160D01*
X215418480Y-217230712D01*
X215371288Y-217224500D01*
X215128712Y-217224500D01*
X215085736Y-217230157D01*
X214888217Y-217256160D01*
X214888208Y-217256162D01*
X214653900Y-217318945D01*
X214429796Y-217411772D01*
X214429788Y-217411775D01*
X214219714Y-217533061D01*
X214219708Y-217533065D01*
X214027261Y-217680735D01*
X213855735Y-217852261D01*
X213708065Y-218044708D01*
X213708061Y-218044714D01*
X213586775Y-218254788D01*
X213586772Y-218254796D01*
X213493945Y-218478900D01*
X213431162Y-218713208D01*
X213431160Y-218713217D01*
X213399500Y-218953713D01*
X204450500Y-218953713D01*
X204450500Y-204205253D01*
X213949500Y-204205253D01*
X213949500Y-206244746D01*
X213961133Y-206303232D01*
X213990608Y-206347343D01*
X214005448Y-206369552D01*
X214049560Y-206399027D01*
X214071767Y-206413866D01*
X214071768Y-206413866D01*
X214071769Y-206413867D01*
X214130252Y-206425500D01*
X214130254Y-206425500D01*
X217369746Y-206425500D01*
X217369748Y-206425500D01*
X217428231Y-206413867D01*
X217494552Y-206369552D01*
X217538867Y-206303231D01*
X217550500Y-206244748D01*
X217550500Y-204205252D01*
X217538867Y-204146769D01*
X217494552Y-204080448D01*
X217472343Y-204065608D01*
X217428232Y-204036133D01*
X217428233Y-204036133D01*
X217398989Y-204030316D01*
X217369748Y-204024500D01*
X214130252Y-204024500D01*
X214101010Y-204030316D01*
X214071767Y-204036133D01*
X214005449Y-204080447D01*
X214005447Y-204080449D01*
X213961133Y-204146767D01*
X213949500Y-204205253D01*
X204450500Y-204205253D01*
X204450500Y-202030518D01*
X207549500Y-202030518D01*
X207549500Y-202219481D01*
X207579059Y-202406115D01*
X207579062Y-202406128D01*
X207637449Y-202585824D01*
X207637452Y-202585831D01*
X207637453Y-202585832D01*
X207723240Y-202754199D01*
X207834310Y-202907073D01*
X207967927Y-203040690D01*
X208120801Y-203151760D01*
X208289168Y-203237547D01*
X208289171Y-203237547D01*
X208289175Y-203237550D01*
X208468871Y-203295937D01*
X208468877Y-203295938D01*
X208468882Y-203295940D01*
X208582064Y-203313866D01*
X208655518Y-203325500D01*
X208655519Y-203325500D01*
X208844482Y-203325500D01*
X208891140Y-203318110D01*
X209031118Y-203295940D01*
X209031125Y-203295937D01*
X209031128Y-203295937D01*
X209210824Y-203237550D01*
X209210826Y-203237548D01*
X209210832Y-203237547D01*
X209379199Y-203151760D01*
X209532073Y-203040690D01*
X209665690Y-202907073D01*
X209776760Y-202754199D01*
X209862547Y-202585832D01*
X209920940Y-202406118D01*
X209950500Y-202219481D01*
X209950500Y-202030519D01*
X209920940Y-201843882D01*
X209920938Y-201843877D01*
X209920937Y-201843871D01*
X209862550Y-201664175D01*
X209862547Y-201664171D01*
X209862547Y-201664168D01*
X209776760Y-201495801D01*
X209665690Y-201342927D01*
X209532073Y-201209310D01*
X209532070Y-201209307D01*
X209532068Y-201209306D01*
X209379198Y-201098239D01*
X209210824Y-201012449D01*
X209031128Y-200954062D01*
X209031115Y-200954059D01*
X208844482Y-200924500D01*
X208844481Y-200924500D01*
X208655519Y-200924500D01*
X208655518Y-200924500D01*
X208468884Y-200954059D01*
X208468871Y-200954062D01*
X208289175Y-201012449D01*
X208120801Y-201098239D01*
X207967931Y-201209306D01*
X207834306Y-201342931D01*
X207723239Y-201495801D01*
X207637449Y-201664175D01*
X207579062Y-201843871D01*
X207579059Y-201843884D01*
X207549500Y-202030518D01*
X204450500Y-202030518D01*
X204450500Y-196715734D01*
X204929500Y-196715734D01*
X204929500Y-197524266D01*
X204932354Y-197554699D01*
X204932354Y-197554701D01*
X204932355Y-197554704D01*
X204977206Y-197682881D01*
X204977207Y-197682883D01*
X205057846Y-197792146D01*
X205057853Y-197792153D01*
X205167116Y-197872792D01*
X205167118Y-197872793D01*
X205295295Y-197917644D01*
X205295301Y-197917646D01*
X205325734Y-197920500D01*
X205325741Y-197920500D01*
X206334258Y-197920500D01*
X206334266Y-197920500D01*
X206364699Y-197917646D01*
X206492882Y-197872793D01*
X206602150Y-197792150D01*
X206682793Y-197682882D01*
X206727646Y-197554699D01*
X206728781Y-197542588D01*
X206755246Y-197492516D01*
X206802458Y-197475499D01*
X207547839Y-197475499D01*
X207600165Y-197497173D01*
X207618217Y-197526632D01*
X207637449Y-197585824D01*
X207637452Y-197585831D01*
X207637453Y-197585832D01*
X207723240Y-197754199D01*
X207834310Y-197907073D01*
X207967927Y-198040690D01*
X208120801Y-198151760D01*
X208289168Y-198237547D01*
X208289171Y-198237547D01*
X208289175Y-198237550D01*
X208468871Y-198295937D01*
X208468877Y-198295938D01*
X208468882Y-198295940D01*
X208593306Y-198315646D01*
X208655518Y-198325500D01*
X208655519Y-198325500D01*
X208844482Y-198325500D01*
X208891140Y-198318110D01*
X209031118Y-198295940D01*
X209031125Y-198295937D01*
X209031128Y-198295937D01*
X209210824Y-198237550D01*
X209210826Y-198237548D01*
X209210832Y-198237547D01*
X209379199Y-198151760D01*
X209532073Y-198040690D01*
X209665690Y-197907073D01*
X209776760Y-197754199D01*
X209862547Y-197585832D01*
X209872662Y-197554704D01*
X209920937Y-197406128D01*
X209920937Y-197406125D01*
X209920940Y-197406118D01*
X209950500Y-197219481D01*
X209950500Y-197030519D01*
X209920940Y-196843882D01*
X209920938Y-196843877D01*
X209920937Y-196843871D01*
X209862550Y-196664175D01*
X209862547Y-196664171D01*
X209862547Y-196664168D01*
X209776760Y-196495801D01*
X209741921Y-196447850D01*
X209665693Y-196342931D01*
X209665692Y-196342930D01*
X209665690Y-196342927D01*
X209532073Y-196209310D01*
X209532070Y-196209307D01*
X209532068Y-196209306D01*
X209379198Y-196098239D01*
X209210824Y-196012449D01*
X209031128Y-195954062D01*
X209031115Y-195954059D01*
X208844482Y-195924500D01*
X208844481Y-195924500D01*
X208655519Y-195924500D01*
X208655518Y-195924500D01*
X208468884Y-195954059D01*
X208468871Y-195954062D01*
X208289175Y-196012449D01*
X208120801Y-196098239D01*
X207967931Y-196209306D01*
X207834306Y-196342931D01*
X207723239Y-196495801D01*
X207637450Y-196664173D01*
X207618217Y-196723367D01*
X207581434Y-196766434D01*
X207547839Y-196774499D01*
X206803396Y-196774499D01*
X206751070Y-196752825D01*
X206729719Y-196707409D01*
X206727646Y-196685301D01*
X206682793Y-196557118D01*
X206682792Y-196557116D01*
X206602153Y-196447853D01*
X206602146Y-196447846D01*
X206492883Y-196367207D01*
X206492881Y-196367206D01*
X206364704Y-196322355D01*
X206364705Y-196322355D01*
X206364700Y-196322354D01*
X206364699Y-196322354D01*
X206334266Y-196319500D01*
X205325734Y-196319500D01*
X205295301Y-196322354D01*
X205295299Y-196322354D01*
X205295295Y-196322355D01*
X205167118Y-196367206D01*
X205167116Y-196367207D01*
X205057853Y-196447846D01*
X205057846Y-196447853D01*
X204977207Y-196557116D01*
X204977206Y-196557118D01*
X204932355Y-196685295D01*
X204932354Y-196685299D01*
X204932354Y-196685301D01*
X204929500Y-196715734D01*
X204450500Y-196715734D01*
X204450500Y-193005253D01*
X213949500Y-193005253D01*
X213949500Y-195044746D01*
X213961133Y-195103232D01*
X213990608Y-195147343D01*
X214005448Y-195169552D01*
X214049560Y-195199027D01*
X214071767Y-195213866D01*
X214071768Y-195213866D01*
X214071769Y-195213867D01*
X214130252Y-195225500D01*
X214130254Y-195225500D01*
X217369746Y-195225500D01*
X217369748Y-195225500D01*
X217428231Y-195213867D01*
X217494552Y-195169552D01*
X217538867Y-195103231D01*
X217550500Y-195044748D01*
X217550500Y-193005252D01*
X217538867Y-192946769D01*
X217494552Y-192880448D01*
X217472343Y-192865608D01*
X217428232Y-192836133D01*
X217428233Y-192836133D01*
X217398989Y-192830316D01*
X217369748Y-192824500D01*
X214130252Y-192824500D01*
X214101010Y-192830316D01*
X214071767Y-192836133D01*
X214005449Y-192880447D01*
X214005447Y-192880449D01*
X213961133Y-192946767D01*
X213949500Y-193005253D01*
X204450500Y-193005253D01*
X204450500Y-184855834D01*
X204472174Y-184803508D01*
X205753508Y-183522174D01*
X205805834Y-183500500D01*
X206982034Y-183500500D01*
X207034360Y-183522174D01*
X207062686Y-183550500D01*
X207176814Y-183616392D01*
X207304105Y-183650499D01*
X207304106Y-183650500D01*
X207304108Y-183650500D01*
X207435891Y-183650500D01*
X207435892Y-183650500D01*
X207563186Y-183616392D01*
X207563190Y-183616389D01*
X207567181Y-183614737D01*
X207623818Y-183614737D01*
X207663867Y-183654785D01*
X207669500Y-183683104D01*
X207669500Y-187222034D01*
X207647826Y-187274360D01*
X207639500Y-187282685D01*
X207573610Y-187396809D01*
X207573606Y-187396818D01*
X207539500Y-187524105D01*
X207539500Y-187655894D01*
X207573606Y-187783181D01*
X207573610Y-187783190D01*
X207610632Y-187847314D01*
X207639500Y-187897314D01*
X207732686Y-187990500D01*
X207846814Y-188056392D01*
X207974105Y-188090499D01*
X207974106Y-188090500D01*
X207974108Y-188090500D01*
X208105894Y-188090500D01*
X208105894Y-188090499D01*
X208233186Y-188056392D01*
X208347314Y-187990500D01*
X208440500Y-187897314D01*
X208506392Y-187783186D01*
X208540499Y-187655894D01*
X208540500Y-187655894D01*
X208540500Y-187524106D01*
X208540499Y-187524105D01*
X208521905Y-187454712D01*
X208506392Y-187396814D01*
X208440500Y-187282686D01*
X208392174Y-187234360D01*
X208370500Y-187182034D01*
X208370500Y-181647966D01*
X208392174Y-181595640D01*
X208420640Y-181567174D01*
X208472966Y-181545500D01*
X215555211Y-181545500D01*
X215607537Y-181567174D01*
X215629211Y-181619500D01*
X215607537Y-181671826D01*
X215592211Y-181683586D01*
X215512685Y-181729500D01*
X215419500Y-181822685D01*
X215353610Y-181936809D01*
X215353606Y-181936818D01*
X215319500Y-182064105D01*
X215319500Y-182195894D01*
X215353606Y-182323181D01*
X215353610Y-182323190D01*
X215419500Y-182437314D01*
X215512826Y-182530640D01*
X215534500Y-182582966D01*
X215534500Y-182648857D01*
X215553956Y-182721469D01*
X215553957Y-182721471D01*
X215553958Y-182721473D01*
X215591540Y-182786567D01*
X215591541Y-182786568D01*
X215591543Y-182786571D01*
X217010273Y-184205301D01*
X217010272Y-184205301D01*
X217063428Y-184258456D01*
X217063429Y-184258457D01*
X217128531Y-184296044D01*
X217201143Y-184315500D01*
X217201145Y-184315500D01*
X218092508Y-184315500D01*
X218092510Y-184315500D01*
X218165122Y-184296044D01*
X218230224Y-184258457D01*
X218639928Y-183848753D01*
X218677515Y-183783651D01*
X218680427Y-183772778D01*
X218699579Y-183739603D01*
X218850053Y-183589131D01*
X218883181Y-183539551D01*
X218896828Y-183470938D01*
X218898741Y-183461321D01*
X218898741Y-183461318D01*
X218893577Y-183435361D01*
X218883181Y-183383088D01*
X218850053Y-183333509D01*
X218751414Y-183234870D01*
X218701835Y-183201742D01*
X218670868Y-183195582D01*
X218623777Y-183164118D01*
X218611938Y-183132661D01*
X218610136Y-183118973D01*
X218610136Y-183118971D01*
X218610136Y-183118970D01*
X218594027Y-183080079D01*
X218560317Y-183029629D01*
X218525464Y-182994777D01*
X218522081Y-182992516D01*
X218490616Y-182945426D01*
X218501665Y-182889877D01*
X218522081Y-182869461D01*
X218525463Y-182867202D01*
X218560316Y-182832350D01*
X218594026Y-182781900D01*
X218610135Y-182743009D01*
X218616489Y-182719293D01*
X218650966Y-182674360D01*
X218673532Y-182665867D01*
X218701835Y-182660238D01*
X218751414Y-182627110D01*
X218850053Y-182528471D01*
X218883181Y-182478892D01*
X218890374Y-182442728D01*
X218921837Y-182395637D01*
X218948513Y-182384587D01*
X218984678Y-182377395D01*
X219034257Y-182344267D01*
X219132896Y-182245628D01*
X219166024Y-182196049D01*
X219173217Y-182159885D01*
X219204680Y-182112794D01*
X219231356Y-182101744D01*
X219267521Y-182094552D01*
X219317100Y-182061424D01*
X219415739Y-181962785D01*
X219448867Y-181913206D01*
X219455026Y-181882238D01*
X219486489Y-181835149D01*
X219517946Y-181823309D01*
X219531639Y-181821507D01*
X219570530Y-181805398D01*
X219620980Y-181771688D01*
X219655832Y-181736835D01*
X219658087Y-181733458D01*
X219705174Y-181701988D01*
X219760724Y-181713032D01*
X219781143Y-181733446D01*
X219783407Y-181736834D01*
X219818259Y-181771687D01*
X219868709Y-181805397D01*
X219868710Y-181805397D01*
X219868711Y-181805398D01*
X219877521Y-181809047D01*
X219907600Y-181821506D01*
X219907602Y-181821506D01*
X219907603Y-181821507D01*
X219912000Y-181822685D01*
X219931315Y-181827860D01*
X219976249Y-181862337D01*
X219984741Y-181884903D01*
X219990371Y-181913206D01*
X220023499Y-181962785D01*
X220122138Y-182061424D01*
X220171717Y-182094552D01*
X220207878Y-182101744D01*
X220254971Y-182133209D01*
X220266021Y-182159885D01*
X220266211Y-182160841D01*
X220273214Y-182196049D01*
X220306342Y-182245628D01*
X220404981Y-182344267D01*
X220454560Y-182377395D01*
X220490721Y-182384587D01*
X220537814Y-182416052D01*
X220548864Y-182442728D01*
X220556057Y-182478892D01*
X220587630Y-182526145D01*
X220589185Y-182528471D01*
X220687824Y-182627110D01*
X220737403Y-182660238D01*
X220768366Y-182666396D01*
X220815459Y-182697860D01*
X220827297Y-182729312D01*
X220829100Y-182743005D01*
X220829101Y-182743007D01*
X220829101Y-182743009D01*
X220829102Y-182743010D01*
X220832097Y-182750240D01*
X220845209Y-182781898D01*
X220845210Y-182781900D01*
X220845211Y-182781901D01*
X220878921Y-182832351D01*
X220913774Y-182867203D01*
X220917153Y-182869461D01*
X220948621Y-182916551D01*
X220937573Y-182972100D01*
X220917164Y-182992513D01*
X220913777Y-182994776D01*
X220913771Y-182994781D01*
X220878922Y-183029629D01*
X220878922Y-183029630D01*
X220845210Y-183080082D01*
X220829103Y-183118970D01*
X220829100Y-183118979D01*
X220822747Y-183142688D01*
X220788268Y-183187621D01*
X220765707Y-183196112D01*
X220737402Y-183201742D01*
X220687827Y-183234867D01*
X220589182Y-183333512D01*
X220556057Y-183383087D01*
X220548864Y-183419251D01*
X220517398Y-183466343D01*
X220490723Y-183477392D01*
X220454559Y-183484585D01*
X220404984Y-183517710D01*
X220306339Y-183616355D01*
X220273214Y-183665930D01*
X220266021Y-183702094D01*
X220234555Y-183749186D01*
X220207880Y-183760235D01*
X220171716Y-183767428D01*
X220122141Y-183800553D01*
X220023496Y-183899198D01*
X219990371Y-183948773D01*
X219984212Y-183979739D01*
X219952746Y-184026831D01*
X219921297Y-184038668D01*
X219907603Y-184040471D01*
X219907601Y-184040472D01*
X219868710Y-184056580D01*
X219818258Y-184090292D01*
X219818257Y-184090292D01*
X219783409Y-184125141D01*
X219783408Y-184125142D01*
X219781144Y-184128531D01*
X219734050Y-184159993D01*
X219678501Y-184148940D01*
X219658091Y-184128528D01*
X219655833Y-184125149D01*
X219655831Y-184125146D01*
X219620979Y-184090293D01*
X219570529Y-184056583D01*
X219570528Y-184056582D01*
X219570526Y-184056581D01*
X219531638Y-184040474D01*
X219531626Y-184040470D01*
X219507921Y-184034118D01*
X219462988Y-183999639D01*
X219454496Y-183977076D01*
X219451859Y-183963817D01*
X219448867Y-183948774D01*
X219415739Y-183899195D01*
X219317100Y-183800556D01*
X219267521Y-183767428D01*
X219189290Y-183751868D01*
X219189288Y-183751868D01*
X219111057Y-183767428D01*
X219061478Y-183800555D01*
X219061476Y-183800557D01*
X218896309Y-183965723D01*
X218872302Y-183981764D01*
X218814804Y-184005580D01*
X218814801Y-184005582D01*
X217676948Y-185143434D01*
X217624622Y-185165108D01*
X217592515Y-185157780D01*
X217486365Y-185106661D01*
X217355810Y-185086983D01*
X217355802Y-185086983D01*
X217225246Y-185106661D01*
X217106285Y-185163949D01*
X217106284Y-185163950D01*
X217083400Y-185182910D01*
X216672910Y-185593400D01*
X216653950Y-185616284D01*
X216653949Y-185616285D01*
X216596661Y-185735246D01*
X216576983Y-185865802D01*
X216576983Y-185865809D01*
X216596661Y-185996366D01*
X216598296Y-186001666D01*
X216596920Y-186002090D01*
X216599765Y-186052768D01*
X216582244Y-186080651D01*
X216447401Y-186215494D01*
X216395075Y-186237168D01*
X216362971Y-186229842D01*
X216360368Y-186228588D01*
X216356367Y-186226662D01*
X216356365Y-186226661D01*
X216356364Y-186226661D01*
X216225810Y-186206983D01*
X216225802Y-186206983D01*
X216095246Y-186226661D01*
X215976285Y-186283949D01*
X215976284Y-186283950D01*
X215953400Y-186302910D01*
X215698484Y-186557826D01*
X215646158Y-186579500D01*
X215097255Y-186579500D01*
X215044929Y-186557826D01*
X214961603Y-186474500D01*
X214856614Y-186369511D01*
X214856611Y-186369509D01*
X214856610Y-186369508D01*
X214753891Y-186310203D01*
X214753888Y-186310202D01*
X214753887Y-186310201D01*
X214753885Y-186310200D01*
X214753884Y-186310200D01*
X214726685Y-186302912D01*
X214639311Y-186279500D01*
X214639309Y-186279500D01*
X214090540Y-186279500D01*
X214053542Y-186269587D01*
X214043186Y-186263608D01*
X214043182Y-186263607D01*
X214043181Y-186263606D01*
X213915894Y-186229500D01*
X213915892Y-186229500D01*
X213784108Y-186229500D01*
X213784106Y-186229500D01*
X213656818Y-186263606D01*
X213656809Y-186263610D01*
X213542685Y-186329500D01*
X213449500Y-186422685D01*
X213383610Y-186536809D01*
X213383606Y-186536818D01*
X213349500Y-186664105D01*
X213349500Y-186795894D01*
X213383606Y-186923181D01*
X213383610Y-186923190D01*
X213400931Y-186953190D01*
X213449500Y-187037314D01*
X213542686Y-187130500D01*
X213656814Y-187196392D01*
X213784105Y-187230499D01*
X213784106Y-187230500D01*
X213784108Y-187230500D01*
X213915894Y-187230500D01*
X213915894Y-187230499D01*
X214043186Y-187196392D01*
X214053542Y-187190412D01*
X214090540Y-187180500D01*
X214362745Y-187180500D01*
X214415071Y-187202174D01*
X214603386Y-187390489D01*
X214706113Y-187449799D01*
X214724449Y-187454712D01*
X214820691Y-187480500D01*
X215734547Y-187480500D01*
X215786873Y-187502174D01*
X216041793Y-187757094D01*
X216055510Y-187768458D01*
X216064673Y-187776050D01*
X216183633Y-187833338D01*
X216209745Y-187837273D01*
X216314190Y-187853017D01*
X216314194Y-187853017D01*
X216314198Y-187853017D01*
X216401234Y-187839897D01*
X216444755Y-187833338D01*
X216563715Y-187776050D01*
X216586603Y-187757087D01*
X216997087Y-187346603D01*
X217016050Y-187323715D01*
X217073338Y-187204755D01*
X217093017Y-187074194D01*
X217093017Y-187074190D01*
X217073338Y-186943633D01*
X217070159Y-186937031D01*
X217066982Y-186880483D01*
X217084502Y-186852599D01*
X217215848Y-186721253D01*
X217268173Y-186699580D01*
X217300279Y-186706908D01*
X217313632Y-186713338D01*
X217444190Y-186733017D01*
X217444194Y-186733017D01*
X217444198Y-186733017D01*
X217531234Y-186719897D01*
X217574755Y-186713338D01*
X217693715Y-186656050D01*
X217716603Y-186637087D01*
X218127087Y-186226603D01*
X218146050Y-186203715D01*
X218203338Y-186084755D01*
X218215862Y-186001666D01*
X218223017Y-185954197D01*
X218223017Y-185954190D01*
X218203338Y-185823634D01*
X218203338Y-185823633D01*
X218146050Y-185704673D01*
X218141836Y-185699587D01*
X218127094Y-185681793D01*
X218074784Y-185629483D01*
X218053110Y-185577157D01*
X218074784Y-185524831D01*
X218720250Y-184879364D01*
X218772575Y-184857691D01*
X218824901Y-184879365D01*
X218826676Y-184881324D01*
X218828307Y-184882955D01*
X218828310Y-184882959D01*
X218899021Y-184953670D01*
X218899024Y-184953672D01*
X218899026Y-184953674D01*
X218949469Y-184987379D01*
X218988360Y-185003488D01*
X219027570Y-185013994D01*
X219107374Y-185003488D01*
X219146265Y-184987379D01*
X219196713Y-184953670D01*
X219655829Y-184494553D01*
X219658085Y-184491175D01*
X219705173Y-184459704D01*
X219760723Y-184470748D01*
X219781144Y-184491165D01*
X219783402Y-184494544D01*
X219783405Y-184494548D01*
X219783408Y-184494552D01*
X219897241Y-184608385D01*
X219910454Y-184628160D01*
X219910769Y-184627979D01*
X219950778Y-184697277D01*
X219950779Y-184697278D01*
X219950781Y-184697281D01*
X222968801Y-187715301D01*
X222968800Y-187715301D01*
X223010587Y-187757087D01*
X223021957Y-187768457D01*
X223087059Y-187806044D01*
X223159671Y-187825500D01*
X227007034Y-187825500D01*
X227059360Y-187847174D01*
X227059500Y-187847314D01*
X227152686Y-187940500D01*
X227266814Y-188006392D01*
X227394105Y-188040499D01*
X227394106Y-188040500D01*
X227394108Y-188040500D01*
X227525894Y-188040500D01*
X227525894Y-188040499D01*
X227653186Y-188006392D01*
X227767314Y-187940500D01*
X227860500Y-187847314D01*
X227860505Y-187847303D01*
X227861787Y-187845635D01*
X227862714Y-187845099D01*
X227863930Y-187843884D01*
X227864255Y-187844209D01*
X227910834Y-187817312D01*
X227965543Y-187831965D01*
X227993866Y-187881012D01*
X227994500Y-187890678D01*
X227994500Y-195881090D01*
X227972826Y-195933416D01*
X227083416Y-196822826D01*
X227031090Y-196844500D01*
X224474905Y-196844500D01*
X224422579Y-196822826D01*
X224404527Y-196793367D01*
X224362550Y-196664175D01*
X224362547Y-196664171D01*
X224362547Y-196664168D01*
X224276760Y-196495801D01*
X224241921Y-196447850D01*
X224165693Y-196342931D01*
X224165692Y-196342930D01*
X224165690Y-196342927D01*
X224032073Y-196209310D01*
X224032070Y-196209307D01*
X224032068Y-196209306D01*
X223879198Y-196098239D01*
X223710824Y-196012449D01*
X223531128Y-195954062D01*
X223531115Y-195954059D01*
X223344482Y-195924500D01*
X223344481Y-195924500D01*
X223155519Y-195924500D01*
X223155518Y-195924500D01*
X222968884Y-195954059D01*
X222968871Y-195954062D01*
X222789175Y-196012449D01*
X222620801Y-196098239D01*
X222467931Y-196209306D01*
X222334306Y-196342931D01*
X222223239Y-196495801D01*
X222137449Y-196664175D01*
X222079062Y-196843871D01*
X222079059Y-196843884D01*
X222049500Y-197030518D01*
X222049500Y-197219481D01*
X222079059Y-197406115D01*
X222079062Y-197406128D01*
X222137449Y-197585824D01*
X222137452Y-197585831D01*
X222137453Y-197585832D01*
X222223240Y-197754199D01*
X222334310Y-197907073D01*
X222467927Y-198040690D01*
X222620801Y-198151760D01*
X222789168Y-198237547D01*
X222789171Y-198237547D01*
X222789175Y-198237550D01*
X222968871Y-198295937D01*
X222968877Y-198295938D01*
X222968882Y-198295940D01*
X223006582Y-198301911D01*
X223054873Y-198331504D01*
X223068095Y-198386576D01*
X223038502Y-198434867D01*
X223006582Y-198448089D01*
X222968884Y-198454059D01*
X222968871Y-198454062D01*
X222789175Y-198512449D01*
X222620801Y-198598239D01*
X222467931Y-198709306D01*
X222334306Y-198842931D01*
X222223239Y-198995801D01*
X222137449Y-199164175D01*
X222079062Y-199343871D01*
X222079059Y-199343884D01*
X222049500Y-199530518D01*
X222049500Y-199719481D01*
X222079059Y-199906115D01*
X222079062Y-199906128D01*
X222137449Y-200085824D01*
X222137452Y-200085831D01*
X222137453Y-200085832D01*
X222223240Y-200254199D01*
X222334310Y-200407073D01*
X222467927Y-200540690D01*
X222620801Y-200651760D01*
X222789168Y-200737547D01*
X222789171Y-200737547D01*
X222789175Y-200737550D01*
X222920198Y-200780122D01*
X222963265Y-200816905D01*
X222967709Y-200873367D01*
X222930926Y-200916434D01*
X222897331Y-200924500D01*
X222230252Y-200924500D01*
X222201010Y-200930316D01*
X222171767Y-200936133D01*
X222105449Y-200980447D01*
X222105447Y-200980449D01*
X222061133Y-201046767D01*
X222049500Y-201105253D01*
X222049500Y-203144746D01*
X222061133Y-203203232D01*
X222090608Y-203247343D01*
X222105448Y-203269552D01*
X222144935Y-203295937D01*
X222171767Y-203313866D01*
X222171768Y-203313866D01*
X222171769Y-203313867D01*
X222230252Y-203325500D01*
X222230254Y-203325500D01*
X224269746Y-203325500D01*
X224269748Y-203325500D01*
X224328231Y-203313867D01*
X224394552Y-203269552D01*
X224438867Y-203203231D01*
X224450500Y-203144748D01*
X224450500Y-201105252D01*
X224438867Y-201046769D01*
X224394552Y-200980448D01*
X224372343Y-200965608D01*
X224328232Y-200936133D01*
X224328233Y-200936133D01*
X224298989Y-200930316D01*
X224269748Y-200924500D01*
X223602669Y-200924500D01*
X223550343Y-200902826D01*
X223528669Y-200850500D01*
X223550343Y-200798174D01*
X223579802Y-200780122D01*
X223710824Y-200737550D01*
X223710826Y-200737548D01*
X223710832Y-200737547D01*
X223879199Y-200651760D01*
X224032073Y-200540690D01*
X224165690Y-200407073D01*
X224276760Y-200254199D01*
X224362547Y-200085832D01*
X224420940Y-199906118D01*
X224450500Y-199719481D01*
X224450500Y-199530519D01*
X224420940Y-199343882D01*
X224420938Y-199343877D01*
X224420937Y-199343871D01*
X224362550Y-199164175D01*
X224362547Y-199164171D01*
X224362547Y-199164168D01*
X224276760Y-198995801D01*
X224165690Y-198842927D01*
X224032073Y-198709310D01*
X224032070Y-198709307D01*
X224032068Y-198709306D01*
X223879198Y-198598239D01*
X223710824Y-198512449D01*
X223531128Y-198454062D01*
X223531115Y-198454059D01*
X223502706Y-198449560D01*
X223493416Y-198448088D01*
X223445126Y-198418496D01*
X223431904Y-198363424D01*
X223461497Y-198315133D01*
X223493416Y-198301911D01*
X223531118Y-198295940D01*
X223531125Y-198295937D01*
X223531128Y-198295937D01*
X223710824Y-198237550D01*
X223710826Y-198237548D01*
X223710832Y-198237547D01*
X223879199Y-198151760D01*
X224032073Y-198040690D01*
X224165690Y-197907073D01*
X224276760Y-197754199D01*
X224362547Y-197585832D01*
X224372662Y-197554704D01*
X224401278Y-197466633D01*
X224438061Y-197423565D01*
X224471656Y-197415500D01*
X226919748Y-197415500D01*
X226956748Y-197425414D01*
X226999000Y-197449808D01*
X227009801Y-197456044D01*
X227082413Y-197475500D01*
X227082415Y-197475500D01*
X227157585Y-197475500D01*
X227157587Y-197475500D01*
X227230199Y-197456044D01*
X227295301Y-197418457D01*
X228508457Y-196205301D01*
X228546044Y-196140199D01*
X228565500Y-196067587D01*
X228565500Y-195992413D01*
X228565500Y-186822413D01*
X228546044Y-186749801D01*
X228508457Y-186684699D01*
X228487863Y-186664105D01*
X228455301Y-186631542D01*
X228455301Y-186631543D01*
X227465301Y-185641543D01*
X227465298Y-185641541D01*
X227465297Y-185641540D01*
X227400203Y-185603958D01*
X227400201Y-185603957D01*
X227400200Y-185603956D01*
X227400199Y-185603956D01*
X227327587Y-185584500D01*
X227327585Y-185584500D01*
X222807539Y-185584500D01*
X222755213Y-185562826D01*
X221388391Y-184196004D01*
X221366717Y-184143678D01*
X221388390Y-184091353D01*
X221466349Y-184013395D01*
X221499477Y-183963816D01*
X221505636Y-183932848D01*
X221537099Y-183885759D01*
X221568556Y-183873919D01*
X221582249Y-183872117D01*
X221621140Y-183856008D01*
X221671588Y-183822299D01*
X221742299Y-183751588D01*
X221776008Y-183701140D01*
X221792117Y-183662249D01*
X221802623Y-183623039D01*
X221792117Y-183543235D01*
X221776008Y-183504344D01*
X221776007Y-183504343D01*
X221742303Y-183453901D01*
X221742300Y-183453898D01*
X221742299Y-183453896D01*
X221283182Y-182994780D01*
X221283176Y-182994776D01*
X221279798Y-182992519D01*
X221248332Y-182945427D01*
X221259381Y-182889878D01*
X221279800Y-182869460D01*
X221283181Y-182867201D01*
X221742298Y-182408085D01*
X221776007Y-182357637D01*
X221792116Y-182318746D01*
X221802622Y-182279536D01*
X221792116Y-182199732D01*
X221776007Y-182160841D01*
X221775368Y-182159885D01*
X221742302Y-182110398D01*
X221742300Y-182110396D01*
X221742298Y-182110393D01*
X221671587Y-182039682D01*
X221671583Y-182039679D01*
X221671581Y-182039677D01*
X221621138Y-182005972D01*
X221582248Y-181989864D01*
X221582236Y-181989860D01*
X221558531Y-181983508D01*
X221513598Y-181949029D01*
X221505106Y-181926466D01*
X221502469Y-181913207D01*
X221499477Y-181898164D01*
X221466349Y-181848585D01*
X221367710Y-181749946D01*
X221318131Y-181716818D01*
X221318132Y-181716818D01*
X221281967Y-181709625D01*
X221234875Y-181678159D01*
X221223826Y-181651482D01*
X221221274Y-181638652D01*
X221216634Y-181615321D01*
X221183506Y-181565742D01*
X221084867Y-181467103D01*
X221035288Y-181433975D01*
X221035289Y-181433975D01*
X220999124Y-181426782D01*
X220952032Y-181395316D01*
X220940983Y-181368639D01*
X220940744Y-181367436D01*
X220933791Y-181332478D01*
X220900663Y-181282899D01*
X220802024Y-181184260D01*
X220752445Y-181151132D01*
X220721478Y-181144972D01*
X220674387Y-181113508D01*
X220662548Y-181082051D01*
X220660746Y-181068363D01*
X220660746Y-181068361D01*
X220660746Y-181068360D01*
X220644637Y-181029469D01*
X220621271Y-180994500D01*
X220610932Y-180979026D01*
X220610930Y-180979024D01*
X220610928Y-180979021D01*
X220540217Y-180908310D01*
X220540213Y-180908307D01*
X220540211Y-180908305D01*
X220489768Y-180874600D01*
X220450878Y-180858492D01*
X220450877Y-180858491D01*
X220422173Y-180850800D01*
X220411668Y-180847986D01*
X220411667Y-180847986D01*
X220331866Y-180858491D01*
X220331862Y-180858492D01*
X220292973Y-180874600D01*
X220242530Y-180908305D01*
X220242527Y-180908308D01*
X219783407Y-181367429D01*
X219783403Y-181367434D01*
X219781145Y-181370814D01*
X219734051Y-181402277D01*
X219678503Y-181391224D01*
X219658092Y-181370812D01*
X219655836Y-181367436D01*
X219655831Y-181367430D01*
X219655830Y-181367428D01*
X219196714Y-180908311D01*
X219196710Y-180908308D01*
X219196708Y-180908306D01*
X219146265Y-180874601D01*
X219107375Y-180858493D01*
X219107374Y-180858492D01*
X219078670Y-180850801D01*
X219068165Y-180847987D01*
X219068164Y-180847987D01*
X218988363Y-180858492D01*
X218988359Y-180858493D01*
X218949470Y-180874601D01*
X218899027Y-180908306D01*
X218828306Y-180979027D01*
X218794601Y-181029470D01*
X218778493Y-181068360D01*
X218778490Y-181068369D01*
X218772137Y-181092078D01*
X218737658Y-181137011D01*
X218715097Y-181145502D01*
X218686792Y-181151132D01*
X218637217Y-181184257D01*
X218538572Y-181282902D01*
X218505447Y-181332477D01*
X218498254Y-181368641D01*
X218466788Y-181415733D01*
X218440113Y-181426782D01*
X218403949Y-181433975D01*
X218354374Y-181467100D01*
X218255729Y-181565745D01*
X218222604Y-181615320D01*
X218215411Y-181651484D01*
X218183945Y-181698576D01*
X218157270Y-181709625D01*
X218121106Y-181716818D01*
X218071531Y-181749943D01*
X217986500Y-181834974D01*
X217934174Y-181856648D01*
X217881848Y-181834974D01*
X217685526Y-181638652D01*
X217083316Y-181036443D01*
X217066482Y-181029470D01*
X216982058Y-180994500D01*
X216982057Y-180994500D01*
X208487365Y-180994500D01*
X208435039Y-180972826D01*
X208423281Y-180957502D01*
X208420500Y-180952686D01*
X208327314Y-180859500D01*
X208307371Y-180847986D01*
X208213190Y-180793610D01*
X208213181Y-180793606D01*
X208085894Y-180759500D01*
X208085892Y-180759500D01*
X207954108Y-180759500D01*
X207954106Y-180759500D01*
X207826818Y-180793606D01*
X207826809Y-180793610D01*
X207712685Y-180859500D01*
X207619500Y-180952685D01*
X207553610Y-181066809D01*
X207553606Y-181066818D01*
X207519500Y-181194105D01*
X207519500Y-181325894D01*
X207553606Y-181453181D01*
X207553610Y-181453190D01*
X207619500Y-181567314D01*
X207647826Y-181595640D01*
X207669500Y-181647966D01*
X207669500Y-182616896D01*
X207647826Y-182669222D01*
X207595500Y-182690896D01*
X207567183Y-182685264D01*
X207563181Y-182683606D01*
X207435894Y-182649500D01*
X207435892Y-182649500D01*
X207395834Y-182649500D01*
X207343508Y-182627826D01*
X207072174Y-182356492D01*
X207050500Y-182304166D01*
X207050500Y-180184105D01*
X215349500Y-180184105D01*
X215349500Y-180315894D01*
X215383606Y-180443181D01*
X215383607Y-180443184D01*
X215383608Y-180443186D01*
X215449500Y-180557314D01*
X215542686Y-180650500D01*
X215656814Y-180716392D01*
X215784105Y-180750499D01*
X215784106Y-180750500D01*
X215784108Y-180750500D01*
X215915894Y-180750500D01*
X215915894Y-180750499D01*
X216043186Y-180716392D01*
X216157314Y-180650500D01*
X216250500Y-180557314D01*
X216316392Y-180443186D01*
X216350499Y-180315894D01*
X216350500Y-180315894D01*
X216350500Y-180183909D01*
X216372174Y-180131583D01*
X216775931Y-179727826D01*
X217498457Y-179005301D01*
X217536044Y-178940199D01*
X217555500Y-178867587D01*
X217555500Y-178792413D01*
X217555500Y-172572966D01*
X217577174Y-172520640D01*
X217577314Y-172520500D01*
X217670500Y-172427314D01*
X217736392Y-172313186D01*
X217770499Y-172185894D01*
X217770500Y-172185894D01*
X217770500Y-172054106D01*
X217770499Y-172054105D01*
X217736393Y-171926818D01*
X217736392Y-171926814D01*
X217670500Y-171812686D01*
X217577314Y-171719500D01*
X217463190Y-171653610D01*
X217463181Y-171653606D01*
X217335894Y-171619500D01*
X217335892Y-171619500D01*
X217324501Y-171619500D01*
X217272175Y-171597826D01*
X217250501Y-171545500D01*
X217250501Y-149622544D01*
X217272175Y-149570218D01*
X217315976Y-149549037D01*
X217327663Y-149547682D01*
X217427017Y-149503813D01*
X217503814Y-149427016D01*
X217547683Y-149327662D01*
X217550501Y-149303373D01*
X217550500Y-147896628D01*
X217547683Y-147872338D01*
X217503814Y-147772984D01*
X217427017Y-147696187D01*
X217327663Y-147652318D01*
X217327664Y-147652318D01*
X217322805Y-147651754D01*
X217303374Y-147649500D01*
X217303370Y-147649500D01*
X216496628Y-147649500D01*
X216472341Y-147652317D01*
X216372984Y-147696187D01*
X216296188Y-147772983D01*
X216252319Y-147872337D01*
X216249501Y-147896630D01*
X216249501Y-149303372D01*
X216252318Y-149327659D01*
X216252318Y-149327661D01*
X216252319Y-149327662D01*
X216296188Y-149427016D01*
X216372985Y-149503813D01*
X216472339Y-149547682D01*
X216484028Y-149549038D01*
X216533507Y-149576595D01*
X216549501Y-149622544D01*
X216549501Y-171796147D01*
X216573385Y-171885285D01*
X216573387Y-171885290D01*
X216619531Y-171965213D01*
X216747826Y-172093508D01*
X216769500Y-172145834D01*
X216769500Y-172185894D01*
X216803606Y-172313181D01*
X216803610Y-172313190D01*
X216869500Y-172427314D01*
X216962826Y-172520640D01*
X216984500Y-172572966D01*
X216984500Y-178681089D01*
X216962826Y-178733415D01*
X215968415Y-179727826D01*
X215916089Y-179749500D01*
X215784106Y-179749500D01*
X215656818Y-179783606D01*
X215656809Y-179783610D01*
X215542685Y-179849500D01*
X215449500Y-179942685D01*
X215383610Y-180056809D01*
X215383606Y-180056818D01*
X215349500Y-180184105D01*
X207050500Y-180184105D01*
X207050500Y-178833077D01*
X207072174Y-178780751D01*
X207096182Y-178764710D01*
X207150226Y-178742324D01*
X207150225Y-178742324D01*
X207150231Y-178742322D01*
X207305908Y-178638302D01*
X207438302Y-178505908D01*
X207542322Y-178350231D01*
X207613973Y-178177251D01*
X207650500Y-177993616D01*
X207650500Y-177806384D01*
X207613973Y-177622749D01*
X207542322Y-177449769D01*
X207438302Y-177294092D01*
X207305908Y-177161698D01*
X207150231Y-177057678D01*
X207150228Y-177057676D01*
X207150227Y-177057676D01*
X206977251Y-176986027D01*
X206977244Y-176986025D01*
X206838902Y-176958507D01*
X206793616Y-176949500D01*
X206606384Y-176949500D01*
X206570056Y-176956725D01*
X206422755Y-176986025D01*
X206422748Y-176986027D01*
X206249772Y-177057676D01*
X206094092Y-177161697D01*
X206094091Y-177161699D01*
X205961699Y-177294091D01*
X205961697Y-177294092D01*
X205857676Y-177449772D01*
X205786027Y-177622748D01*
X205786025Y-177622755D01*
X205749500Y-177806384D01*
X205749500Y-177993615D01*
X205786025Y-178177244D01*
X205786027Y-178177251D01*
X205857678Y-178350231D01*
X205961698Y-178505908D01*
X206094092Y-178638302D01*
X206249769Y-178742322D01*
X206249774Y-178742324D01*
X206249773Y-178742324D01*
X206303818Y-178764710D01*
X206343867Y-178804758D01*
X206349500Y-178833077D01*
X206349500Y-182526145D01*
X206354042Y-182543094D01*
X206365299Y-182585105D01*
X206373386Y-182615288D01*
X206417119Y-182691037D01*
X206418378Y-182693679D01*
X206419704Y-182719263D01*
X206423047Y-182744653D01*
X206421149Y-182747125D01*
X206421311Y-182750240D01*
X206404160Y-182769266D01*
X206388569Y-182789586D01*
X206384976Y-182790548D01*
X206383390Y-182792309D01*
X206377210Y-182792629D01*
X206351569Y-182799500D01*
X205583854Y-182799500D01*
X205494715Y-182823384D01*
X205494710Y-182823386D01*
X205414790Y-182869528D01*
X204576826Y-183707492D01*
X204524500Y-183729166D01*
X204472174Y-183707492D01*
X204450500Y-183655166D01*
X204450500Y-155400809D01*
X204472174Y-155348483D01*
X212648483Y-147172174D01*
X212700809Y-147150500D01*
X216243992Y-147150500D01*
X216243994Y-147150500D01*
X216379328Y-147123580D01*
X216506811Y-147070775D01*
X216621543Y-146994114D01*
X216868481Y-146747174D01*
X216920807Y-146725501D01*
X216968992Y-146725501D01*
X216968994Y-146725501D01*
X217104329Y-146698581D01*
X217231812Y-146645776D01*
X217346543Y-146569115D01*
X217444115Y-146471543D01*
X217520776Y-146356812D01*
X217573581Y-146229329D01*
X217600501Y-146093994D01*
X217600501Y-145956008D01*
X217573581Y-145820673D01*
X217520776Y-145693190D01*
X217462971Y-145606678D01*
X217450500Y-145565566D01*
X217450500Y-144610982D01*
X217472174Y-144558656D01*
X217503814Y-144527016D01*
X217547683Y-144427662D01*
X217550501Y-144403373D01*
X217550500Y-144070807D01*
X217572173Y-144018483D01*
X219964114Y-141626544D01*
X220040775Y-141511812D01*
X220093580Y-141384330D01*
X220098934Y-141357410D01*
X220120500Y-141248994D01*
X220120500Y-140193091D01*
X220124652Y-140168652D01*
X220162725Y-140059849D01*
X220165500Y-140030256D01*
X220165500Y-139449744D01*
X220162725Y-139420151D01*
X220135500Y-139342347D01*
X220124653Y-139311348D01*
X220120500Y-139286907D01*
X220120500Y-123158022D01*
X220122205Y-123142230D01*
X220122723Y-123139854D01*
X220122722Y-123139854D01*
X220122725Y-123139849D01*
X220125500Y-123110256D01*
X220125500Y-122529744D01*
X220122725Y-122500151D01*
X220122724Y-122500147D01*
X220122203Y-122497761D01*
X220120500Y-122481976D01*
X220120500Y-122181008D01*
X220093581Y-122045677D01*
X220093580Y-122045676D01*
X220093580Y-122045672D01*
X220040775Y-121918189D01*
X219964114Y-121803457D01*
X217792983Y-119632326D01*
X217771309Y-119580000D01*
X217792983Y-119527674D01*
X219964113Y-117356544D01*
X219964114Y-117356543D01*
X220040775Y-117241811D01*
X220093580Y-117114328D01*
X220120500Y-116978994D01*
X220120500Y-116841006D01*
X220120500Y-99443091D01*
X220124652Y-99418652D01*
X220162725Y-99309849D01*
X220165500Y-99280256D01*
X220165500Y-98699744D01*
X220162725Y-98670151D01*
X220135500Y-98592347D01*
X220124653Y-98561348D01*
X220120500Y-98536907D01*
X220120500Y-98061008D01*
X220093581Y-97925677D01*
X220093580Y-97925676D01*
X220093580Y-97925672D01*
X220040775Y-97798189D01*
X219964114Y-97683457D01*
X217792983Y-95512326D01*
X217771309Y-95460000D01*
X217792983Y-95407674D01*
X219964113Y-93236544D01*
X219964114Y-93236543D01*
X220040775Y-93121811D01*
X220093580Y-92994328D01*
X220120500Y-92858994D01*
X220120500Y-92721006D01*
X220120500Y-75690236D01*
X220124653Y-75665795D01*
X220144654Y-75608638D01*
X220165225Y-75549849D01*
X220168000Y-75520256D01*
X220168000Y-74939744D01*
X220165225Y-74910151D01*
X220124653Y-74794204D01*
X220120500Y-74769763D01*
X220120500Y-73941008D01*
X220093581Y-73805677D01*
X220093580Y-73805676D01*
X220093580Y-73805672D01*
X220040775Y-73678189D01*
X219964114Y-73563457D01*
X217792983Y-71392326D01*
X217771309Y-71340000D01*
X217792983Y-71287674D01*
X219964113Y-69116544D01*
X219964114Y-69116543D01*
X220040775Y-69001811D01*
X220093580Y-68874328D01*
X220120500Y-68738994D01*
X220120500Y-68601006D01*
X220120500Y-51325935D01*
X220124653Y-51301494D01*
X220142723Y-51249854D01*
X220142725Y-51249849D01*
X220145500Y-51220256D01*
X220145500Y-50639744D01*
X220142725Y-50610151D01*
X220124652Y-50558504D01*
X220120500Y-50534063D01*
X220120500Y-49821008D01*
X220093581Y-49685677D01*
X220093580Y-49685676D01*
X220093580Y-49685672D01*
X220040775Y-49558189D01*
X219964114Y-49443457D01*
X217598702Y-47078045D01*
X217580747Y-47048883D01*
X217579333Y-47044595D01*
X217573581Y-47015672D01*
X217555081Y-46971009D01*
X217554219Y-46968394D01*
X217554461Y-46965143D01*
X217550500Y-46945230D01*
X217550500Y-46516627D01*
X217547683Y-46492340D01*
X217547683Y-46492338D01*
X217503814Y-46392984D01*
X217427017Y-46316187D01*
X217327663Y-46272318D01*
X217327664Y-46272318D01*
X217322805Y-46271754D01*
X217303374Y-46269500D01*
X217303370Y-46269500D01*
X216496628Y-46269500D01*
X216472341Y-46272317D01*
X216372984Y-46316187D01*
X216296188Y-46392983D01*
X216252319Y-46492337D01*
X216249501Y-46516630D01*
X216249501Y-46945231D01*
X216243869Y-46973548D01*
X216226420Y-47015675D01*
X216226419Y-47015677D01*
X216199501Y-47151008D01*
X216199501Y-47438993D01*
X216226419Y-47574323D01*
X216226420Y-47574325D01*
X216226421Y-47574329D01*
X216243869Y-47616455D01*
X216249501Y-47644769D01*
X216249501Y-47923372D01*
X216252318Y-47947659D01*
X216252318Y-47947661D01*
X216252319Y-47947662D01*
X216296188Y-48047016D01*
X216372985Y-48123813D01*
X216472339Y-48167682D01*
X216496628Y-48170500D01*
X216679190Y-48170499D01*
X216731516Y-48192173D01*
X218697826Y-50158483D01*
X218719500Y-50210809D01*
X218719500Y-50462618D01*
X218715347Y-50487059D01*
X218672276Y-50610145D01*
X218672275Y-50610149D01*
X218672275Y-50610151D01*
X218669500Y-50639744D01*
X218669500Y-51220256D01*
X218672275Y-51249849D01*
X218672275Y-51249851D01*
X218672276Y-51249854D01*
X218715347Y-51372940D01*
X218719500Y-51397381D01*
X218719500Y-68349190D01*
X218697826Y-68401516D01*
X216731515Y-70367826D01*
X216679189Y-70389500D01*
X216496628Y-70389500D01*
X216472341Y-70392317D01*
X216372984Y-70436187D01*
X216296188Y-70512983D01*
X216252319Y-70612337D01*
X216249501Y-70636630D01*
X216249501Y-70915231D01*
X216243868Y-70943549D01*
X216226422Y-70985666D01*
X216226419Y-70985676D01*
X216199501Y-71121007D01*
X216199501Y-71558993D01*
X216226419Y-71694323D01*
X216226420Y-71694325D01*
X216226421Y-71694329D01*
X216243869Y-71736455D01*
X216249501Y-71764769D01*
X216249501Y-72043372D01*
X216252318Y-72067659D01*
X216252318Y-72067661D01*
X216252319Y-72067662D01*
X216296188Y-72167016D01*
X216372985Y-72243813D01*
X216472339Y-72287682D01*
X216496628Y-72290500D01*
X216679190Y-72290499D01*
X216731516Y-72312173D01*
X218697826Y-74278483D01*
X218719500Y-74330809D01*
X218719500Y-74826918D01*
X218715347Y-74851359D01*
X218694776Y-74910144D01*
X218694775Y-74910149D01*
X218694775Y-74910151D01*
X218692000Y-74939744D01*
X218692000Y-75520256D01*
X218693535Y-75536627D01*
X218694775Y-75549853D01*
X218709537Y-75592036D01*
X218715347Y-75608641D01*
X218719500Y-75633080D01*
X218719500Y-92469190D01*
X218697826Y-92521516D01*
X216731515Y-94487826D01*
X216679189Y-94509500D01*
X216496628Y-94509500D01*
X216472341Y-94512317D01*
X216372984Y-94556187D01*
X216296188Y-94632983D01*
X216252319Y-94732337D01*
X216249501Y-94756630D01*
X216249501Y-95035231D01*
X216243868Y-95063549D01*
X216226422Y-95105666D01*
X216226419Y-95105676D01*
X216199501Y-95241007D01*
X216199501Y-95678993D01*
X216226419Y-95814323D01*
X216226420Y-95814325D01*
X216226421Y-95814329D01*
X216243869Y-95856455D01*
X216249501Y-95884769D01*
X216249501Y-96163372D01*
X216252318Y-96187659D01*
X216252318Y-96187661D01*
X216252319Y-96187662D01*
X216296188Y-96287016D01*
X216372985Y-96363813D01*
X216472339Y-96407682D01*
X216496628Y-96410500D01*
X216679190Y-96410499D01*
X216731516Y-96432173D01*
X218697826Y-98398483D01*
X218719500Y-98450809D01*
X218719500Y-98579774D01*
X218715347Y-98604215D01*
X218692276Y-98670145D01*
X218692275Y-98670149D01*
X218692275Y-98670151D01*
X218689500Y-98699744D01*
X218689500Y-99280256D01*
X218691878Y-99305621D01*
X218692275Y-99309850D01*
X218715347Y-99375783D01*
X218719500Y-99400224D01*
X218719500Y-116589190D01*
X218697826Y-116641516D01*
X216731515Y-118607826D01*
X216679189Y-118629500D01*
X216496628Y-118629500D01*
X216472341Y-118632317D01*
X216372984Y-118676187D01*
X216296188Y-118752983D01*
X216252319Y-118852337D01*
X216249501Y-118876630D01*
X216249501Y-119155231D01*
X216243868Y-119183549D01*
X216226422Y-119225666D01*
X216226419Y-119225676D01*
X216199501Y-119361007D01*
X216199501Y-119798993D01*
X216226419Y-119934323D01*
X216226420Y-119934325D01*
X216226421Y-119934329D01*
X216243869Y-119976455D01*
X216249501Y-120004769D01*
X216249501Y-120283372D01*
X216252318Y-120307659D01*
X216252318Y-120307661D01*
X216252319Y-120307662D01*
X216296188Y-120407016D01*
X216372985Y-120483813D01*
X216472339Y-120527682D01*
X216496628Y-120530500D01*
X216679190Y-120530499D01*
X216731516Y-120552173D01*
X218630010Y-122450667D01*
X218651684Y-122502993D01*
X218651361Y-122509895D01*
X218649500Y-122529744D01*
X218649500Y-123110256D01*
X218652275Y-123139849D01*
X218652275Y-123139851D01*
X218652276Y-123139854D01*
X218695883Y-123264473D01*
X218705039Y-123276879D01*
X218719500Y-123320823D01*
X218719500Y-139329774D01*
X218715347Y-139354215D01*
X218692276Y-139420145D01*
X218692275Y-139420149D01*
X218692275Y-139420151D01*
X218689500Y-139449744D01*
X218689500Y-140030256D01*
X218691878Y-140055621D01*
X218692275Y-140059850D01*
X218715347Y-140125783D01*
X218719500Y-140150224D01*
X218719500Y-140859191D01*
X218697826Y-140911517D01*
X216881516Y-142727826D01*
X216829190Y-142749500D01*
X216496628Y-142749500D01*
X216472341Y-142752317D01*
X216372984Y-142796187D01*
X216296188Y-142872983D01*
X216252319Y-142972337D01*
X216249501Y-142996630D01*
X216249501Y-143329190D01*
X216227828Y-143381515D01*
X216205885Y-143403458D01*
X216129224Y-143518190D01*
X216076421Y-143645668D01*
X216076418Y-143645678D01*
X216049500Y-143781009D01*
X216049500Y-145554191D01*
X216027826Y-145606517D01*
X215906517Y-145727826D01*
X215854191Y-145749500D01*
X212448994Y-145749500D01*
X212311006Y-145749500D01*
X212272640Y-145757131D01*
X212175677Y-145776418D01*
X212175667Y-145776421D01*
X212048189Y-145829224D01*
X211933457Y-145905885D01*
X211933456Y-145905887D01*
X203205887Y-154633456D01*
X203205885Y-154633457D01*
X203129224Y-154748189D01*
X203076421Y-154875667D01*
X203076418Y-154875677D01*
X203049500Y-155011008D01*
X203049500Y-243079191D01*
X203027826Y-243131517D01*
X202455890Y-243703452D01*
X202455887Y-243703455D01*
X202455886Y-243703457D01*
X202436941Y-243731811D01*
X202436940Y-243731811D01*
X202379222Y-243818193D01*
X202326421Y-243945667D01*
X202326418Y-243945677D01*
X202299500Y-244081008D01*
X202299500Y-245587880D01*
X202277826Y-245640206D01*
X202249941Y-245657727D01*
X202137118Y-245697206D01*
X202137116Y-245697207D01*
X202027853Y-245777846D01*
X202027846Y-245777853D01*
X201947207Y-245887116D01*
X201947206Y-245887118D01*
X201902355Y-246015295D01*
X201902354Y-246015299D01*
X201902354Y-246015301D01*
X201899500Y-246045734D01*
X200750500Y-246045734D01*
X200750500Y-171545500D01*
X200750500Y-142996630D01*
X212949501Y-142996630D01*
X212949501Y-144403372D01*
X212952318Y-144427659D01*
X212952318Y-144427661D01*
X212952319Y-144427662D01*
X212996188Y-144527016D01*
X213072985Y-144603813D01*
X213172339Y-144647682D01*
X213196628Y-144650500D01*
X214003373Y-144650499D01*
X214027663Y-144647682D01*
X214127017Y-144603813D01*
X214203814Y-144527016D01*
X214247683Y-144427662D01*
X214250501Y-144403373D01*
X214250500Y-142996628D01*
X214247683Y-142972338D01*
X214203814Y-142872984D01*
X214127017Y-142796187D01*
X214027663Y-142752318D01*
X214027664Y-142752318D01*
X214024957Y-142752004D01*
X214015971Y-142750961D01*
X213966493Y-142723401D01*
X213950501Y-142677455D01*
X213950501Y-133325831D01*
X213972174Y-133273506D01*
X217030469Y-130215212D01*
X217076614Y-130135288D01*
X217100499Y-130046146D01*
X217100500Y-130046146D01*
X217100500Y-125504499D01*
X217122174Y-125452173D01*
X217174500Y-125430499D01*
X217303373Y-125430499D01*
X217327663Y-125427682D01*
X217427017Y-125383813D01*
X217503814Y-125307016D01*
X217547683Y-125207662D01*
X217550501Y-125183373D01*
X217550500Y-123776628D01*
X217547683Y-123752338D01*
X217503814Y-123652984D01*
X217427017Y-123576187D01*
X217327663Y-123532318D01*
X217327664Y-123532318D01*
X217322805Y-123531754D01*
X217303374Y-123529500D01*
X217303370Y-123529500D01*
X216496628Y-123529500D01*
X216472341Y-123532317D01*
X216372984Y-123576187D01*
X216296188Y-123652983D01*
X216252319Y-123752337D01*
X216249501Y-123776630D01*
X216249501Y-125183372D01*
X216252318Y-125207659D01*
X216296188Y-125307016D01*
X216377826Y-125388654D01*
X216399500Y-125440980D01*
X216399500Y-129824166D01*
X216377826Y-129876492D01*
X213319531Y-132934786D01*
X213273387Y-133014709D01*
X213273385Y-133014714D01*
X213249501Y-133103852D01*
X213249501Y-142677455D01*
X213227827Y-142729781D01*
X213184027Y-142750962D01*
X213172340Y-142752317D01*
X213072984Y-142796187D01*
X212996188Y-142872983D01*
X212952319Y-142972337D01*
X212949501Y-142996630D01*
X200750500Y-142996630D01*
X200750500Y-118876630D01*
X212949501Y-118876630D01*
X212949501Y-120283372D01*
X212952318Y-120307659D01*
X212952318Y-120307661D01*
X212952319Y-120307662D01*
X212996188Y-120407016D01*
X213072985Y-120483813D01*
X213172339Y-120527682D01*
X213196628Y-120530500D01*
X214003373Y-120530499D01*
X214027663Y-120527682D01*
X214127017Y-120483813D01*
X214203814Y-120407016D01*
X214247683Y-120307662D01*
X214250501Y-120283373D01*
X214250500Y-118876628D01*
X214247683Y-118852338D01*
X214203814Y-118752984D01*
X214127017Y-118676187D01*
X214027663Y-118632318D01*
X214027664Y-118632318D01*
X214022805Y-118631754D01*
X214003374Y-118629500D01*
X214003370Y-118629500D01*
X213874500Y-118629500D01*
X213822174Y-118607826D01*
X213800500Y-118555500D01*
X213800500Y-113125834D01*
X213822174Y-113073508D01*
X214160895Y-112734787D01*
X217030470Y-109865212D01*
X217076614Y-109785288D01*
X217100500Y-109696143D01*
X217100500Y-109603856D01*
X217100500Y-101384499D01*
X217122174Y-101332173D01*
X217174500Y-101310499D01*
X217303373Y-101310499D01*
X217327663Y-101307682D01*
X217427017Y-101263813D01*
X217503814Y-101187016D01*
X217547683Y-101087662D01*
X217550501Y-101063373D01*
X217550500Y-99656628D01*
X217547683Y-99632338D01*
X217503814Y-99532984D01*
X217427017Y-99456187D01*
X217327663Y-99412318D01*
X217327664Y-99412318D01*
X217322805Y-99411754D01*
X217303374Y-99409500D01*
X217303370Y-99409500D01*
X216496628Y-99409500D01*
X216472341Y-99412317D01*
X216372984Y-99456187D01*
X216296188Y-99532983D01*
X216252319Y-99632337D01*
X216249501Y-99656630D01*
X216249501Y-101063372D01*
X216252318Y-101087659D01*
X216296188Y-101187016D01*
X216377826Y-101268654D01*
X216399500Y-101320980D01*
X216399500Y-109474166D01*
X216377826Y-109526492D01*
X213169530Y-112734787D01*
X213123386Y-112814710D01*
X213123384Y-112814715D01*
X213099500Y-112903853D01*
X213099500Y-118619020D01*
X213077826Y-118671346D01*
X212996188Y-118752983D01*
X212952319Y-118852337D01*
X212949501Y-118876630D01*
X200750500Y-118876630D01*
X200750500Y-94756630D01*
X212949501Y-94756630D01*
X212949501Y-96163372D01*
X212952318Y-96187659D01*
X212952318Y-96187661D01*
X212952319Y-96187662D01*
X212996188Y-96287016D01*
X213072985Y-96363813D01*
X213172339Y-96407682D01*
X213196628Y-96410500D01*
X214003373Y-96410499D01*
X214027663Y-96407682D01*
X214127017Y-96363813D01*
X214203814Y-96287016D01*
X214247683Y-96187662D01*
X214250501Y-96163373D01*
X214250500Y-94756628D01*
X214247683Y-94732338D01*
X214203814Y-94632984D01*
X214127017Y-94556187D01*
X214027663Y-94512318D01*
X214027664Y-94512318D01*
X214024957Y-94512004D01*
X214015971Y-94510961D01*
X213966493Y-94483401D01*
X213950501Y-94437455D01*
X213950501Y-85525833D01*
X213972175Y-85473507D01*
X214310896Y-85134786D01*
X217180471Y-82265211D01*
X217226615Y-82185287D01*
X217250501Y-82096142D01*
X217250501Y-82003855D01*
X217250501Y-77262544D01*
X217272175Y-77210218D01*
X217315976Y-77189037D01*
X217327663Y-77187682D01*
X217427017Y-77143813D01*
X217503814Y-77067016D01*
X217547683Y-76967662D01*
X217550501Y-76943373D01*
X217550500Y-75536628D01*
X217547683Y-75512338D01*
X217503814Y-75412984D01*
X217427017Y-75336187D01*
X217327663Y-75292318D01*
X217327664Y-75292318D01*
X217322805Y-75291754D01*
X217303374Y-75289500D01*
X217303370Y-75289500D01*
X216496628Y-75289500D01*
X216472341Y-75292317D01*
X216372984Y-75336187D01*
X216296188Y-75412983D01*
X216252319Y-75512337D01*
X216249501Y-75536630D01*
X216249501Y-76943372D01*
X216252318Y-76967659D01*
X216252318Y-76967661D01*
X216252319Y-76967662D01*
X216296188Y-77067016D01*
X216372985Y-77143813D01*
X216472339Y-77187682D01*
X216484028Y-77189038D01*
X216533507Y-77216595D01*
X216549501Y-77262544D01*
X216549501Y-81874165D01*
X216527827Y-81926491D01*
X213319531Y-85134786D01*
X213273387Y-85214709D01*
X213273385Y-85214714D01*
X213249501Y-85303852D01*
X213249501Y-94437455D01*
X213227827Y-94489781D01*
X213184027Y-94510962D01*
X213172340Y-94512317D01*
X213072984Y-94556187D01*
X212996188Y-94632983D01*
X212952319Y-94732337D01*
X212949501Y-94756630D01*
X200750500Y-94756630D01*
X200750500Y-70636630D01*
X212949501Y-70636630D01*
X212949501Y-72043372D01*
X212952318Y-72067659D01*
X212952318Y-72067661D01*
X212952319Y-72067662D01*
X212996188Y-72167016D01*
X213072985Y-72243813D01*
X213172339Y-72287682D01*
X213196628Y-72290500D01*
X214003373Y-72290499D01*
X214027663Y-72287682D01*
X214127017Y-72243813D01*
X214203814Y-72167016D01*
X214247683Y-72067662D01*
X214250501Y-72043373D01*
X214250500Y-70636628D01*
X214247683Y-70612338D01*
X214203814Y-70512984D01*
X214127017Y-70436187D01*
X214027663Y-70392318D01*
X214027664Y-70392318D01*
X214024957Y-70392004D01*
X214015971Y-70390961D01*
X213966493Y-70363401D01*
X213950501Y-70317455D01*
X213950501Y-62625833D01*
X213972175Y-62573507D01*
X214310896Y-62234786D01*
X217180471Y-59365211D01*
X217226615Y-59285287D01*
X217250501Y-59196142D01*
X217250501Y-59103855D01*
X217250501Y-53142544D01*
X217272175Y-53090218D01*
X217315976Y-53069037D01*
X217327663Y-53067682D01*
X217427017Y-53023813D01*
X217503814Y-52947016D01*
X217547683Y-52847662D01*
X217550501Y-52823373D01*
X217550500Y-51416628D01*
X217547683Y-51392338D01*
X217503814Y-51292984D01*
X217427017Y-51216187D01*
X217327663Y-51172318D01*
X217327664Y-51172318D01*
X217322805Y-51171754D01*
X217303374Y-51169500D01*
X217303370Y-51169500D01*
X216496628Y-51169500D01*
X216472341Y-51172317D01*
X216372984Y-51216187D01*
X216296188Y-51292983D01*
X216252319Y-51392337D01*
X216249501Y-51416630D01*
X216249501Y-52823372D01*
X216252318Y-52847659D01*
X216252318Y-52847661D01*
X216252319Y-52847662D01*
X216296188Y-52947016D01*
X216372985Y-53023813D01*
X216472339Y-53067682D01*
X216484028Y-53069038D01*
X216533507Y-53096595D01*
X216549501Y-53142544D01*
X216549501Y-58974165D01*
X216527827Y-59026491D01*
X213319531Y-62234786D01*
X213273387Y-62314709D01*
X213273385Y-62314714D01*
X213249501Y-62403852D01*
X213249501Y-70317455D01*
X213227827Y-70369781D01*
X213184027Y-70390962D01*
X213172340Y-70392317D01*
X213072984Y-70436187D01*
X212996188Y-70512983D01*
X212952319Y-70612337D01*
X212949501Y-70636630D01*
X200750500Y-70636630D01*
X200750500Y-46516630D01*
X212949501Y-46516630D01*
X212949501Y-47923372D01*
X212952318Y-47947659D01*
X212952318Y-47947661D01*
X212952319Y-47947662D01*
X212996188Y-48047016D01*
X213072985Y-48123813D01*
X213172339Y-48167682D01*
X213196628Y-48170500D01*
X214003373Y-48170499D01*
X214027663Y-48167682D01*
X214127017Y-48123813D01*
X214203814Y-48047016D01*
X214247683Y-47947662D01*
X214250501Y-47923373D01*
X214250501Y-47649500D01*
X214272175Y-47597174D01*
X214324501Y-47575500D01*
X214512034Y-47575500D01*
X214564360Y-47597174D01*
X214592686Y-47625500D01*
X214706814Y-47691392D01*
X214834105Y-47725499D01*
X214834106Y-47725500D01*
X214834108Y-47725500D01*
X214965894Y-47725500D01*
X214965894Y-47725499D01*
X215093186Y-47691392D01*
X215207314Y-47625500D01*
X215300500Y-47532314D01*
X215366392Y-47418186D01*
X215400499Y-47290894D01*
X215400500Y-47290894D01*
X215400500Y-47159106D01*
X215400499Y-47159105D01*
X215398329Y-47151008D01*
X215366392Y-47031814D01*
X215300500Y-46917686D01*
X215207314Y-46824500D01*
X215165745Y-46800500D01*
X215093190Y-46758610D01*
X215093181Y-46758606D01*
X214965894Y-46724500D01*
X214965892Y-46724500D01*
X214834108Y-46724500D01*
X214834106Y-46724500D01*
X214706818Y-46758606D01*
X214706809Y-46758610D01*
X214592685Y-46824500D01*
X214564360Y-46852826D01*
X214512034Y-46874500D01*
X214324500Y-46874500D01*
X214272174Y-46852826D01*
X214250500Y-46800500D01*
X214250500Y-46516627D01*
X214247683Y-46492340D01*
X214247683Y-46492338D01*
X214203814Y-46392984D01*
X214127017Y-46316187D01*
X214027663Y-46272318D01*
X214027664Y-46272318D01*
X214022805Y-46271754D01*
X214003374Y-46269500D01*
X214003370Y-46269500D01*
X213196628Y-46269500D01*
X213172341Y-46272317D01*
X213072984Y-46316187D01*
X212996188Y-46392983D01*
X212952319Y-46492337D01*
X212949501Y-46516630D01*
X200750500Y-46516630D01*
X200750500Y-42054139D01*
X200750963Y-42045889D01*
X200762093Y-41947122D01*
X200765776Y-41930988D01*
X200797213Y-41841143D01*
X200804401Y-41826218D01*
X200855043Y-41745621D01*
X200865366Y-41732676D01*
X200932676Y-41665367D01*
X200945622Y-41655043D01*
X201026223Y-41604398D01*
X201041141Y-41597214D01*
X201130985Y-41565776D01*
X201147129Y-41562091D01*
X201229549Y-41552805D01*
X201245874Y-41550966D01*
X201254158Y-41550501D01*
X210315894Y-41550501D01*
X210315894Y-41550500D01*
X210443186Y-41516393D01*
X210557314Y-41450501D01*
X210650500Y-41357315D01*
X210716392Y-41243187D01*
X210750499Y-41115895D01*
X210750500Y-41115895D01*
X210750500Y-40549500D01*
X210750500Y-39554136D01*
X210750963Y-39545886D01*
X210762092Y-39447121D01*
X210765776Y-39430987D01*
X210797213Y-39341143D01*
X210804401Y-39326218D01*
X210804402Y-39326217D01*
X210855043Y-39245621D01*
X210865366Y-39232676D01*
X210932677Y-39165366D01*
X210945621Y-39155043D01*
X211026223Y-39104398D01*
X211041139Y-39097215D01*
X211130987Y-39065776D01*
X211147123Y-39062092D01*
X211245882Y-39050964D01*
X211254165Y-39050500D01*
X211315891Y-39050500D01*
X219184108Y-39050500D01*
X219245841Y-39050500D01*
X219254126Y-39050965D01*
G37*
%TD.AperFunction*%
%TD*%
M02*
